G04 EAGLE Gerber RS-274X export*
G75*
%MOMM*%
%FSLAX34Y34*%
%LPD*%
%INTop Copper*%
%IPPOS*%
%AMOC8*
5,1,8,0,0,1.08239X$1,22.5*%
G01*
%ADD10R,1.308000X1.308000*%
%ADD11C,1.308000*%
%ADD12C,1.651000*%
%ADD13C,1.270000*%
%ADD14C,1.524000*%
%ADD15C,1.879600*%
%ADD16C,1.778000*%
%ADD17C,0.304800*%
%ADD18P,1.814519X8X202.500000*%
%ADD19R,1.200000X1.400000*%
%ADD20C,1.790700*%
%ADD21C,1.308100*%
%ADD22R,1.930400X0.965200*%
%ADD23C,1.408000*%
%ADD24C,1.778000*%
%ADD25C,0.250000*%
%ADD26C,2.250000*%
%ADD27C,2.000000*%
%ADD28C,1.000000*%
%ADD29C,0.906400*%
%ADD30C,0.152400*%
%ADD31C,1.500000*%

G36*
X619127Y10164D02*
X619127Y10164D01*
X619145Y10162D01*
X619248Y10184D01*
X619351Y10200D01*
X619367Y10209D01*
X619386Y10213D01*
X619476Y10267D01*
X619568Y10316D01*
X619581Y10329D01*
X619597Y10339D01*
X619666Y10418D01*
X619737Y10494D01*
X619745Y10511D01*
X619758Y10525D01*
X619797Y10622D01*
X619841Y10717D01*
X619843Y10736D01*
X619850Y10753D01*
X619869Y10920D01*
X622509Y973376D01*
X622506Y973397D01*
X622508Y973417D01*
X622486Y973517D01*
X622470Y973619D01*
X622460Y973637D01*
X622456Y973658D01*
X622403Y973746D01*
X622356Y973836D01*
X622341Y973851D01*
X622330Y973869D01*
X622252Y973935D01*
X622178Y974006D01*
X622159Y974015D01*
X622143Y974029D01*
X622048Y974067D01*
X621955Y974111D01*
X621934Y974113D01*
X621915Y974121D01*
X621748Y974139D01*
X13592Y974139D01*
X13573Y974136D01*
X13555Y974138D01*
X13452Y974116D01*
X13349Y974100D01*
X13333Y974091D01*
X13314Y974087D01*
X13224Y974033D01*
X13132Y973984D01*
X13119Y973971D01*
X13103Y973961D01*
X13034Y973882D01*
X12963Y973806D01*
X12955Y973789D01*
X12942Y973775D01*
X12903Y973678D01*
X12859Y973583D01*
X12857Y973564D01*
X12850Y973547D01*
X12831Y973380D01*
X12780Y955019D01*
X12788Y954971D01*
X12786Y954922D01*
X12808Y954850D01*
X12819Y954776D01*
X12842Y954733D01*
X12856Y954686D01*
X12899Y954625D01*
X12934Y954558D01*
X12969Y954524D01*
X12998Y954484D01*
X13058Y954440D01*
X13112Y954388D01*
X13156Y954368D01*
X13196Y954339D01*
X13267Y954316D01*
X13335Y954284D01*
X13383Y954279D01*
X13430Y954264D01*
X13505Y954265D01*
X13579Y954256D01*
X13627Y954267D01*
X13676Y954267D01*
X13746Y954292D01*
X13820Y954308D01*
X13862Y954333D01*
X13908Y954349D01*
X13967Y954396D01*
X14031Y954434D01*
X14063Y954471D01*
X14102Y954501D01*
X14176Y954602D01*
X14191Y954620D01*
X14194Y954627D01*
X14201Y954636D01*
X17866Y960984D01*
X23016Y966134D01*
X29323Y969776D01*
X36358Y971661D01*
X43642Y971661D01*
X50677Y969776D01*
X56984Y966134D01*
X62134Y960984D01*
X65776Y954677D01*
X67661Y947642D01*
X67661Y940358D01*
X65776Y933323D01*
X62134Y927016D01*
X56984Y921866D01*
X50677Y918224D01*
X43642Y916339D01*
X36358Y916339D01*
X29323Y918224D01*
X23016Y921866D01*
X17866Y927016D01*
X14224Y933323D01*
X14217Y933350D01*
X14208Y933372D01*
X14204Y933394D01*
X14157Y933483D01*
X14116Y933575D01*
X14100Y933592D01*
X14089Y933612D01*
X14017Y933681D01*
X13949Y933755D01*
X13928Y933766D01*
X13912Y933782D01*
X13821Y933824D01*
X13732Y933872D01*
X13710Y933876D01*
X13689Y933886D01*
X13589Y933897D01*
X13490Y933915D01*
X13467Y933911D01*
X13444Y933914D01*
X13346Y933893D01*
X13247Y933878D01*
X13226Y933867D01*
X13204Y933862D01*
X13118Y933811D01*
X13028Y933765D01*
X13012Y933748D01*
X12992Y933737D01*
X12927Y933661D01*
X12857Y933589D01*
X12847Y933568D01*
X12832Y933550D01*
X12794Y933457D01*
X12751Y933367D01*
X12748Y933344D01*
X12739Y933322D01*
X12720Y933156D01*
X10191Y10924D01*
X10194Y10903D01*
X10192Y10883D01*
X10214Y10783D01*
X10230Y10681D01*
X10240Y10663D01*
X10244Y10642D01*
X10297Y10554D01*
X10344Y10464D01*
X10359Y10449D01*
X10370Y10431D01*
X10448Y10365D01*
X10522Y10294D01*
X10541Y10285D01*
X10557Y10271D01*
X10652Y10233D01*
X10745Y10189D01*
X10766Y10187D01*
X10785Y10179D01*
X10952Y10161D01*
X619108Y10161D01*
X619127Y10164D01*
G37*
%LPC*%
G36*
X256596Y95593D02*
X256596Y95593D01*
X250793Y101396D01*
X250793Y101690D01*
X250790Y101710D01*
X250792Y101729D01*
X250770Y101831D01*
X250754Y101933D01*
X250744Y101950D01*
X250740Y101970D01*
X250687Y102059D01*
X250638Y102150D01*
X250624Y102164D01*
X250614Y102181D01*
X250535Y102248D01*
X250460Y102320D01*
X250442Y102328D01*
X250427Y102341D01*
X250331Y102380D01*
X250237Y102423D01*
X250217Y102425D01*
X250199Y102433D01*
X250032Y102451D01*
X228440Y102451D01*
X228420Y102448D01*
X228401Y102450D01*
X228299Y102428D01*
X228197Y102412D01*
X228180Y102402D01*
X228160Y102398D01*
X228071Y102345D01*
X227980Y102296D01*
X227966Y102282D01*
X227949Y102272D01*
X227882Y102193D01*
X227810Y102118D01*
X227802Y102100D01*
X227789Y102085D01*
X227750Y101989D01*
X227707Y101895D01*
X227705Y101875D01*
X227697Y101857D01*
X227679Y101690D01*
X227679Y97868D01*
X226786Y96975D01*
X213522Y96975D01*
X212629Y97868D01*
X212629Y113132D01*
X213522Y114025D01*
X226786Y114025D01*
X227679Y113132D01*
X227679Y109310D01*
X227682Y109290D01*
X227680Y109271D01*
X227702Y109169D01*
X227718Y109067D01*
X227728Y109050D01*
X227732Y109030D01*
X227785Y108941D01*
X227834Y108850D01*
X227848Y108836D01*
X227858Y108819D01*
X227937Y108752D01*
X228012Y108680D01*
X228030Y108672D01*
X228045Y108659D01*
X228141Y108620D01*
X228235Y108577D01*
X228255Y108575D01*
X228273Y108567D01*
X228440Y108549D01*
X250032Y108549D01*
X250052Y108552D01*
X250071Y108550D01*
X250173Y108572D01*
X250275Y108588D01*
X250292Y108598D01*
X250312Y108602D01*
X250401Y108655D01*
X250492Y108704D01*
X250506Y108718D01*
X250523Y108728D01*
X250590Y108807D01*
X250662Y108882D01*
X250670Y108900D01*
X250683Y108915D01*
X250722Y109011D01*
X250765Y109105D01*
X250767Y109125D01*
X250775Y109143D01*
X250793Y109310D01*
X250793Y109603D01*
X251195Y110005D01*
X251206Y110021D01*
X251222Y110033D01*
X251278Y110121D01*
X251338Y110205D01*
X251344Y110224D01*
X251355Y110240D01*
X251380Y110341D01*
X251410Y110440D01*
X251410Y110460D01*
X251415Y110479D01*
X251407Y110582D01*
X251404Y110685D01*
X251397Y110704D01*
X251396Y110724D01*
X251355Y110819D01*
X251320Y110916D01*
X251307Y110932D01*
X251299Y110950D01*
X251195Y111081D01*
X242074Y120202D01*
X240225Y122051D01*
X240225Y144767D01*
X240206Y144882D01*
X240189Y144998D01*
X240187Y145004D01*
X240186Y145010D01*
X240131Y145113D01*
X240078Y145218D01*
X240073Y145222D01*
X240070Y145227D01*
X239986Y145307D01*
X239902Y145390D01*
X239896Y145393D01*
X239892Y145397D01*
X239875Y145405D01*
X239755Y145471D01*
X236727Y146725D01*
X233779Y149673D01*
X232184Y153524D01*
X232184Y157692D01*
X233779Y161543D01*
X236727Y164491D01*
X240578Y166086D01*
X257855Y166086D01*
X257945Y166101D01*
X258036Y166108D01*
X258066Y166121D01*
X258098Y166126D01*
X258178Y166169D01*
X258262Y166204D01*
X258294Y166230D01*
X258315Y166241D01*
X258337Y166264D01*
X258393Y166309D01*
X271010Y178926D01*
X272859Y180775D01*
X324535Y180775D01*
X324625Y180789D01*
X324716Y180797D01*
X324746Y180809D01*
X324778Y180814D01*
X324859Y180857D01*
X324943Y180893D01*
X324975Y180919D01*
X324995Y180930D01*
X325018Y180953D01*
X325074Y180998D01*
X345002Y200926D01*
X345055Y201000D01*
X345115Y201070D01*
X345127Y201100D01*
X345146Y201126D01*
X345173Y201213D01*
X345207Y201298D01*
X345211Y201339D01*
X345218Y201361D01*
X345217Y201393D01*
X345225Y201465D01*
X345225Y243149D01*
X373303Y271227D01*
X373360Y271306D01*
X373422Y271381D01*
X373431Y271406D01*
X373447Y271427D01*
X373475Y271520D01*
X373510Y271611D01*
X373511Y271637D01*
X373519Y271662D01*
X373517Y271759D01*
X373521Y271857D01*
X373513Y271882D01*
X373513Y271908D01*
X373479Y272000D01*
X373452Y272093D01*
X373437Y272114D01*
X373428Y272139D01*
X373367Y272215D01*
X373312Y272295D01*
X373291Y272311D01*
X373275Y272331D01*
X373192Y272384D01*
X373114Y272442D01*
X373090Y272450D01*
X373068Y272464D01*
X372973Y272488D01*
X372881Y272518D01*
X372854Y272518D01*
X372829Y272524D01*
X372732Y272517D01*
X372635Y272516D01*
X372603Y272506D01*
X372584Y272505D01*
X372554Y272492D01*
X372474Y272469D01*
X371205Y271943D01*
X368795Y271943D01*
X366569Y272865D01*
X364865Y274569D01*
X363943Y276795D01*
X363943Y279205D01*
X364865Y281431D01*
X366569Y283135D01*
X367243Y283414D01*
X367343Y283476D01*
X367443Y283535D01*
X367447Y283540D01*
X367452Y283543D01*
X367527Y283633D01*
X367603Y283722D01*
X367605Y283728D01*
X367609Y283733D01*
X367651Y283842D01*
X367695Y283950D01*
X367696Y283958D01*
X367697Y283963D01*
X367698Y283981D01*
X367713Y284117D01*
X367713Y284947D01*
X373053Y290287D01*
X398737Y290287D01*
X398828Y290301D01*
X398918Y290309D01*
X398948Y290321D01*
X398980Y290326D01*
X399061Y290369D01*
X399145Y290405D01*
X399177Y290431D01*
X399198Y290442D01*
X399210Y290455D01*
X399212Y290456D01*
X399223Y290467D01*
X399276Y290510D01*
X405490Y296724D01*
X405543Y296798D01*
X405603Y296868D01*
X405615Y296898D01*
X405634Y296924D01*
X405661Y297011D01*
X405695Y297096D01*
X405699Y297137D01*
X405706Y297159D01*
X405705Y297191D01*
X405713Y297263D01*
X405713Y318737D01*
X405699Y318828D01*
X405691Y318918D01*
X405679Y318948D01*
X405674Y318980D01*
X405631Y319061D01*
X405595Y319145D01*
X405569Y319177D01*
X405558Y319198D01*
X405535Y319220D01*
X405490Y319276D01*
X399276Y325490D01*
X399202Y325543D01*
X399132Y325603D01*
X399102Y325615D01*
X399076Y325634D01*
X398989Y325661D01*
X398904Y325695D01*
X398863Y325699D01*
X398841Y325706D01*
X398809Y325705D01*
X398737Y325713D01*
X375263Y325713D01*
X375172Y325699D01*
X375082Y325691D01*
X375052Y325679D01*
X375020Y325674D01*
X374939Y325631D01*
X374855Y325595D01*
X374823Y325569D01*
X374802Y325558D01*
X374780Y325535D01*
X374724Y325490D01*
X359547Y310313D01*
X345138Y310313D01*
X345118Y310310D01*
X345099Y310312D01*
X344997Y310290D01*
X344895Y310274D01*
X344878Y310264D01*
X344858Y310260D01*
X344769Y310207D01*
X344678Y310158D01*
X344664Y310144D01*
X344647Y310134D01*
X344580Y310055D01*
X344508Y309980D01*
X344500Y309962D01*
X344487Y309947D01*
X344448Y309851D01*
X344405Y309757D01*
X344403Y309737D01*
X344395Y309719D01*
X344377Y309552D01*
X344377Y307142D01*
X344373Y307138D01*
X344361Y307122D01*
X344345Y307110D01*
X344289Y307023D01*
X344229Y306939D01*
X344223Y306920D01*
X344212Y306903D01*
X344187Y306802D01*
X344157Y306704D01*
X344157Y306684D01*
X344152Y306664D01*
X344160Y306561D01*
X344163Y306458D01*
X344170Y306439D01*
X344171Y306419D01*
X344212Y306324D01*
X344247Y306227D01*
X344260Y306211D01*
X344268Y306193D01*
X344373Y306062D01*
X344377Y306058D01*
X344377Y304136D01*
X344380Y304116D01*
X344378Y304097D01*
X344400Y303995D01*
X344416Y303893D01*
X344426Y303876D01*
X344430Y303856D01*
X344483Y303767D01*
X344532Y303676D01*
X344546Y303662D01*
X344556Y303645D01*
X344635Y303578D01*
X344710Y303506D01*
X344728Y303498D01*
X344743Y303485D01*
X344839Y303446D01*
X344933Y303403D01*
X344953Y303401D01*
X344971Y303393D01*
X345138Y303375D01*
X366635Y303375D01*
X366725Y303389D01*
X366816Y303397D01*
X366846Y303409D01*
X366878Y303414D01*
X366959Y303457D01*
X367043Y303493D01*
X367075Y303519D01*
X367095Y303530D01*
X367118Y303553D01*
X367174Y303598D01*
X376651Y313075D01*
X380418Y313075D01*
X380533Y313094D01*
X380649Y313111D01*
X380655Y313113D01*
X380661Y313114D01*
X380763Y313169D01*
X380868Y313222D01*
X380873Y313227D01*
X380878Y313230D01*
X380958Y313314D01*
X381040Y313398D01*
X381044Y313404D01*
X381048Y313408D01*
X381055Y313425D01*
X381121Y313545D01*
X382340Y316487D01*
X385413Y319560D01*
X389427Y321223D01*
X393773Y321223D01*
X397787Y319560D01*
X400860Y316487D01*
X402523Y312473D01*
X402523Y308127D01*
X400860Y304113D01*
X397787Y301040D01*
X393773Y299377D01*
X389427Y299377D01*
X385413Y301040D01*
X382340Y304113D01*
X381121Y307055D01*
X381060Y307155D01*
X381000Y307255D01*
X380995Y307259D01*
X380992Y307264D01*
X380902Y307339D01*
X380813Y307415D01*
X380807Y307417D01*
X380802Y307421D01*
X380694Y307463D01*
X380585Y307507D01*
X380577Y307508D01*
X380573Y307509D01*
X380554Y307510D01*
X380418Y307525D01*
X379265Y307525D01*
X379175Y307511D01*
X379084Y307503D01*
X379054Y307491D01*
X379022Y307486D01*
X378941Y307443D01*
X378857Y307407D01*
X378825Y307381D01*
X378805Y307370D01*
X378782Y307347D01*
X378726Y307302D01*
X369249Y297825D01*
X345138Y297825D01*
X345118Y297822D01*
X345099Y297824D01*
X344997Y297802D01*
X344895Y297786D01*
X344878Y297776D01*
X344858Y297772D01*
X344769Y297719D01*
X344678Y297670D01*
X344664Y297656D01*
X344647Y297646D01*
X344580Y297567D01*
X344508Y297492D01*
X344500Y297474D01*
X344487Y297459D01*
X344448Y297363D01*
X344405Y297269D01*
X344403Y297249D01*
X344395Y297231D01*
X344377Y297064D01*
X344377Y295142D01*
X344373Y295138D01*
X344361Y295122D01*
X344345Y295110D01*
X344289Y295023D01*
X344229Y294939D01*
X344223Y294920D01*
X344212Y294903D01*
X344187Y294802D01*
X344157Y294704D01*
X344157Y294684D01*
X344152Y294664D01*
X344160Y294561D01*
X344163Y294458D01*
X344170Y294439D01*
X344171Y294419D01*
X344212Y294324D01*
X344247Y294227D01*
X344260Y294211D01*
X344268Y294193D01*
X344373Y294062D01*
X344377Y294058D01*
X344377Y283142D01*
X344373Y283138D01*
X344361Y283122D01*
X344345Y283110D01*
X344289Y283023D01*
X344229Y282939D01*
X344223Y282920D01*
X344212Y282903D01*
X344187Y282802D01*
X344157Y282704D01*
X344157Y282684D01*
X344152Y282664D01*
X344160Y282561D01*
X344163Y282458D01*
X344170Y282439D01*
X344171Y282419D01*
X344212Y282324D01*
X344247Y282227D01*
X344260Y282211D01*
X344268Y282193D01*
X344373Y282062D01*
X344377Y282058D01*
X344377Y271142D01*
X343484Y270249D01*
X336736Y270249D01*
X336716Y270246D01*
X336697Y270248D01*
X336595Y270226D01*
X336493Y270210D01*
X336476Y270200D01*
X336456Y270196D01*
X336367Y270143D01*
X336276Y270094D01*
X336262Y270080D01*
X336245Y270070D01*
X336178Y269991D01*
X336106Y269916D01*
X336098Y269898D01*
X336085Y269883D01*
X336046Y269786D01*
X336003Y269693D01*
X336001Y269673D01*
X335993Y269655D01*
X335975Y269488D01*
X335975Y264551D01*
X328649Y257225D01*
X273965Y257225D01*
X273875Y257211D01*
X273784Y257203D01*
X273754Y257191D01*
X273722Y257186D01*
X273641Y257143D01*
X273557Y257107D01*
X273525Y257081D01*
X273505Y257070D01*
X273482Y257047D01*
X273426Y257002D01*
X233049Y216625D01*
X215282Y216625D01*
X215167Y216606D01*
X215051Y216589D01*
X215045Y216587D01*
X215039Y216586D01*
X214937Y216531D01*
X214832Y216478D01*
X214827Y216473D01*
X214822Y216470D01*
X214742Y216386D01*
X214660Y216302D01*
X214656Y216296D01*
X214653Y216292D01*
X214645Y216275D01*
X214579Y216155D01*
X213360Y213213D01*
X210287Y210140D01*
X206273Y208477D01*
X201927Y208477D01*
X197913Y210140D01*
X194840Y213213D01*
X193621Y216155D01*
X193560Y216254D01*
X193500Y216355D01*
X193495Y216359D01*
X193492Y216364D01*
X193402Y216439D01*
X193313Y216515D01*
X193307Y216517D01*
X193302Y216521D01*
X193194Y216563D01*
X193085Y216607D01*
X193077Y216608D01*
X193073Y216609D01*
X193054Y216610D01*
X192918Y216625D01*
X189882Y216625D01*
X189767Y216606D01*
X189651Y216589D01*
X189645Y216587D01*
X189639Y216586D01*
X189537Y216531D01*
X189432Y216478D01*
X189427Y216473D01*
X189422Y216470D01*
X189342Y216386D01*
X189260Y216302D01*
X189256Y216296D01*
X189253Y216292D01*
X189245Y216275D01*
X189179Y216155D01*
X187960Y213213D01*
X184887Y210140D01*
X180873Y208477D01*
X176527Y208477D01*
X172513Y210140D01*
X169440Y213213D01*
X168221Y216155D01*
X168160Y216254D01*
X168100Y216355D01*
X168095Y216359D01*
X168092Y216364D01*
X168002Y216439D01*
X167913Y216515D01*
X167907Y216517D01*
X167902Y216521D01*
X167794Y216563D01*
X167685Y216607D01*
X167677Y216608D01*
X167673Y216609D01*
X167654Y216610D01*
X167518Y216625D01*
X166951Y216625D01*
X154725Y228851D01*
X154725Y298649D01*
X177002Y320926D01*
X177055Y321000D01*
X177115Y321070D01*
X177127Y321100D01*
X177146Y321126D01*
X177173Y321213D01*
X177207Y321298D01*
X177211Y321339D01*
X177218Y321361D01*
X177217Y321393D01*
X177225Y321465D01*
X177225Y403849D01*
X204188Y430812D01*
X204199Y430828D01*
X204215Y430840D01*
X204271Y430928D01*
X204331Y431011D01*
X204337Y431030D01*
X204348Y431047D01*
X204373Y431148D01*
X204404Y431247D01*
X204403Y431266D01*
X204408Y431286D01*
X204400Y431389D01*
X204397Y431492D01*
X204390Y431511D01*
X204389Y431531D01*
X204348Y431626D01*
X204313Y431723D01*
X204300Y431739D01*
X204292Y431757D01*
X204188Y431888D01*
X167225Y468851D01*
X167225Y598649D01*
X176351Y607775D01*
X473649Y607775D01*
X487775Y593649D01*
X487775Y583047D01*
X487790Y582950D01*
X487800Y582854D01*
X487810Y582830D01*
X487814Y582804D01*
X487860Y582718D01*
X487900Y582629D01*
X487917Y582610D01*
X487930Y582586D01*
X488000Y582519D01*
X488066Y582448D01*
X488089Y582435D01*
X488108Y582417D01*
X488196Y582376D01*
X488282Y582329D01*
X488307Y582324D01*
X488331Y582313D01*
X488428Y582303D01*
X488524Y582285D01*
X488550Y582289D01*
X488575Y582286D01*
X488671Y582307D01*
X488767Y582321D01*
X488790Y582333D01*
X488816Y582339D01*
X488899Y582389D01*
X488986Y582433D01*
X489005Y582451D01*
X489027Y582465D01*
X489090Y582539D01*
X489158Y582608D01*
X489174Y582637D01*
X489187Y582652D01*
X489199Y582682D01*
X489239Y582755D01*
X490363Y585468D01*
X492632Y587737D01*
X495596Y588965D01*
X498804Y588965D01*
X501768Y587737D01*
X504037Y585468D01*
X505265Y582504D01*
X505265Y579296D01*
X504037Y576332D01*
X501768Y574063D01*
X498804Y572835D01*
X495596Y572835D01*
X492632Y574063D01*
X490363Y576332D01*
X489239Y579045D01*
X489188Y579128D01*
X489142Y579214D01*
X489123Y579232D01*
X489110Y579254D01*
X489035Y579316D01*
X488964Y579383D01*
X488940Y579394D01*
X488920Y579411D01*
X488829Y579446D01*
X488741Y579487D01*
X488715Y579489D01*
X488691Y579499D01*
X488593Y579503D01*
X488497Y579514D01*
X488471Y579508D01*
X488445Y579509D01*
X488351Y579482D01*
X488256Y579461D01*
X488234Y579448D01*
X488209Y579441D01*
X488129Y579385D01*
X488045Y579335D01*
X488028Y579315D01*
X488007Y579300D01*
X487948Y579222D01*
X487885Y579148D01*
X487875Y579124D01*
X487860Y579103D01*
X487830Y579011D01*
X487793Y578920D01*
X487790Y578888D01*
X487784Y578869D01*
X487784Y578836D01*
X487775Y578753D01*
X487775Y576465D01*
X487789Y576375D01*
X487797Y576284D01*
X487809Y576254D01*
X487814Y576222D01*
X487857Y576141D01*
X487893Y576057D01*
X487919Y576025D01*
X487930Y576005D01*
X487953Y575982D01*
X487998Y575926D01*
X493426Y570498D01*
X493500Y570445D01*
X493570Y570385D01*
X493600Y570373D01*
X493626Y570354D01*
X493713Y570327D01*
X493798Y570293D01*
X493839Y570289D01*
X493861Y570282D01*
X493893Y570283D01*
X493965Y570275D01*
X536035Y570275D01*
X536125Y570289D01*
X536216Y570297D01*
X536246Y570309D01*
X536278Y570314D01*
X536359Y570357D01*
X536443Y570393D01*
X536475Y570419D01*
X536495Y570430D01*
X536518Y570453D01*
X536574Y570498D01*
X541247Y575171D01*
X541259Y575187D01*
X541274Y575200D01*
X541330Y575287D01*
X541391Y575371D01*
X541396Y575390D01*
X541407Y575407D01*
X541433Y575507D01*
X541463Y575606D01*
X541462Y575626D01*
X541467Y575645D01*
X541459Y575748D01*
X541457Y575852D01*
X541450Y575871D01*
X541448Y575890D01*
X541408Y575985D01*
X541372Y576083D01*
X541360Y576099D01*
X541352Y576117D01*
X541247Y576248D01*
X541163Y576332D01*
X539935Y579296D01*
X539935Y582504D01*
X541163Y585468D01*
X543432Y587737D01*
X546396Y588965D01*
X549604Y588965D01*
X552568Y587737D01*
X554837Y585468D01*
X556065Y582504D01*
X556065Y579296D01*
X554837Y576332D01*
X552568Y574063D01*
X549604Y572835D01*
X547075Y572835D01*
X546985Y572821D01*
X546894Y572813D01*
X546864Y572801D01*
X546832Y572796D01*
X546751Y572753D01*
X546667Y572717D01*
X546635Y572691D01*
X546615Y572680D01*
X546592Y572657D01*
X546536Y572612D01*
X538649Y564725D01*
X491351Y564725D01*
X482225Y573851D01*
X482225Y591035D01*
X482211Y591125D01*
X482203Y591216D01*
X482191Y591246D01*
X482186Y591278D01*
X482143Y591359D01*
X482107Y591443D01*
X482081Y591475D01*
X482070Y591495D01*
X482047Y591518D01*
X482002Y591574D01*
X471574Y602002D01*
X471500Y602055D01*
X471430Y602115D01*
X471400Y602127D01*
X471374Y602146D01*
X471287Y602173D01*
X471202Y602207D01*
X471161Y602211D01*
X471139Y602218D01*
X471107Y602217D01*
X471035Y602225D01*
X178965Y602225D01*
X178875Y602211D01*
X178784Y602203D01*
X178754Y602191D01*
X178722Y602186D01*
X178641Y602143D01*
X178557Y602107D01*
X178525Y602081D01*
X178505Y602070D01*
X178482Y602047D01*
X178426Y602002D01*
X172998Y596574D01*
X172945Y596500D01*
X172885Y596430D01*
X172873Y596400D01*
X172854Y596374D01*
X172827Y596287D01*
X172793Y596202D01*
X172789Y596161D01*
X172782Y596139D01*
X172783Y596107D01*
X172775Y596035D01*
X172775Y587129D01*
X172790Y587033D01*
X172800Y586936D01*
X172810Y586912D01*
X172814Y586887D01*
X172860Y586801D01*
X172900Y586712D01*
X172917Y586692D01*
X172930Y586669D01*
X173000Y586602D01*
X173066Y586531D01*
X173089Y586518D01*
X173108Y586500D01*
X173196Y586459D01*
X173282Y586412D01*
X173307Y586407D01*
X173331Y586396D01*
X173428Y586386D01*
X173524Y586368D01*
X173550Y586372D01*
X173575Y586369D01*
X173671Y586390D01*
X173767Y586404D01*
X173790Y586416D01*
X173816Y586421D01*
X173899Y586471D01*
X173986Y586516D01*
X174005Y586534D01*
X174027Y586548D01*
X174090Y586622D01*
X174158Y586691D01*
X174174Y586720D01*
X174187Y586735D01*
X174199Y586765D01*
X174239Y586838D01*
X176250Y591691D01*
X181609Y597050D01*
X188611Y599951D01*
X196189Y599951D01*
X203191Y597050D01*
X208550Y591691D01*
X210644Y586638D01*
X210668Y586599D01*
X210684Y586555D01*
X210732Y586495D01*
X210773Y586429D01*
X210809Y586399D01*
X210837Y586363D01*
X210903Y586321D01*
X210963Y586272D01*
X211006Y586255D01*
X211044Y586230D01*
X211120Y586211D01*
X211192Y586184D01*
X211238Y586182D01*
X211283Y586170D01*
X211360Y586176D01*
X211438Y586173D01*
X211482Y586186D01*
X211528Y586189D01*
X211600Y586220D01*
X211674Y586242D01*
X211712Y586268D01*
X211754Y586286D01*
X211861Y586371D01*
X211877Y586382D01*
X211880Y586386D01*
X211885Y586391D01*
X213232Y587737D01*
X216196Y588965D01*
X219404Y588965D01*
X222368Y587737D01*
X224637Y585468D01*
X225761Y582755D01*
X225812Y582672D01*
X225858Y582586D01*
X225877Y582568D01*
X225890Y582546D01*
X225965Y582484D01*
X226036Y582417D01*
X226060Y582406D01*
X226080Y582389D01*
X226171Y582355D01*
X226259Y582313D01*
X226285Y582311D01*
X226309Y582301D01*
X226407Y582297D01*
X226503Y582286D01*
X226529Y582292D01*
X226555Y582291D01*
X226649Y582318D01*
X226744Y582339D01*
X226766Y582352D01*
X226791Y582359D01*
X226871Y582415D01*
X226955Y582465D01*
X226972Y582485D01*
X226993Y582500D01*
X227052Y582578D01*
X227115Y582652D01*
X227125Y582676D01*
X227140Y582697D01*
X227170Y582789D01*
X227207Y582880D01*
X227210Y582912D01*
X227216Y582931D01*
X227216Y582964D01*
X227225Y583047D01*
X227225Y593649D01*
X233851Y600275D01*
X453649Y600275D01*
X462775Y591149D01*
X462775Y584012D01*
X462790Y583916D01*
X462800Y583819D01*
X462810Y583795D01*
X462814Y583769D01*
X462860Y583684D01*
X462900Y583594D01*
X462917Y583575D01*
X462930Y583552D01*
X463000Y583485D01*
X463066Y583413D01*
X463089Y583401D01*
X463108Y583383D01*
X463196Y583342D01*
X463282Y583295D01*
X463307Y583290D01*
X463331Y583279D01*
X463428Y583268D01*
X463524Y583251D01*
X463550Y583255D01*
X463575Y583252D01*
X463671Y583273D01*
X463767Y583287D01*
X463790Y583299D01*
X463816Y583304D01*
X463899Y583354D01*
X463986Y583398D01*
X464005Y583417D01*
X464027Y583430D01*
X464090Y583504D01*
X464158Y583574D01*
X464174Y583603D01*
X464187Y583617D01*
X464199Y583648D01*
X464239Y583721D01*
X464963Y585468D01*
X467232Y587737D01*
X470196Y588965D01*
X473404Y588965D01*
X476368Y587737D01*
X478637Y585468D01*
X479865Y582504D01*
X479865Y579296D01*
X478637Y576332D01*
X476368Y574063D01*
X473404Y572835D01*
X470196Y572835D01*
X467232Y574063D01*
X464963Y576332D01*
X464239Y578079D01*
X464188Y578162D01*
X464142Y578248D01*
X464124Y578266D01*
X464110Y578288D01*
X464034Y578350D01*
X463964Y578417D01*
X463940Y578428D01*
X463920Y578445D01*
X463829Y578480D01*
X463741Y578521D01*
X463715Y578524D01*
X463691Y578533D01*
X463593Y578537D01*
X463497Y578548D01*
X463471Y578542D01*
X463445Y578544D01*
X463351Y578516D01*
X463256Y578496D01*
X463234Y578482D01*
X463209Y578475D01*
X463129Y578420D01*
X463045Y578370D01*
X463028Y578350D01*
X463007Y578335D01*
X462948Y578257D01*
X462885Y578183D01*
X462875Y578158D01*
X462860Y578137D01*
X462830Y578045D01*
X462793Y577954D01*
X462790Y577922D01*
X462784Y577904D01*
X462784Y577870D01*
X462775Y577788D01*
X462775Y568965D01*
X462789Y568875D01*
X462797Y568784D01*
X462809Y568754D01*
X462814Y568722D01*
X462857Y568641D01*
X462893Y568557D01*
X462919Y568525D01*
X462930Y568505D01*
X462953Y568482D01*
X462998Y568426D01*
X473426Y557998D01*
X473500Y557945D01*
X473570Y557885D01*
X473600Y557873D01*
X473626Y557854D01*
X473713Y557827D01*
X473798Y557793D01*
X473839Y557789D01*
X473861Y557782D01*
X473893Y557783D01*
X473965Y557775D01*
X563535Y557775D01*
X563625Y557789D01*
X563716Y557797D01*
X563746Y557809D01*
X563778Y557814D01*
X563859Y557857D01*
X563943Y557893D01*
X563975Y557919D01*
X563995Y557930D01*
X564018Y557953D01*
X564074Y557998D01*
X569502Y563426D01*
X569555Y563500D01*
X569615Y563570D01*
X569627Y563600D01*
X569646Y563626D01*
X569673Y563713D01*
X569707Y563798D01*
X569711Y563839D01*
X569718Y563861D01*
X569717Y563893D01*
X569725Y563965D01*
X569725Y573184D01*
X569706Y573299D01*
X569689Y573415D01*
X569687Y573421D01*
X569686Y573427D01*
X569631Y573530D01*
X569578Y573634D01*
X569573Y573639D01*
X569570Y573644D01*
X569485Y573725D01*
X569402Y573807D01*
X569396Y573810D01*
X569392Y573814D01*
X569375Y573822D01*
X569255Y573888D01*
X568832Y574063D01*
X566563Y576332D01*
X565335Y579296D01*
X565335Y582504D01*
X566563Y585468D01*
X568832Y587737D01*
X571796Y588965D01*
X575004Y588965D01*
X577968Y587737D01*
X579315Y586391D01*
X579352Y586364D01*
X579383Y586330D01*
X579451Y586292D01*
X579514Y586247D01*
X579558Y586234D01*
X579598Y586211D01*
X579675Y586198D01*
X579749Y586175D01*
X579795Y586176D01*
X579841Y586168D01*
X579918Y586179D01*
X579995Y586181D01*
X580038Y586197D01*
X580084Y586203D01*
X580153Y586239D01*
X580226Y586265D01*
X580262Y586294D01*
X580303Y586315D01*
X580358Y586371D01*
X580418Y586419D01*
X580443Y586458D01*
X580475Y586491D01*
X580541Y586610D01*
X580551Y586626D01*
X580553Y586631D01*
X580556Y586638D01*
X582650Y591691D01*
X588009Y597050D01*
X595011Y599951D01*
X602589Y599951D01*
X609591Y597050D01*
X614950Y591691D01*
X617851Y584689D01*
X617851Y577111D01*
X614950Y570109D01*
X609591Y564750D01*
X602589Y561849D01*
X595011Y561849D01*
X588009Y564750D01*
X582650Y570109D01*
X580556Y575162D01*
X580532Y575202D01*
X580516Y575245D01*
X580468Y575305D01*
X580427Y575372D01*
X580391Y575401D01*
X580363Y575437D01*
X580297Y575479D01*
X580237Y575528D01*
X580194Y575545D01*
X580156Y575570D01*
X580080Y575589D01*
X580008Y575617D01*
X579962Y575618D01*
X579917Y575630D01*
X579840Y575624D01*
X579762Y575627D01*
X579718Y575614D01*
X579672Y575611D01*
X579600Y575580D01*
X579526Y575558D01*
X579488Y575532D01*
X579446Y575514D01*
X579339Y575429D01*
X579323Y575418D01*
X579320Y575414D01*
X579315Y575409D01*
X577968Y574063D01*
X575745Y573142D01*
X575645Y573080D01*
X575545Y573020D01*
X575541Y573016D01*
X575536Y573012D01*
X575461Y572922D01*
X575385Y572834D01*
X575383Y572828D01*
X575379Y572823D01*
X575337Y572714D01*
X575293Y572605D01*
X575292Y572598D01*
X575291Y572593D01*
X575290Y572575D01*
X575275Y572439D01*
X575275Y561351D01*
X566149Y552225D01*
X471351Y552225D01*
X457225Y566351D01*
X457225Y588535D01*
X457211Y588625D01*
X457203Y588716D01*
X457191Y588746D01*
X457186Y588778D01*
X457143Y588859D01*
X457107Y588943D01*
X457081Y588975D01*
X457070Y588995D01*
X457047Y589018D01*
X457002Y589074D01*
X451574Y594502D01*
X451500Y594555D01*
X451430Y594615D01*
X451400Y594627D01*
X451374Y594646D01*
X451287Y594673D01*
X451202Y594707D01*
X451161Y594711D01*
X451139Y594718D01*
X451107Y594717D01*
X451035Y594725D01*
X236465Y594725D01*
X236375Y594711D01*
X236284Y594703D01*
X236254Y594691D01*
X236222Y594686D01*
X236141Y594643D01*
X236057Y594607D01*
X236025Y594581D01*
X236005Y594570D01*
X235982Y594547D01*
X235926Y594502D01*
X232998Y591574D01*
X232945Y591500D01*
X232885Y591430D01*
X232873Y591400D01*
X232854Y591374D01*
X232827Y591287D01*
X232793Y591202D01*
X232789Y591161D01*
X232782Y591139D01*
X232783Y591107D01*
X232775Y591035D01*
X232775Y546351D01*
X205498Y519074D01*
X205445Y519000D01*
X205385Y518930D01*
X205373Y518900D01*
X205354Y518874D01*
X205327Y518787D01*
X205293Y518702D01*
X205289Y518661D01*
X205282Y518639D01*
X205283Y518607D01*
X205275Y518535D01*
X205275Y471465D01*
X205277Y471450D01*
X205276Y471439D01*
X205289Y471379D01*
X205289Y471375D01*
X205297Y471284D01*
X205309Y471254D01*
X205314Y471222D01*
X205357Y471141D01*
X205393Y471057D01*
X205419Y471025D01*
X205430Y471005D01*
X205453Y470982D01*
X205498Y470926D01*
X215726Y460698D01*
X215800Y460645D01*
X215870Y460585D01*
X215900Y460573D01*
X215926Y460554D01*
X216013Y460527D01*
X216098Y460493D01*
X216139Y460489D01*
X216161Y460482D01*
X216193Y460483D01*
X216265Y460475D01*
X220270Y460475D01*
X220385Y460494D01*
X220501Y460511D01*
X220507Y460513D01*
X220513Y460514D01*
X220616Y460569D01*
X220720Y460622D01*
X220725Y460627D01*
X220730Y460630D01*
X220810Y460714D01*
X220893Y460798D01*
X220896Y460804D01*
X220900Y460808D01*
X220908Y460825D01*
X220974Y460945D01*
X221639Y462552D01*
X224048Y464961D01*
X227196Y466265D01*
X230604Y466265D01*
X233752Y464961D01*
X236161Y462552D01*
X236909Y460745D01*
X236971Y460645D01*
X237031Y460545D01*
X237036Y460541D01*
X237039Y460536D01*
X237129Y460461D01*
X237218Y460385D01*
X237224Y460383D01*
X237228Y460379D01*
X237337Y460337D01*
X237446Y460293D01*
X237453Y460292D01*
X237458Y460291D01*
X237476Y460290D01*
X237613Y460275D01*
X241149Y460275D01*
X247775Y453649D01*
X247775Y371351D01*
X247510Y371086D01*
X247456Y371012D01*
X247397Y370942D01*
X247385Y370912D01*
X247366Y370886D01*
X247339Y370799D01*
X247305Y370714D01*
X247301Y370673D01*
X247294Y370651D01*
X247295Y370619D01*
X247287Y370547D01*
X247287Y338053D01*
X236947Y327713D01*
X221263Y327713D01*
X221172Y327699D01*
X221082Y327691D01*
X221052Y327679D01*
X221020Y327674D01*
X220939Y327631D01*
X220855Y327595D01*
X220823Y327569D01*
X220802Y327558D01*
X220780Y327535D01*
X220724Y327490D01*
X216510Y323276D01*
X216457Y323202D01*
X216397Y323132D01*
X216385Y323102D01*
X216366Y323076D01*
X216339Y322989D01*
X216305Y322904D01*
X216301Y322863D01*
X216294Y322841D01*
X216295Y322809D01*
X216287Y322737D01*
X216287Y306036D01*
X216290Y306016D01*
X216288Y305997D01*
X216310Y305895D01*
X216326Y305793D01*
X216336Y305776D01*
X216340Y305756D01*
X216393Y305667D01*
X216442Y305576D01*
X216456Y305562D01*
X216466Y305545D01*
X216545Y305478D01*
X216620Y305406D01*
X216638Y305398D01*
X216653Y305385D01*
X216749Y305346D01*
X216843Y305303D01*
X216863Y305301D01*
X216881Y305293D01*
X217048Y305275D01*
X223262Y305275D01*
X223282Y305278D01*
X223301Y305276D01*
X223403Y305298D01*
X223505Y305314D01*
X223522Y305324D01*
X223542Y305328D01*
X223631Y305381D01*
X223722Y305430D01*
X223736Y305444D01*
X223753Y305454D01*
X223820Y305533D01*
X223892Y305608D01*
X223900Y305626D01*
X223913Y305641D01*
X223952Y305737D01*
X223995Y305831D01*
X223997Y305851D01*
X224005Y305869D01*
X224023Y306036D01*
X224023Y306058D01*
X224027Y306062D01*
X224039Y306078D01*
X224055Y306090D01*
X224111Y306178D01*
X224171Y306261D01*
X224177Y306281D01*
X224188Y306297D01*
X224213Y306397D01*
X224243Y306497D01*
X224243Y306517D01*
X224248Y306536D01*
X224240Y306639D01*
X224237Y306742D01*
X224230Y306761D01*
X224229Y306781D01*
X224188Y306876D01*
X224153Y306973D01*
X224140Y306989D01*
X224132Y307007D01*
X224027Y307138D01*
X224023Y307142D01*
X224023Y318058D01*
X224916Y318951D01*
X237311Y318951D01*
X237401Y318965D01*
X237492Y318973D01*
X237522Y318985D01*
X237554Y318990D01*
X237635Y319033D01*
X237719Y319069D01*
X237751Y319095D01*
X237771Y319106D01*
X237794Y319129D01*
X237850Y319174D01*
X252002Y333326D01*
X252055Y333400D01*
X252115Y333470D01*
X252127Y333500D01*
X252146Y333526D01*
X252173Y333613D01*
X252207Y333698D01*
X252211Y333739D01*
X252218Y333761D01*
X252217Y333793D01*
X252225Y333865D01*
X252225Y567635D01*
X252211Y567725D01*
X252203Y567816D01*
X252191Y567846D01*
X252186Y567878D01*
X252143Y567959D01*
X252107Y568043D01*
X252081Y568075D01*
X252070Y568095D01*
X252047Y568118D01*
X252002Y568174D01*
X246957Y573219D01*
X246863Y573286D01*
X246769Y573356D01*
X246763Y573358D01*
X246758Y573362D01*
X246647Y573396D01*
X246535Y573433D01*
X246529Y573433D01*
X246523Y573434D01*
X246406Y573431D01*
X246289Y573430D01*
X246282Y573428D01*
X246277Y573428D01*
X246259Y573422D01*
X246128Y573384D01*
X244804Y572835D01*
X241596Y572835D01*
X238632Y574063D01*
X236363Y576332D01*
X235135Y579296D01*
X235135Y582504D01*
X236363Y585468D01*
X238632Y587737D01*
X241596Y588965D01*
X244804Y588965D01*
X247768Y587737D01*
X250037Y585468D01*
X251265Y582504D01*
X251265Y579296D01*
X250716Y577972D01*
X250690Y577859D01*
X250661Y577745D01*
X250662Y577739D01*
X250660Y577733D01*
X250671Y577616D01*
X250680Y577500D01*
X250683Y577494D01*
X250683Y577488D01*
X250731Y577380D01*
X250777Y577274D01*
X250781Y577268D01*
X250783Y577263D01*
X250796Y577249D01*
X250881Y577143D01*
X255926Y572098D01*
X257775Y570249D01*
X257775Y331251D01*
X255926Y329402D01*
X246017Y319493D01*
X246006Y319477D01*
X245990Y319465D01*
X245934Y319378D01*
X245874Y319294D01*
X245868Y319275D01*
X245857Y319258D01*
X245832Y319157D01*
X245802Y319059D01*
X245802Y319039D01*
X245797Y319019D01*
X245805Y318916D01*
X245808Y318813D01*
X245815Y318794D01*
X245816Y318774D01*
X245857Y318679D01*
X245892Y318582D01*
X245905Y318566D01*
X245913Y318548D01*
X246017Y318417D01*
X246377Y318058D01*
X246377Y307142D01*
X246373Y307138D01*
X246361Y307122D01*
X246345Y307110D01*
X246289Y307023D01*
X246229Y306939D01*
X246223Y306920D01*
X246212Y306903D01*
X246187Y306802D01*
X246157Y306704D01*
X246157Y306684D01*
X246152Y306664D01*
X246160Y306561D01*
X246163Y306458D01*
X246170Y306439D01*
X246171Y306419D01*
X246212Y306324D01*
X246247Y306227D01*
X246260Y306211D01*
X246268Y306193D01*
X246373Y306062D01*
X246377Y306058D01*
X246377Y295142D01*
X246373Y295138D01*
X246361Y295122D01*
X246345Y295110D01*
X246289Y295023D01*
X246229Y294939D01*
X246223Y294920D01*
X246212Y294903D01*
X246187Y294802D01*
X246157Y294704D01*
X246157Y294684D01*
X246152Y294664D01*
X246160Y294561D01*
X246163Y294458D01*
X246170Y294439D01*
X246171Y294419D01*
X246212Y294324D01*
X246247Y294227D01*
X246260Y294211D01*
X246268Y294193D01*
X246373Y294062D01*
X246377Y294058D01*
X246377Y283142D01*
X246373Y283138D01*
X246361Y283122D01*
X246345Y283110D01*
X246289Y283023D01*
X246229Y282939D01*
X246223Y282920D01*
X246212Y282903D01*
X246187Y282802D01*
X246157Y282704D01*
X246157Y282684D01*
X246152Y282664D01*
X246160Y282561D01*
X246163Y282458D01*
X246170Y282439D01*
X246171Y282419D01*
X246212Y282324D01*
X246247Y282227D01*
X246260Y282211D01*
X246268Y282193D01*
X246373Y282062D01*
X246377Y282058D01*
X246377Y271142D01*
X245484Y270249D01*
X233089Y270249D01*
X232999Y270235D01*
X232908Y270227D01*
X232878Y270215D01*
X232846Y270210D01*
X232765Y270167D01*
X232681Y270131D01*
X232649Y270105D01*
X232629Y270094D01*
X232606Y270071D01*
X232550Y270026D01*
X229949Y267425D01*
X215282Y267425D01*
X215167Y267406D01*
X215051Y267389D01*
X215045Y267387D01*
X215039Y267386D01*
X214937Y267331D01*
X214832Y267278D01*
X214827Y267273D01*
X214822Y267270D01*
X214742Y267186D01*
X214660Y267102D01*
X214656Y267096D01*
X214653Y267092D01*
X214645Y267075D01*
X214579Y266955D01*
X213360Y264013D01*
X210287Y260940D01*
X206273Y259277D01*
X201927Y259277D01*
X197913Y260940D01*
X194840Y264013D01*
X193177Y268027D01*
X193177Y272373D01*
X194840Y276387D01*
X197913Y279460D01*
X201927Y281123D01*
X206273Y281123D01*
X210287Y279460D01*
X213360Y276387D01*
X214579Y273445D01*
X214641Y273344D01*
X214700Y273245D01*
X214705Y273241D01*
X214708Y273236D01*
X214798Y273161D01*
X214887Y273085D01*
X214893Y273083D01*
X214898Y273079D01*
X215006Y273037D01*
X215115Y272993D01*
X215123Y272992D01*
X215127Y272991D01*
X215146Y272990D01*
X215282Y272975D01*
X223262Y272975D01*
X223282Y272978D01*
X223301Y272976D01*
X223403Y272998D01*
X223505Y273014D01*
X223522Y273024D01*
X223542Y273028D01*
X223631Y273081D01*
X223722Y273130D01*
X223736Y273144D01*
X223753Y273154D01*
X223820Y273233D01*
X223892Y273308D01*
X223900Y273326D01*
X223913Y273341D01*
X223952Y273437D01*
X223995Y273531D01*
X223997Y273551D01*
X224005Y273569D01*
X224023Y273736D01*
X224023Y282058D01*
X224027Y282062D01*
X224039Y282078D01*
X224055Y282090D01*
X224111Y282178D01*
X224171Y282261D01*
X224177Y282281D01*
X224188Y282297D01*
X224213Y282398D01*
X224243Y282497D01*
X224243Y282517D01*
X224248Y282536D01*
X224240Y282639D01*
X224237Y282742D01*
X224230Y282761D01*
X224229Y282781D01*
X224188Y282876D01*
X224153Y282973D01*
X224140Y282989D01*
X224132Y283007D01*
X224027Y283138D01*
X224023Y283142D01*
X224023Y294058D01*
X224027Y294062D01*
X224039Y294078D01*
X224055Y294090D01*
X224111Y294178D01*
X224171Y294261D01*
X224177Y294281D01*
X224188Y294297D01*
X224213Y294398D01*
X224243Y294497D01*
X224243Y294517D01*
X224248Y294536D01*
X224240Y294639D01*
X224237Y294742D01*
X224230Y294761D01*
X224229Y294781D01*
X224188Y294876D01*
X224153Y294973D01*
X224140Y294989D01*
X224132Y295007D01*
X224027Y295138D01*
X224023Y295142D01*
X224023Y298964D01*
X224020Y298984D01*
X224022Y299003D01*
X224000Y299105D01*
X223984Y299207D01*
X223974Y299224D01*
X223970Y299244D01*
X223917Y299333D01*
X223868Y299424D01*
X223854Y299438D01*
X223844Y299455D01*
X223765Y299522D01*
X223690Y299594D01*
X223672Y299602D01*
X223657Y299615D01*
X223561Y299654D01*
X223467Y299697D01*
X223447Y299699D01*
X223429Y299707D01*
X223262Y299725D01*
X192775Y299725D01*
X192684Y299711D01*
X192594Y299703D01*
X192564Y299691D01*
X192532Y299686D01*
X192451Y299643D01*
X192367Y299607D01*
X192335Y299581D01*
X192314Y299570D01*
X192292Y299547D01*
X192236Y299502D01*
X181210Y288476D01*
X181157Y288402D01*
X181097Y288332D01*
X181085Y288302D01*
X181066Y288276D01*
X181039Y288189D01*
X181005Y288104D01*
X181001Y288063D01*
X180994Y288041D01*
X180995Y288009D01*
X180987Y287937D01*
X180987Y281584D01*
X181006Y281469D01*
X181023Y281353D01*
X181025Y281348D01*
X181026Y281341D01*
X181081Y281239D01*
X181134Y281134D01*
X181139Y281130D01*
X181142Y281124D01*
X181226Y281044D01*
X181310Y280962D01*
X181316Y280958D01*
X181320Y280955D01*
X181337Y280947D01*
X181457Y280881D01*
X184887Y279460D01*
X187960Y276387D01*
X189623Y272373D01*
X189623Y268027D01*
X187960Y264013D01*
X184887Y260940D01*
X181945Y259721D01*
X181845Y259660D01*
X181745Y259600D01*
X181741Y259595D01*
X181736Y259592D01*
X181661Y259502D01*
X181585Y259413D01*
X181583Y259407D01*
X181579Y259402D01*
X181537Y259294D01*
X181493Y259185D01*
X181492Y259177D01*
X181491Y259173D01*
X181490Y259154D01*
X181475Y259018D01*
X181475Y255982D01*
X181494Y255867D01*
X181511Y255751D01*
X181513Y255745D01*
X181514Y255739D01*
X181569Y255636D01*
X181622Y255532D01*
X181627Y255527D01*
X181630Y255522D01*
X181714Y255442D01*
X181798Y255360D01*
X181804Y255356D01*
X181808Y255353D01*
X181825Y255345D01*
X181945Y255279D01*
X184887Y254060D01*
X187960Y250987D01*
X189623Y246973D01*
X189623Y242627D01*
X187960Y238613D01*
X184933Y235586D01*
X184891Y235528D01*
X184842Y235476D01*
X184820Y235429D01*
X184790Y235387D01*
X184769Y235318D01*
X184738Y235253D01*
X184733Y235201D01*
X184717Y235151D01*
X184719Y235080D01*
X184711Y235009D01*
X184722Y234958D01*
X184724Y234906D01*
X184748Y234838D01*
X184764Y234768D01*
X184790Y234723D01*
X184808Y234675D01*
X184853Y234619D01*
X184890Y234557D01*
X184929Y234523D01*
X184962Y234483D01*
X185022Y234444D01*
X185077Y234397D01*
X185125Y234378D01*
X185169Y234350D01*
X185238Y234332D01*
X185305Y234305D01*
X185376Y234297D01*
X185407Y234289D01*
X185431Y234291D01*
X185472Y234287D01*
X190737Y234287D01*
X190828Y234301D01*
X190918Y234309D01*
X190948Y234321D01*
X190980Y234326D01*
X191061Y234369D01*
X191145Y234405D01*
X191177Y234431D01*
X191198Y234442D01*
X191220Y234465D01*
X191276Y234510D01*
X194638Y237872D01*
X194706Y237967D01*
X194776Y238061D01*
X194778Y238067D01*
X194782Y238072D01*
X194816Y238183D01*
X194852Y238295D01*
X194852Y238301D01*
X194854Y238307D01*
X194851Y238424D01*
X194850Y238541D01*
X194848Y238548D01*
X194848Y238553D01*
X194841Y238570D01*
X194803Y238702D01*
X193177Y242627D01*
X193177Y246973D01*
X194840Y250987D01*
X197913Y254060D01*
X201927Y255723D01*
X206273Y255723D01*
X210287Y254060D01*
X213360Y250987D01*
X214579Y248045D01*
X214640Y247945D01*
X214700Y247845D01*
X214705Y247841D01*
X214708Y247836D01*
X214798Y247761D01*
X214887Y247685D01*
X214893Y247683D01*
X214898Y247679D01*
X215006Y247637D01*
X215115Y247593D01*
X215123Y247592D01*
X215127Y247591D01*
X215146Y247590D01*
X215282Y247575D01*
X240835Y247575D01*
X240925Y247589D01*
X241016Y247597D01*
X241046Y247609D01*
X241078Y247614D01*
X241159Y247657D01*
X241243Y247693D01*
X241275Y247719D01*
X241295Y247730D01*
X241318Y247753D01*
X241374Y247798D01*
X284951Y291375D01*
X321262Y291375D01*
X321282Y291378D01*
X321301Y291376D01*
X321403Y291398D01*
X321505Y291414D01*
X321522Y291424D01*
X321542Y291428D01*
X321631Y291481D01*
X321722Y291530D01*
X321736Y291544D01*
X321753Y291554D01*
X321820Y291633D01*
X321892Y291708D01*
X321900Y291726D01*
X321913Y291741D01*
X321952Y291837D01*
X321995Y291931D01*
X321997Y291951D01*
X322005Y291969D01*
X322023Y292136D01*
X322023Y294058D01*
X322027Y294062D01*
X322039Y294078D01*
X322055Y294090D01*
X322111Y294178D01*
X322171Y294261D01*
X322177Y294281D01*
X322188Y294297D01*
X322213Y294398D01*
X322243Y294497D01*
X322243Y294517D01*
X322248Y294536D01*
X322240Y294639D01*
X322237Y294742D01*
X322230Y294761D01*
X322229Y294781D01*
X322188Y294876D01*
X322153Y294973D01*
X322140Y294989D01*
X322132Y295007D01*
X322027Y295138D01*
X322023Y295142D01*
X322023Y306058D01*
X322027Y306062D01*
X322039Y306078D01*
X322055Y306090D01*
X322111Y306178D01*
X322171Y306261D01*
X322177Y306281D01*
X322188Y306297D01*
X322213Y306397D01*
X322243Y306497D01*
X322243Y306517D01*
X322248Y306536D01*
X322240Y306639D01*
X322237Y306742D01*
X322230Y306761D01*
X322229Y306781D01*
X322188Y306876D01*
X322153Y306973D01*
X322140Y306989D01*
X322132Y307007D01*
X322027Y307138D01*
X322023Y307142D01*
X322023Y318058D01*
X322916Y318951D01*
X343484Y318951D01*
X344377Y318058D01*
X344377Y315648D01*
X344380Y315628D01*
X344378Y315609D01*
X344400Y315507D01*
X344416Y315405D01*
X344426Y315388D01*
X344430Y315368D01*
X344483Y315279D01*
X344532Y315188D01*
X344546Y315174D01*
X344556Y315157D01*
X344635Y315090D01*
X344710Y315018D01*
X344728Y315010D01*
X344743Y314997D01*
X344839Y314958D01*
X344933Y314915D01*
X344953Y314913D01*
X344971Y314905D01*
X345138Y314887D01*
X357337Y314887D01*
X357428Y314901D01*
X357518Y314909D01*
X357548Y314921D01*
X357580Y314926D01*
X357661Y314969D01*
X357745Y315005D01*
X357777Y315031D01*
X357798Y315042D01*
X357820Y315065D01*
X357876Y315110D01*
X373053Y330287D01*
X400947Y330287D01*
X408724Y322510D01*
X409926Y321308D01*
X409984Y321266D01*
X410036Y321217D01*
X410083Y321195D01*
X410125Y321165D01*
X410194Y321144D01*
X410259Y321113D01*
X410311Y321108D01*
X410361Y321092D01*
X410432Y321094D01*
X410503Y321086D01*
X410554Y321097D01*
X410606Y321099D01*
X410674Y321123D01*
X410744Y321138D01*
X410789Y321165D01*
X410837Y321183D01*
X410893Y321228D01*
X410955Y321265D01*
X410989Y321304D01*
X411029Y321337D01*
X411068Y321397D01*
X411115Y321452D01*
X411134Y321500D01*
X411162Y321544D01*
X411180Y321613D01*
X411207Y321680D01*
X411215Y321751D01*
X411223Y321782D01*
X411221Y321806D01*
X411225Y321846D01*
X411225Y515149D01*
X443402Y547326D01*
X443455Y547400D01*
X443515Y547470D01*
X443527Y547500D01*
X443546Y547526D01*
X443573Y547613D01*
X443607Y547698D01*
X443611Y547739D01*
X443618Y547761D01*
X443617Y547793D01*
X443625Y547865D01*
X443625Y572811D01*
X443606Y572926D01*
X443589Y573042D01*
X443587Y573048D01*
X443586Y573054D01*
X443531Y573157D01*
X443478Y573262D01*
X443473Y573266D01*
X443470Y573272D01*
X443387Y573351D01*
X443302Y573434D01*
X443296Y573438D01*
X443292Y573441D01*
X443275Y573449D01*
X443155Y573515D01*
X441832Y574063D01*
X439563Y576332D01*
X438335Y579296D01*
X438335Y582504D01*
X439563Y585468D01*
X441832Y587737D01*
X444796Y588965D01*
X448004Y588965D01*
X450968Y587737D01*
X453237Y585468D01*
X454465Y582504D01*
X454465Y579296D01*
X453237Y576332D01*
X450968Y574063D01*
X449645Y573515D01*
X449545Y573453D01*
X449445Y573393D01*
X449441Y573388D01*
X449436Y573385D01*
X449361Y573296D01*
X449285Y573206D01*
X449283Y573200D01*
X449279Y573196D01*
X449237Y573088D01*
X449193Y572978D01*
X449192Y572971D01*
X449191Y572966D01*
X449190Y572948D01*
X449175Y572811D01*
X449175Y545251D01*
X416998Y513074D01*
X416945Y513000D01*
X416885Y512930D01*
X416873Y512900D01*
X416854Y512874D01*
X416827Y512787D01*
X416793Y512702D01*
X416789Y512661D01*
X416782Y512639D01*
X416783Y512607D01*
X416775Y512535D01*
X416775Y282851D01*
X407149Y273225D01*
X383465Y273225D01*
X383375Y273211D01*
X383284Y273203D01*
X383254Y273191D01*
X383222Y273186D01*
X383141Y273143D01*
X383057Y273107D01*
X383025Y273081D01*
X383005Y273070D01*
X382982Y273047D01*
X382926Y273002D01*
X350998Y241074D01*
X350945Y241000D01*
X350885Y240930D01*
X350873Y240900D01*
X350854Y240874D01*
X350827Y240787D01*
X350793Y240702D01*
X350789Y240661D01*
X350782Y240639D01*
X350783Y240607D01*
X350775Y240535D01*
X350775Y198851D01*
X327149Y175225D01*
X275473Y175225D01*
X275383Y175211D01*
X275292Y175203D01*
X275262Y175191D01*
X275230Y175186D01*
X275149Y175143D01*
X275065Y175107D01*
X275033Y175081D01*
X275013Y175070D01*
X274990Y175047D01*
X274934Y175002D01*
X265838Y165906D01*
X265812Y165869D01*
X265778Y165838D01*
X265740Y165770D01*
X265695Y165707D01*
X265681Y165663D01*
X265659Y165623D01*
X265645Y165546D01*
X265623Y165472D01*
X265624Y165426D01*
X265616Y165381D01*
X265627Y165303D01*
X265629Y165226D01*
X265645Y165183D01*
X265651Y165137D01*
X265687Y165068D01*
X265713Y164995D01*
X265742Y164959D01*
X265763Y164918D01*
X265818Y164863D01*
X265867Y164803D01*
X265906Y164778D01*
X265938Y164746D01*
X266058Y164680D01*
X266074Y164670D01*
X266079Y164668D01*
X266085Y164665D01*
X266505Y164491D01*
X269453Y161543D01*
X271048Y157692D01*
X271048Y153524D01*
X269453Y149673D01*
X266505Y146725D01*
X262654Y145130D01*
X246536Y145130D01*
X246516Y145127D01*
X246497Y145129D01*
X246395Y145107D01*
X246293Y145090D01*
X246276Y145081D01*
X246256Y145076D01*
X246167Y145023D01*
X246076Y144975D01*
X246062Y144961D01*
X246045Y144950D01*
X245978Y144872D01*
X245906Y144797D01*
X245898Y144779D01*
X245885Y144763D01*
X245846Y144667D01*
X245803Y144574D01*
X245801Y144554D01*
X245793Y144535D01*
X245775Y144369D01*
X245775Y124665D01*
X245789Y124575D01*
X245797Y124484D01*
X245809Y124454D01*
X245814Y124422D01*
X245857Y124341D01*
X245893Y124257D01*
X245919Y124225D01*
X245930Y124205D01*
X245953Y124182D01*
X245998Y124126D01*
X255119Y115005D01*
X255135Y114994D01*
X255147Y114978D01*
X255234Y114922D01*
X255318Y114862D01*
X255337Y114856D01*
X255354Y114845D01*
X255455Y114820D01*
X255553Y114790D01*
X255573Y114790D01*
X255593Y114785D01*
X255696Y114793D01*
X255799Y114796D01*
X255818Y114803D01*
X255838Y114804D01*
X255933Y114845D01*
X256030Y114880D01*
X256046Y114893D01*
X256064Y114901D01*
X256195Y115005D01*
X256597Y115407D01*
X264804Y115407D01*
X270607Y109604D01*
X270607Y101396D01*
X264804Y95593D01*
X256596Y95593D01*
G37*
%LPD*%
%LPC*%
G36*
X91702Y16475D02*
X91702Y16475D01*
X89304Y17469D01*
X73469Y33304D01*
X72475Y35702D01*
X72475Y277982D01*
X72461Y278072D01*
X72453Y278163D01*
X72441Y278193D01*
X72436Y278225D01*
X72393Y278306D01*
X72357Y278389D01*
X72331Y278422D01*
X72320Y278442D01*
X72297Y278464D01*
X72252Y278520D01*
X41411Y309362D01*
X39469Y311304D01*
X38475Y313702D01*
X38475Y713298D01*
X39469Y715696D01*
X131304Y807531D01*
X133702Y808525D01*
X147982Y808525D01*
X148072Y808539D01*
X148163Y808547D01*
X148193Y808559D01*
X148225Y808564D01*
X148305Y808607D01*
X148389Y808643D01*
X148421Y808669D01*
X148442Y808680D01*
X148464Y808703D01*
X148520Y808748D01*
X175252Y835480D01*
X175305Y835554D01*
X175365Y835623D01*
X175377Y835653D01*
X175396Y835679D01*
X175423Y835766D01*
X175457Y835851D01*
X175461Y835892D01*
X175468Y835914D01*
X175467Y835947D01*
X175475Y836018D01*
X175475Y907982D01*
X175461Y908072D01*
X175453Y908163D01*
X175441Y908193D01*
X175436Y908225D01*
X175393Y908305D01*
X175357Y908389D01*
X175331Y908421D01*
X175320Y908442D01*
X175297Y908464D01*
X175252Y908520D01*
X152061Y931712D01*
X151987Y931765D01*
X151917Y931824D01*
X151887Y931837D01*
X151861Y931855D01*
X151774Y931882D01*
X151689Y931916D01*
X151648Y931921D01*
X151626Y931928D01*
X151594Y931927D01*
X151523Y931935D01*
X148396Y931935D01*
X145431Y933163D01*
X143163Y935431D01*
X141935Y938396D01*
X141935Y941604D01*
X143163Y944569D01*
X145431Y946837D01*
X148396Y948065D01*
X151604Y948065D01*
X154569Y946837D01*
X155187Y946219D01*
X155240Y946181D01*
X155287Y946135D01*
X155360Y946095D01*
X155386Y946076D01*
X155405Y946070D01*
X155434Y946054D01*
X156696Y945531D01*
X187531Y914696D01*
X188525Y912298D01*
X188525Y831702D01*
X187531Y829304D01*
X154696Y796469D01*
X152298Y795475D01*
X138018Y795475D01*
X137928Y795461D01*
X137837Y795453D01*
X137807Y795441D01*
X137775Y795436D01*
X137695Y795393D01*
X137611Y795357D01*
X137579Y795331D01*
X137558Y795320D01*
X137536Y795297D01*
X137480Y795252D01*
X51748Y709520D01*
X51705Y709461D01*
X51663Y709416D01*
X51655Y709401D01*
X51635Y709377D01*
X51623Y709347D01*
X51604Y709321D01*
X51577Y709234D01*
X51575Y709227D01*
X51559Y709193D01*
X51558Y709186D01*
X51543Y709149D01*
X51539Y709108D01*
X51532Y709086D01*
X51533Y709053D01*
X51525Y708982D01*
X51525Y318018D01*
X51539Y317928D01*
X51547Y317837D01*
X51559Y317807D01*
X51564Y317775D01*
X51607Y317694D01*
X51643Y317611D01*
X51669Y317578D01*
X51680Y317558D01*
X51703Y317536D01*
X51748Y317480D01*
X82589Y286638D01*
X84531Y284696D01*
X85525Y282298D01*
X85525Y40018D01*
X85539Y39928D01*
X85547Y39837D01*
X85559Y39807D01*
X85564Y39775D01*
X85607Y39695D01*
X85643Y39611D01*
X85669Y39579D01*
X85680Y39558D01*
X85703Y39536D01*
X85748Y39480D01*
X95480Y29748D01*
X95554Y29695D01*
X95623Y29635D01*
X95653Y29623D01*
X95679Y29604D01*
X95766Y29577D01*
X95851Y29543D01*
X95892Y29539D01*
X95914Y29532D01*
X95947Y29533D01*
X96018Y29525D01*
X121382Y29525D01*
X121472Y29539D01*
X121563Y29547D01*
X121593Y29559D01*
X121625Y29564D01*
X121706Y29607D01*
X121789Y29643D01*
X121822Y29669D01*
X121842Y29680D01*
X121864Y29703D01*
X121920Y29748D01*
X137712Y45539D01*
X137765Y45613D01*
X137824Y45683D01*
X137837Y45713D01*
X137855Y45739D01*
X137882Y45826D01*
X137916Y45911D01*
X137921Y45952D01*
X137928Y45974D01*
X137927Y46006D01*
X137935Y46077D01*
X137935Y46204D01*
X139163Y49169D01*
X141431Y51437D01*
X144396Y52665D01*
X144523Y52665D01*
X144613Y52680D01*
X144704Y52687D01*
X144733Y52700D01*
X144765Y52705D01*
X144846Y52748D01*
X144930Y52783D01*
X144962Y52809D01*
X144983Y52820D01*
X145005Y52843D01*
X145061Y52888D01*
X158262Y66089D01*
X160204Y68031D01*
X162602Y69025D01*
X244482Y69025D01*
X244572Y69039D01*
X244663Y69047D01*
X244693Y69059D01*
X244725Y69064D01*
X244805Y69107D01*
X244889Y69143D01*
X244921Y69169D01*
X244942Y69180D01*
X244964Y69203D01*
X245020Y69248D01*
X286304Y110531D01*
X288702Y111525D01*
X373798Y111525D01*
X376196Y110531D01*
X404980Y81748D01*
X405054Y81695D01*
X405123Y81635D01*
X405153Y81623D01*
X405179Y81604D01*
X405266Y81577D01*
X405351Y81543D01*
X405392Y81539D01*
X405414Y81532D01*
X405447Y81533D01*
X405518Y81525D01*
X510214Y81525D01*
X510234Y81528D01*
X510253Y81526D01*
X510355Y81548D01*
X510457Y81564D01*
X510474Y81574D01*
X510494Y81578D01*
X510583Y81631D01*
X510674Y81680D01*
X510688Y81694D01*
X510705Y81704D01*
X510772Y81783D01*
X510844Y81858D01*
X510852Y81876D01*
X510865Y81891D01*
X510904Y81987D01*
X510947Y82081D01*
X510949Y82101D01*
X510957Y82119D01*
X510975Y82286D01*
X510975Y149482D01*
X510973Y149497D01*
X510974Y149509D01*
X510961Y149572D01*
X510953Y149663D01*
X510941Y149693D01*
X510936Y149725D01*
X510893Y149805D01*
X510857Y149889D01*
X510831Y149921D01*
X510820Y149942D01*
X510797Y149964D01*
X510752Y150020D01*
X474469Y186304D01*
X473475Y188702D01*
X473475Y223198D01*
X474469Y225596D01*
X480534Y231662D01*
X480546Y231678D01*
X480562Y231690D01*
X480618Y231778D01*
X480678Y231861D01*
X480684Y231880D01*
X480695Y231897D01*
X480720Y231998D01*
X480750Y232097D01*
X480750Y232116D01*
X480755Y232136D01*
X480747Y232239D01*
X480744Y232342D01*
X480737Y232361D01*
X480735Y232381D01*
X480695Y232476D01*
X480659Y232573D01*
X480647Y232589D01*
X480639Y232607D01*
X480534Y232738D01*
X457520Y255752D01*
X457446Y255805D01*
X457377Y255865D01*
X457347Y255877D01*
X457321Y255896D01*
X457234Y255923D01*
X457149Y255957D01*
X457108Y255961D01*
X457086Y255968D01*
X457053Y255967D01*
X456982Y255975D01*
X448702Y255975D01*
X446304Y256969D01*
X431469Y271804D01*
X430475Y274202D01*
X430475Y285957D01*
X430461Y286047D01*
X430453Y286138D01*
X430441Y286168D01*
X430436Y286200D01*
X430393Y286280D01*
X430357Y286364D01*
X430331Y286396D01*
X430320Y286417D01*
X430297Y286439D01*
X430252Y286495D01*
X429247Y287500D01*
X427855Y290861D01*
X427855Y309739D01*
X429247Y313100D01*
X431820Y315673D01*
X435181Y317065D01*
X438819Y317065D01*
X442180Y315673D01*
X444753Y313100D01*
X446145Y309739D01*
X446145Y290861D01*
X444753Y287500D01*
X443748Y286495D01*
X443695Y286421D01*
X443635Y286352D01*
X443623Y286322D01*
X443604Y286295D01*
X443577Y286208D01*
X443543Y286124D01*
X443539Y286083D01*
X443532Y286060D01*
X443533Y286028D01*
X443525Y285957D01*
X443525Y278518D01*
X443539Y278428D01*
X443547Y278337D01*
X443559Y278307D01*
X443564Y278275D01*
X443607Y278195D01*
X443643Y278111D01*
X443669Y278079D01*
X443680Y278058D01*
X443703Y278036D01*
X443748Y277980D01*
X452480Y269248D01*
X452554Y269195D01*
X452623Y269135D01*
X452653Y269123D01*
X452679Y269104D01*
X452766Y269077D01*
X452851Y269043D01*
X452892Y269039D01*
X452914Y269032D01*
X452947Y269033D01*
X453018Y269025D01*
X461298Y269025D01*
X463696Y268031D01*
X492780Y238948D01*
X492854Y238895D01*
X492923Y238835D01*
X492953Y238823D01*
X492979Y238804D01*
X493066Y238777D01*
X493151Y238743D01*
X493192Y238739D01*
X493214Y238732D01*
X493247Y238733D01*
X493318Y238725D01*
X495911Y238725D01*
X496001Y238739D01*
X496092Y238747D01*
X496122Y238759D01*
X496154Y238764D01*
X496234Y238807D01*
X496318Y238843D01*
X496350Y238869D01*
X496371Y238880D01*
X496393Y238903D01*
X496449Y238948D01*
X499472Y241970D01*
X503708Y243725D01*
X552592Y243725D01*
X556828Y241970D01*
X569751Y229048D01*
X569825Y228995D01*
X569894Y228935D01*
X569924Y228923D01*
X569950Y228904D01*
X570037Y228877D01*
X570122Y228843D01*
X570163Y228839D01*
X570186Y228832D01*
X570218Y228833D01*
X570289Y228825D01*
X590292Y228825D01*
X594528Y227070D01*
X597770Y223828D01*
X599525Y219592D01*
X599525Y215008D01*
X597770Y210772D01*
X594528Y207530D01*
X590292Y205775D01*
X562908Y205775D01*
X558672Y207530D01*
X545749Y220452D01*
X545675Y220505D01*
X545606Y220565D01*
X545576Y220577D01*
X545550Y220596D01*
X545463Y220623D01*
X545378Y220657D01*
X545337Y220661D01*
X545314Y220668D01*
X545282Y220667D01*
X545211Y220675D01*
X503708Y220675D01*
X499472Y222430D01*
X496449Y225452D01*
X496375Y225505D01*
X496306Y225565D01*
X496276Y225577D01*
X496250Y225596D01*
X496163Y225623D01*
X496078Y225657D01*
X496037Y225661D01*
X496014Y225668D01*
X495982Y225667D01*
X495911Y225675D01*
X493318Y225675D01*
X493228Y225661D01*
X493137Y225653D01*
X493107Y225641D01*
X493075Y225636D01*
X492995Y225593D01*
X492911Y225557D01*
X492879Y225531D01*
X492858Y225520D01*
X492836Y225497D01*
X492780Y225452D01*
X486748Y219420D01*
X486695Y219346D01*
X486635Y219277D01*
X486623Y219247D01*
X486604Y219221D01*
X486577Y219134D01*
X486543Y219049D01*
X486539Y219008D01*
X486532Y218986D01*
X486533Y218953D01*
X486525Y218882D01*
X486525Y193018D01*
X486539Y192928D01*
X486547Y192837D01*
X486559Y192807D01*
X486564Y192775D01*
X486607Y192695D01*
X486643Y192611D01*
X486669Y192579D01*
X486680Y192558D01*
X486703Y192536D01*
X486748Y192480D01*
X523031Y156196D01*
X524025Y153798D01*
X524025Y67518D01*
X524039Y67428D01*
X524047Y67337D01*
X524059Y67307D01*
X524064Y67275D01*
X524107Y67195D01*
X524143Y67111D01*
X524169Y67079D01*
X524180Y67058D01*
X524203Y67036D01*
X524248Y66980D01*
X540939Y50288D01*
X541013Y50235D01*
X541083Y50176D01*
X541113Y50163D01*
X541139Y50145D01*
X541226Y50118D01*
X541311Y50084D01*
X541352Y50079D01*
X541374Y50072D01*
X541406Y50073D01*
X541477Y50065D01*
X541604Y50065D01*
X544569Y48837D01*
X546837Y46569D01*
X548065Y43604D01*
X548065Y40396D01*
X546837Y37431D01*
X544569Y35163D01*
X541604Y33935D01*
X538396Y33935D01*
X535431Y35163D01*
X533163Y37431D01*
X531935Y40396D01*
X531935Y40523D01*
X531920Y40613D01*
X531913Y40704D01*
X531900Y40733D01*
X531895Y40765D01*
X531852Y40846D01*
X531817Y40930D01*
X531791Y40962D01*
X531780Y40983D01*
X531757Y41005D01*
X531712Y41061D01*
X511969Y60804D01*
X510975Y63202D01*
X510975Y67714D01*
X510972Y67734D01*
X510974Y67753D01*
X510952Y67855D01*
X510936Y67957D01*
X510926Y67974D01*
X510922Y67994D01*
X510869Y68083D01*
X510820Y68174D01*
X510806Y68188D01*
X510796Y68205D01*
X510717Y68272D01*
X510642Y68344D01*
X510624Y68352D01*
X510609Y68365D01*
X510513Y68404D01*
X510419Y68447D01*
X510399Y68449D01*
X510381Y68457D01*
X510214Y68475D01*
X401202Y68475D01*
X398804Y69469D01*
X370020Y98252D01*
X369946Y98305D01*
X369877Y98365D01*
X369847Y98377D01*
X369821Y98396D01*
X369734Y98423D01*
X369649Y98457D01*
X369608Y98461D01*
X369586Y98468D01*
X369553Y98467D01*
X369482Y98475D01*
X293018Y98475D01*
X292928Y98461D01*
X292837Y98453D01*
X292807Y98441D01*
X292775Y98436D01*
X292695Y98393D01*
X292611Y98357D01*
X292579Y98331D01*
X292558Y98320D01*
X292549Y98311D01*
X292548Y98311D01*
X292534Y98295D01*
X292480Y98252D01*
X251196Y56969D01*
X248798Y55975D01*
X166918Y55975D01*
X166828Y55961D01*
X166737Y55953D01*
X166707Y55941D01*
X166675Y55936D01*
X166594Y55893D01*
X166511Y55857D01*
X166478Y55831D01*
X166458Y55820D01*
X166436Y55797D01*
X166380Y55752D01*
X154288Y43661D01*
X154235Y43587D01*
X154176Y43517D01*
X154163Y43487D01*
X154145Y43461D01*
X154118Y43374D01*
X154084Y43289D01*
X154079Y43248D01*
X154072Y43226D01*
X154073Y43194D01*
X154065Y43123D01*
X154065Y42996D01*
X152837Y40031D01*
X150569Y37763D01*
X147604Y36535D01*
X147477Y36535D01*
X147387Y36520D01*
X147296Y36513D01*
X147267Y36500D01*
X147235Y36495D01*
X147154Y36452D01*
X147070Y36417D01*
X147038Y36391D01*
X147017Y36380D01*
X146995Y36357D01*
X146939Y36312D01*
X130038Y19411D01*
X128096Y17469D01*
X125698Y16475D01*
X91702Y16475D01*
G37*
%LPD*%
%LPC*%
G36*
X585708Y255775D02*
X585708Y255775D01*
X581472Y257530D01*
X578230Y260772D01*
X576475Y265008D01*
X576475Y284411D01*
X576461Y284501D01*
X576453Y284592D01*
X576441Y284622D01*
X576436Y284654D01*
X576393Y284734D01*
X576357Y284818D01*
X576331Y284850D01*
X576320Y284871D01*
X576297Y284893D01*
X576252Y284949D01*
X495449Y365752D01*
X495375Y365805D01*
X495306Y365865D01*
X495276Y365877D01*
X495250Y365896D01*
X495163Y365923D01*
X495078Y365957D01*
X495037Y365961D01*
X495014Y365968D01*
X494982Y365967D01*
X494911Y365975D01*
X440710Y365975D01*
X440646Y365965D01*
X440580Y365964D01*
X440500Y365941D01*
X440467Y365936D01*
X440450Y365926D01*
X440419Y365917D01*
X437541Y364725D01*
X432459Y364725D01*
X427764Y366670D01*
X424170Y370264D01*
X422225Y374959D01*
X422225Y380041D01*
X424170Y384736D01*
X427764Y388330D01*
X432459Y390275D01*
X437541Y390275D01*
X440419Y389083D01*
X440483Y389068D01*
X440544Y389043D01*
X440626Y389034D01*
X440658Y389027D01*
X440678Y389028D01*
X440710Y389025D01*
X502292Y389025D01*
X506528Y387270D01*
X597770Y296028D01*
X599525Y291792D01*
X599525Y265008D01*
X597770Y260772D01*
X594528Y257530D01*
X590292Y255775D01*
X585708Y255775D01*
G37*
%LPD*%
%LPC*%
G36*
X253795Y616443D02*
X253795Y616443D01*
X251569Y617365D01*
X249865Y619069D01*
X248943Y621295D01*
X248943Y623705D01*
X249865Y625931D01*
X251569Y627635D01*
X253795Y628557D01*
X256205Y628557D01*
X258431Y627635D01*
X260135Y625931D01*
X260212Y625745D01*
X260274Y625645D01*
X260333Y625545D01*
X260338Y625541D01*
X260341Y625536D01*
X260431Y625461D01*
X260520Y625385D01*
X260526Y625383D01*
X260531Y625379D01*
X260640Y625337D01*
X260748Y625293D01*
X260756Y625292D01*
X260760Y625291D01*
X260779Y625290D01*
X260915Y625275D01*
X551935Y625275D01*
X552025Y625289D01*
X552116Y625297D01*
X552146Y625309D01*
X552178Y625314D01*
X552259Y625357D01*
X552343Y625393D01*
X552375Y625419D01*
X552395Y625430D01*
X552418Y625453D01*
X552474Y625498D01*
X570402Y643426D01*
X570455Y643500D01*
X570515Y643570D01*
X570527Y643600D01*
X570546Y643626D01*
X570573Y643713D01*
X570607Y643798D01*
X570611Y643839D01*
X570618Y643861D01*
X570617Y643893D01*
X570625Y643965D01*
X570625Y724474D01*
X570622Y724494D01*
X570624Y724513D01*
X570602Y724615D01*
X570586Y724717D01*
X570576Y724734D01*
X570572Y724754D01*
X570519Y724843D01*
X570470Y724934D01*
X570456Y724948D01*
X570446Y724965D01*
X570367Y725032D01*
X570292Y725104D01*
X570274Y725112D01*
X570259Y725125D01*
X570163Y725164D01*
X570069Y725207D01*
X570049Y725209D01*
X570031Y725217D01*
X569864Y725235D01*
X566228Y725235D01*
X565335Y726128D01*
X565335Y740472D01*
X566228Y741365D01*
X580624Y741365D01*
X580636Y741356D01*
X580680Y741343D01*
X580721Y741320D01*
X580797Y741307D01*
X580872Y741284D01*
X580917Y741285D01*
X580963Y741277D01*
X581040Y741288D01*
X581117Y741290D01*
X581161Y741306D01*
X581206Y741312D01*
X581275Y741348D01*
X581348Y741374D01*
X581384Y741403D01*
X581425Y741424D01*
X581480Y741480D01*
X581540Y741528D01*
X581565Y741567D01*
X581597Y741600D01*
X581663Y741719D01*
X581673Y741735D01*
X581675Y741740D01*
X581678Y741747D01*
X582650Y744091D01*
X588009Y749450D01*
X595011Y752351D01*
X602589Y752351D01*
X609591Y749450D01*
X614950Y744091D01*
X617851Y737089D01*
X617851Y729511D01*
X614950Y722509D01*
X609591Y717150D01*
X602589Y714249D01*
X595011Y714249D01*
X588009Y717150D01*
X582650Y722509D01*
X581678Y724853D01*
X581654Y724892D01*
X581638Y724936D01*
X581590Y724996D01*
X581549Y725063D01*
X581513Y725092D01*
X581485Y725128D01*
X581419Y725170D01*
X581359Y725219D01*
X581316Y725236D01*
X581278Y725261D01*
X581202Y725280D01*
X581130Y725308D01*
X581084Y725309D01*
X581039Y725321D01*
X580962Y725315D01*
X580884Y725318D01*
X580840Y725305D01*
X580794Y725302D01*
X580722Y725271D01*
X580648Y725249D01*
X580627Y725235D01*
X576936Y725235D01*
X576916Y725232D01*
X576897Y725234D01*
X576795Y725212D01*
X576693Y725196D01*
X576676Y725186D01*
X576656Y725182D01*
X576567Y725129D01*
X576476Y725080D01*
X576462Y725066D01*
X576445Y725056D01*
X576378Y724977D01*
X576306Y724902D01*
X576298Y724884D01*
X576285Y724869D01*
X576246Y724773D01*
X576203Y724679D01*
X576201Y724659D01*
X576193Y724641D01*
X576175Y724474D01*
X576175Y639751D01*
X574549Y638125D01*
X573265Y638125D01*
X573175Y638111D01*
X573084Y638103D01*
X573054Y638091D01*
X573022Y638086D01*
X572941Y638043D01*
X572857Y638007D01*
X572825Y637981D01*
X572805Y637970D01*
X572782Y637947D01*
X572726Y637902D01*
X554549Y619725D01*
X260915Y619725D01*
X260801Y619707D01*
X260684Y619689D01*
X260678Y619687D01*
X260672Y619686D01*
X260569Y619631D01*
X260465Y619578D01*
X260461Y619573D01*
X260455Y619570D01*
X260374Y619485D01*
X260293Y619402D01*
X260289Y619396D01*
X260286Y619392D01*
X260278Y619375D01*
X260212Y619255D01*
X260135Y619069D01*
X258431Y617365D01*
X256205Y616443D01*
X253795Y616443D01*
G37*
%LPD*%
%LPC*%
G36*
X161351Y149725D02*
X161351Y149725D01*
X149725Y161351D01*
X149725Y188535D01*
X149711Y188625D01*
X149703Y188716D01*
X149691Y188746D01*
X149686Y188778D01*
X149643Y188859D01*
X149607Y188943D01*
X149581Y188975D01*
X149570Y188995D01*
X149547Y189018D01*
X149502Y189074D01*
X109725Y228851D01*
X109725Y485959D01*
X111574Y487808D01*
X121018Y497252D01*
X121086Y497347D01*
X121156Y497441D01*
X121158Y497447D01*
X121162Y497452D01*
X121196Y497563D01*
X121232Y497675D01*
X121232Y497681D01*
X121234Y497687D01*
X121231Y497804D01*
X121230Y497921D01*
X121228Y497928D01*
X121228Y497933D01*
X121221Y497950D01*
X121183Y498082D01*
X120635Y499406D01*
X120635Y502614D01*
X121863Y505579D01*
X124131Y507847D01*
X127096Y509075D01*
X130304Y509075D01*
X133269Y507847D01*
X135537Y505579D01*
X136765Y502614D01*
X136765Y499406D01*
X135537Y496441D01*
X133269Y494173D01*
X130304Y492945D01*
X127096Y492945D01*
X125772Y493493D01*
X125658Y493520D01*
X125545Y493548D01*
X125538Y493548D01*
X125532Y493549D01*
X125416Y493538D01*
X125299Y493529D01*
X125294Y493527D01*
X125287Y493526D01*
X125180Y493478D01*
X125073Y493433D01*
X125067Y493428D01*
X125063Y493426D01*
X125049Y493414D01*
X124942Y493328D01*
X115498Y483884D01*
X115445Y483810D01*
X115385Y483740D01*
X115373Y483710D01*
X115354Y483684D01*
X115327Y483597D01*
X115293Y483512D01*
X115289Y483471D01*
X115282Y483449D01*
X115283Y483417D01*
X115275Y483345D01*
X115275Y231465D01*
X115289Y231375D01*
X115297Y231284D01*
X115309Y231254D01*
X115314Y231222D01*
X115357Y231141D01*
X115393Y231057D01*
X115419Y231025D01*
X115430Y231005D01*
X115453Y230982D01*
X115498Y230926D01*
X155275Y191149D01*
X155275Y163965D01*
X155289Y163875D01*
X155297Y163784D01*
X155309Y163754D01*
X155314Y163722D01*
X155357Y163641D01*
X155393Y163557D01*
X155419Y163525D01*
X155430Y163505D01*
X155453Y163482D01*
X155498Y163426D01*
X163426Y155498D01*
X163500Y155445D01*
X163570Y155385D01*
X163600Y155373D01*
X163626Y155354D01*
X163713Y155327D01*
X163798Y155293D01*
X163839Y155289D01*
X163861Y155282D01*
X163893Y155283D01*
X163965Y155275D01*
X202242Y155275D01*
X202305Y155285D01*
X202369Y155285D01*
X202426Y155305D01*
X202485Y155314D01*
X202541Y155344D01*
X202602Y155365D01*
X202649Y155402D01*
X202702Y155430D01*
X202746Y155476D01*
X202797Y155515D01*
X202830Y155564D01*
X202872Y155608D01*
X202899Y155666D01*
X202934Y155719D01*
X202950Y155777D01*
X202975Y155831D01*
X202982Y155894D01*
X202999Y155956D01*
X202996Y156016D01*
X203002Y156075D01*
X202989Y156138D01*
X202985Y156202D01*
X202963Y156257D01*
X202950Y156316D01*
X202917Y156371D01*
X202894Y156430D01*
X202855Y156475D01*
X202824Y156527D01*
X202775Y156568D01*
X202734Y156617D01*
X202683Y156648D01*
X202637Y156687D01*
X202578Y156711D01*
X202523Y156744D01*
X202440Y156766D01*
X202409Y156779D01*
X202385Y156781D01*
X202361Y156788D01*
X201304Y156955D01*
X199517Y157536D01*
X197843Y158389D01*
X196322Y159494D01*
X194994Y160822D01*
X193889Y162343D01*
X193036Y164017D01*
X192455Y165804D01*
X192254Y167077D01*
X203338Y167077D01*
X203358Y167080D01*
X203377Y167078D01*
X203479Y167100D01*
X203581Y167117D01*
X203598Y167126D01*
X203618Y167130D01*
X203707Y167183D01*
X203798Y167232D01*
X203812Y167246D01*
X203829Y167256D01*
X203896Y167335D01*
X203967Y167410D01*
X203976Y167428D01*
X203989Y167443D01*
X204027Y167539D01*
X204071Y167633D01*
X204073Y167653D01*
X204081Y167671D01*
X204099Y167838D01*
X204099Y168601D01*
X204101Y168601D01*
X204101Y167838D01*
X204104Y167818D01*
X204102Y167799D01*
X204124Y167697D01*
X204141Y167595D01*
X204150Y167578D01*
X204154Y167558D01*
X204207Y167469D01*
X204256Y167378D01*
X204270Y167364D01*
X204280Y167347D01*
X204359Y167280D01*
X204434Y167209D01*
X204452Y167200D01*
X204467Y167187D01*
X204563Y167148D01*
X204657Y167105D01*
X204677Y167103D01*
X204695Y167095D01*
X204862Y167077D01*
X215946Y167077D01*
X215745Y165804D01*
X215164Y164017D01*
X214311Y162343D01*
X213206Y160822D01*
X211878Y159494D01*
X210357Y158389D01*
X208683Y157536D01*
X206896Y156955D01*
X205839Y156788D01*
X205778Y156768D01*
X205715Y156757D01*
X205662Y156729D01*
X205605Y156711D01*
X205554Y156672D01*
X205498Y156642D01*
X205456Y156599D01*
X205409Y156563D01*
X205372Y156510D01*
X205328Y156464D01*
X205303Y156410D01*
X205269Y156360D01*
X205252Y156299D01*
X205225Y156241D01*
X205218Y156181D01*
X205202Y156124D01*
X205205Y156060D01*
X205198Y155997D01*
X205210Y155938D01*
X205213Y155878D01*
X205236Y155819D01*
X205250Y155756D01*
X205281Y155705D01*
X205302Y155649D01*
X205343Y155600D01*
X205376Y155545D01*
X205422Y155506D01*
X205460Y155460D01*
X205514Y155427D01*
X205563Y155385D01*
X205619Y155363D01*
X205670Y155331D01*
X205732Y155317D01*
X205791Y155293D01*
X205877Y155284D01*
X205909Y155276D01*
X205934Y155277D01*
X205958Y155275D01*
X218535Y155275D01*
X218625Y155289D01*
X218716Y155297D01*
X218746Y155309D01*
X218778Y155314D01*
X218859Y155357D01*
X218943Y155393D01*
X218975Y155419D01*
X218995Y155430D01*
X219018Y155453D01*
X219074Y155498D01*
X222002Y158426D01*
X222055Y158500D01*
X222115Y158570D01*
X222127Y158600D01*
X222146Y158626D01*
X222173Y158713D01*
X222207Y158798D01*
X222211Y158839D01*
X222218Y158861D01*
X222217Y158893D01*
X222225Y158965D01*
X222225Y181035D01*
X222211Y181125D01*
X222203Y181216D01*
X222191Y181246D01*
X222186Y181278D01*
X222143Y181359D01*
X222107Y181443D01*
X222081Y181475D01*
X222070Y181495D01*
X222047Y181518D01*
X222002Y181574D01*
X214869Y188707D01*
X214832Y188733D01*
X214801Y188767D01*
X214733Y188805D01*
X214670Y188850D01*
X214626Y188864D01*
X214586Y188886D01*
X214509Y188900D01*
X214435Y188922D01*
X214389Y188921D01*
X214343Y188929D01*
X214266Y188918D01*
X214189Y188916D01*
X214146Y188900D01*
X214100Y188894D01*
X214031Y188858D01*
X213958Y188832D01*
X213922Y188803D01*
X213881Y188782D01*
X213826Y188727D01*
X213766Y188678D01*
X213741Y188639D01*
X213709Y188607D01*
X213643Y188487D01*
X213633Y188471D01*
X213631Y188466D01*
X213628Y188460D01*
X213360Y187813D01*
X210287Y184740D01*
X206273Y183077D01*
X201927Y183077D01*
X197913Y184740D01*
X194840Y187813D01*
X193177Y191827D01*
X193177Y196173D01*
X194840Y200187D01*
X197913Y203260D01*
X201927Y204923D01*
X206273Y204923D01*
X210287Y203260D01*
X213360Y200187D01*
X214803Y196703D01*
X214838Y196647D01*
X214863Y196587D01*
X214915Y196522D01*
X214933Y196494D01*
X214948Y196481D01*
X214968Y196456D01*
X227775Y183649D01*
X227775Y156351D01*
X221149Y149725D01*
X161351Y149725D01*
G37*
%LPD*%
%LPC*%
G36*
X176527Y157677D02*
X176527Y157677D01*
X172513Y159340D01*
X169440Y162413D01*
X167777Y166427D01*
X167777Y167983D01*
X167763Y168073D01*
X167755Y168164D01*
X167743Y168194D01*
X167738Y168226D01*
X167695Y168307D01*
X167659Y168391D01*
X167633Y168423D01*
X167622Y168443D01*
X167599Y168466D01*
X167554Y168522D01*
X157225Y178851D01*
X157225Y201035D01*
X157211Y201125D01*
X157203Y201216D01*
X157191Y201246D01*
X157186Y201278D01*
X157143Y201359D01*
X157107Y201443D01*
X157081Y201475D01*
X157070Y201495D01*
X157047Y201518D01*
X157002Y201574D01*
X137225Y221351D01*
X137225Y296149D01*
X162002Y320926D01*
X162055Y321000D01*
X162115Y321070D01*
X162127Y321100D01*
X162146Y321126D01*
X162173Y321213D01*
X162207Y321298D01*
X162211Y321339D01*
X162218Y321361D01*
X162217Y321393D01*
X162225Y321465D01*
X162225Y442415D01*
X162211Y442505D01*
X162203Y442596D01*
X162191Y442626D01*
X162186Y442658D01*
X162143Y442739D01*
X162107Y442823D01*
X162081Y442855D01*
X162070Y442875D01*
X162047Y442898D01*
X162002Y442954D01*
X132458Y472498D01*
X132363Y472566D01*
X132269Y472636D01*
X132263Y472638D01*
X132258Y472642D01*
X132147Y472676D01*
X132035Y472712D01*
X132029Y472712D01*
X132023Y472714D01*
X131906Y472711D01*
X131789Y472710D01*
X131782Y472708D01*
X131777Y472708D01*
X131760Y472701D01*
X131628Y472663D01*
X130304Y472115D01*
X127096Y472115D01*
X124131Y473343D01*
X121863Y475611D01*
X120635Y478576D01*
X120635Y481784D01*
X121863Y484749D01*
X124131Y487017D01*
X127096Y488245D01*
X130304Y488245D01*
X133269Y487017D01*
X135537Y484749D01*
X136765Y481784D01*
X136765Y478576D01*
X136217Y477252D01*
X136190Y477138D01*
X136162Y477025D01*
X136162Y477018D01*
X136161Y477012D01*
X136172Y476896D01*
X136181Y476779D01*
X136183Y476774D01*
X136184Y476767D01*
X136232Y476660D01*
X136277Y476553D01*
X136282Y476547D01*
X136284Y476543D01*
X136296Y476529D01*
X136382Y476422D01*
X165926Y446878D01*
X167775Y445029D01*
X167775Y318851D01*
X142998Y294074D01*
X142945Y294000D01*
X142885Y293930D01*
X142873Y293900D01*
X142854Y293874D01*
X142827Y293787D01*
X142793Y293702D01*
X142789Y293661D01*
X142782Y293639D01*
X142783Y293607D01*
X142775Y293535D01*
X142775Y223965D01*
X142789Y223875D01*
X142797Y223784D01*
X142809Y223754D01*
X142814Y223722D01*
X142857Y223641D01*
X142893Y223557D01*
X142919Y223525D01*
X142930Y223505D01*
X142953Y223482D01*
X142998Y223426D01*
X162775Y203649D01*
X162775Y181465D01*
X162789Y181375D01*
X162797Y181284D01*
X162809Y181254D01*
X162814Y181222D01*
X162857Y181141D01*
X162893Y181057D01*
X162919Y181025D01*
X162930Y181005D01*
X162953Y180982D01*
X162974Y180956D01*
X162977Y180951D01*
X162980Y180948D01*
X162998Y180926D01*
X168750Y175174D01*
X168766Y175162D01*
X168779Y175147D01*
X168866Y175091D01*
X168950Y175030D01*
X168969Y175024D01*
X168986Y175014D01*
X169086Y174988D01*
X169185Y174958D01*
X169205Y174958D01*
X169224Y174954D01*
X169327Y174962D01*
X169431Y174964D01*
X169450Y174971D01*
X169470Y174973D01*
X169564Y175013D01*
X169662Y175049D01*
X169678Y175061D01*
X169696Y175069D01*
X169827Y175174D01*
X172513Y177860D01*
X176527Y179523D01*
X180873Y179523D01*
X184887Y177860D01*
X187960Y174787D01*
X189623Y170773D01*
X189623Y166427D01*
X187960Y162413D01*
X184887Y159340D01*
X180873Y157677D01*
X176527Y157677D01*
G37*
%LPD*%
%LPC*%
G36*
X589358Y916339D02*
X589358Y916339D01*
X582323Y918224D01*
X576016Y921866D01*
X570866Y927016D01*
X567224Y933323D01*
X565339Y940358D01*
X565339Y947642D01*
X567224Y954677D01*
X570866Y960984D01*
X576016Y966134D01*
X582323Y969776D01*
X589358Y971661D01*
X596642Y971661D01*
X603677Y969776D01*
X609984Y966134D01*
X615134Y960984D01*
X618776Y954677D01*
X620661Y947642D01*
X620661Y940358D01*
X618776Y933323D01*
X615134Y927016D01*
X609984Y921866D01*
X603677Y918224D01*
X596642Y916339D01*
X589358Y916339D01*
G37*
%LPD*%
%LPC*%
G36*
X586358Y12339D02*
X586358Y12339D01*
X579323Y14224D01*
X573016Y17866D01*
X567866Y23016D01*
X564224Y29323D01*
X562339Y36358D01*
X562339Y43642D01*
X564224Y50677D01*
X567866Y56984D01*
X573016Y62134D01*
X579323Y65776D01*
X586358Y67661D01*
X593642Y67661D01*
X600677Y65776D01*
X606984Y62134D01*
X612134Y56984D01*
X615776Y50677D01*
X617661Y43642D01*
X617661Y36358D01*
X615776Y29323D01*
X612134Y23016D01*
X606984Y17866D01*
X600677Y14224D01*
X593642Y12339D01*
X586358Y12339D01*
G37*
%LPD*%
%LPC*%
G36*
X36358Y12339D02*
X36358Y12339D01*
X29323Y14224D01*
X23016Y17866D01*
X17866Y23016D01*
X14224Y29323D01*
X12339Y36358D01*
X12339Y43642D01*
X14224Y50677D01*
X17866Y56984D01*
X23016Y62134D01*
X29323Y65776D01*
X36358Y67661D01*
X43642Y67661D01*
X50677Y65776D01*
X56984Y62134D01*
X62134Y56984D01*
X65776Y50677D01*
X67661Y43642D01*
X67661Y36358D01*
X65776Y29323D01*
X62134Y23016D01*
X56984Y17866D01*
X50677Y14224D01*
X43642Y12339D01*
X36358Y12339D01*
G37*
%LPD*%
%LPC*%
G36*
X248795Y781443D02*
X248795Y781443D01*
X246569Y782365D01*
X244865Y784069D01*
X243943Y786295D01*
X243943Y788705D01*
X244865Y790931D01*
X246569Y792635D01*
X248795Y793557D01*
X251205Y793557D01*
X253431Y792635D01*
X255135Y790931D01*
X255212Y790745D01*
X255273Y790645D01*
X255333Y790545D01*
X255338Y790541D01*
X255341Y790536D01*
X255431Y790461D01*
X255520Y790385D01*
X255526Y790383D01*
X255531Y790379D01*
X255640Y790337D01*
X255748Y790293D01*
X255756Y790292D01*
X255760Y790291D01*
X255779Y790290D01*
X255915Y790275D01*
X366035Y790275D01*
X366125Y790289D01*
X366216Y790297D01*
X366246Y790309D01*
X366278Y790314D01*
X366359Y790357D01*
X366443Y790393D01*
X366475Y790419D01*
X366495Y790430D01*
X366518Y790453D01*
X366574Y790498D01*
X387002Y810926D01*
X387055Y811000D01*
X387115Y811070D01*
X387127Y811100D01*
X387146Y811126D01*
X387173Y811213D01*
X387207Y811298D01*
X387211Y811339D01*
X387218Y811361D01*
X387217Y811393D01*
X387225Y811465D01*
X387225Y811515D01*
X387212Y811595D01*
X387212Y811607D01*
X387209Y811615D01*
X387206Y811630D01*
X387189Y811746D01*
X387187Y811752D01*
X387186Y811758D01*
X387131Y811860D01*
X387078Y811965D01*
X387073Y811970D01*
X387070Y811975D01*
X386986Y812055D01*
X386902Y812137D01*
X386896Y812141D01*
X386892Y812145D01*
X386875Y812152D01*
X386755Y812218D01*
X384689Y813074D01*
X383338Y814425D01*
X383322Y814437D01*
X383310Y814452D01*
X383222Y814508D01*
X383139Y814569D01*
X383120Y814575D01*
X383103Y814585D01*
X383002Y814611D01*
X382903Y814641D01*
X382884Y814641D01*
X382864Y814645D01*
X382761Y814637D01*
X382658Y814635D01*
X382639Y814628D01*
X382619Y814626D01*
X382524Y814586D01*
X382427Y814550D01*
X382411Y814538D01*
X382393Y814530D01*
X382262Y814425D01*
X380911Y813074D01*
X378016Y811875D01*
X374884Y811875D01*
X371989Y813074D01*
X369774Y815289D01*
X368575Y818184D01*
X368575Y834016D01*
X369774Y836911D01*
X371989Y839126D01*
X374884Y840325D01*
X378016Y840325D01*
X380911Y839126D01*
X382262Y837775D01*
X382278Y837763D01*
X382290Y837748D01*
X382378Y837691D01*
X382461Y837631D01*
X382480Y837625D01*
X382497Y837615D01*
X382598Y837589D01*
X382697Y837559D01*
X382716Y837559D01*
X382736Y837555D01*
X382839Y837563D01*
X382942Y837565D01*
X382961Y837572D01*
X382981Y837574D01*
X383076Y837614D01*
X383173Y837650D01*
X383189Y837662D01*
X383207Y837670D01*
X383338Y837775D01*
X384689Y839126D01*
X387584Y840325D01*
X390716Y840325D01*
X393611Y839126D01*
X394962Y837775D01*
X394978Y837763D01*
X394990Y837748D01*
X395078Y837692D01*
X395161Y837631D01*
X395180Y837625D01*
X395197Y837615D01*
X395298Y837589D01*
X395397Y837559D01*
X395416Y837559D01*
X395436Y837555D01*
X395539Y837563D01*
X395642Y837565D01*
X395661Y837572D01*
X395681Y837574D01*
X395776Y837614D01*
X395873Y837650D01*
X395889Y837662D01*
X395907Y837670D01*
X396038Y837775D01*
X397389Y839126D01*
X400284Y840325D01*
X403416Y840325D01*
X406311Y839126D01*
X407662Y837775D01*
X407678Y837763D01*
X407690Y837748D01*
X407778Y837692D01*
X407861Y837631D01*
X407880Y837625D01*
X407897Y837615D01*
X407998Y837589D01*
X408097Y837559D01*
X408116Y837559D01*
X408136Y837555D01*
X408239Y837563D01*
X408342Y837565D01*
X408361Y837572D01*
X408381Y837574D01*
X408476Y837614D01*
X408573Y837650D01*
X408589Y837662D01*
X408607Y837670D01*
X408738Y837775D01*
X410089Y839126D01*
X412984Y840325D01*
X416116Y840325D01*
X419011Y839126D01*
X421226Y836911D01*
X422425Y834016D01*
X422425Y818184D01*
X421226Y815289D01*
X419011Y813074D01*
X416116Y811875D01*
X412984Y811875D01*
X410089Y813074D01*
X408738Y814425D01*
X408722Y814437D01*
X408710Y814452D01*
X408622Y814508D01*
X408539Y814569D01*
X408520Y814575D01*
X408503Y814585D01*
X408402Y814611D01*
X408303Y814641D01*
X408284Y814641D01*
X408264Y814645D01*
X408161Y814637D01*
X408058Y814635D01*
X408039Y814628D01*
X408019Y814626D01*
X407924Y814586D01*
X407827Y814550D01*
X407811Y814538D01*
X407793Y814530D01*
X407662Y814425D01*
X406311Y813074D01*
X403416Y811875D01*
X400284Y811875D01*
X397389Y813074D01*
X396038Y814425D01*
X396022Y814437D01*
X396010Y814452D01*
X395922Y814508D01*
X395839Y814569D01*
X395820Y814575D01*
X395803Y814585D01*
X395702Y814611D01*
X395603Y814641D01*
X395584Y814641D01*
X395564Y814645D01*
X395461Y814637D01*
X395358Y814635D01*
X395339Y814628D01*
X395319Y814626D01*
X395224Y814586D01*
X395127Y814550D01*
X395111Y814538D01*
X395093Y814530D01*
X394962Y814425D01*
X393611Y813074D01*
X393245Y812923D01*
X393146Y812861D01*
X393045Y812801D01*
X393041Y812796D01*
X393036Y812793D01*
X392962Y812703D01*
X392885Y812614D01*
X392883Y812608D01*
X392879Y812603D01*
X392837Y812496D01*
X392793Y812386D01*
X392792Y812378D01*
X392791Y812374D01*
X392790Y812356D01*
X392775Y812219D01*
X392775Y808851D01*
X368649Y784725D01*
X255915Y784725D01*
X255801Y784707D01*
X255684Y784689D01*
X255678Y784687D01*
X255672Y784686D01*
X255569Y784631D01*
X255465Y784578D01*
X255461Y784573D01*
X255455Y784570D01*
X255374Y784485D01*
X255293Y784402D01*
X255289Y784396D01*
X255286Y784392D01*
X255278Y784375D01*
X255212Y784255D01*
X255135Y784069D01*
X253431Y782365D01*
X251205Y781443D01*
X248795Y781443D01*
G37*
%LPD*%
%LPC*%
G36*
X254795Y269943D02*
X254795Y269943D01*
X252569Y270865D01*
X250865Y272569D01*
X249943Y274795D01*
X249943Y277205D01*
X250865Y279431D01*
X252569Y281135D01*
X254795Y282057D01*
X257205Y282057D01*
X259293Y281192D01*
X259407Y281165D01*
X259520Y281136D01*
X259527Y281137D01*
X259533Y281136D01*
X259649Y281147D01*
X259766Y281156D01*
X259771Y281158D01*
X259778Y281159D01*
X259885Y281206D01*
X259992Y281252D01*
X259998Y281257D01*
X260002Y281259D01*
X260016Y281271D01*
X260123Y281357D01*
X313053Y334287D01*
X336738Y334287D01*
X336828Y334301D01*
X336919Y334309D01*
X336948Y334321D01*
X336980Y334326D01*
X337061Y334369D01*
X337145Y334405D01*
X337177Y334431D01*
X337198Y334442D01*
X337220Y334465D01*
X337276Y334510D01*
X361490Y358724D01*
X361543Y358798D01*
X361603Y358868D01*
X361615Y358898D01*
X361634Y358924D01*
X361661Y359011D01*
X361695Y359096D01*
X361699Y359137D01*
X361706Y359159D01*
X361705Y359191D01*
X361713Y359263D01*
X361713Y575647D01*
X362721Y576655D01*
X362789Y576750D01*
X362859Y576843D01*
X362861Y576849D01*
X362864Y576854D01*
X362899Y576966D01*
X362935Y577077D01*
X362935Y577083D01*
X362937Y577089D01*
X362934Y577206D01*
X362932Y577323D01*
X362930Y577330D01*
X362930Y577335D01*
X362924Y577353D01*
X362886Y577484D01*
X362135Y579296D01*
X362135Y582504D01*
X363363Y585468D01*
X365632Y587737D01*
X368596Y588965D01*
X371804Y588965D01*
X374768Y587737D01*
X377037Y585468D01*
X378265Y582504D01*
X378265Y579296D01*
X377037Y576332D01*
X374768Y574063D01*
X371804Y572835D01*
X368596Y572835D01*
X367339Y573356D01*
X367295Y573366D01*
X367253Y573386D01*
X367176Y573394D01*
X367100Y573412D01*
X367054Y573408D01*
X367009Y573413D01*
X366932Y573396D01*
X366855Y573389D01*
X366813Y573370D01*
X366768Y573360D01*
X366701Y573320D01*
X366630Y573289D01*
X366596Y573258D01*
X366557Y573234D01*
X366506Y573175D01*
X366449Y573122D01*
X366427Y573082D01*
X366397Y573047D01*
X366368Y572975D01*
X366331Y572907D01*
X366322Y572862D01*
X366305Y572819D01*
X366290Y572683D01*
X366287Y572665D01*
X366288Y572660D01*
X366287Y572652D01*
X366287Y357053D01*
X340510Y331276D01*
X338947Y329713D01*
X315263Y329713D01*
X315172Y329699D01*
X315082Y329691D01*
X315052Y329679D01*
X315020Y329674D01*
X314939Y329631D01*
X314855Y329595D01*
X314823Y329569D01*
X314802Y329558D01*
X314780Y329535D01*
X314724Y329490D01*
X262280Y277046D01*
X262227Y276972D01*
X262167Y276902D01*
X262155Y276872D01*
X262136Y276846D01*
X262109Y276759D01*
X262075Y276674D01*
X262071Y276633D01*
X262064Y276611D01*
X262065Y276579D01*
X262057Y276507D01*
X262057Y274795D01*
X261135Y272569D01*
X259431Y270865D01*
X257205Y269943D01*
X254795Y269943D01*
G37*
%LPD*%
%LPC*%
G36*
X513827Y791577D02*
X513827Y791577D01*
X509813Y793240D01*
X506740Y796313D01*
X505077Y800327D01*
X505077Y804673D01*
X506740Y808687D01*
X509813Y811760D01*
X513827Y813423D01*
X516380Y813423D01*
X516470Y813437D01*
X516561Y813445D01*
X516591Y813457D01*
X516623Y813462D01*
X516704Y813505D01*
X516787Y813541D01*
X516820Y813567D01*
X516840Y813578D01*
X516862Y813601D01*
X516918Y813646D01*
X531404Y828131D01*
X533802Y829125D01*
X582957Y829125D01*
X583047Y829139D01*
X583138Y829147D01*
X583168Y829159D01*
X583200Y829164D01*
X583280Y829207D01*
X583364Y829243D01*
X583396Y829269D01*
X583417Y829280D01*
X583439Y829303D01*
X583495Y829348D01*
X584500Y830353D01*
X587861Y831745D01*
X606739Y831745D01*
X610100Y830353D01*
X612673Y827780D01*
X614065Y824419D01*
X614065Y820781D01*
X612673Y817420D01*
X610100Y814847D01*
X606739Y813455D01*
X587861Y813455D01*
X584500Y814847D01*
X583495Y815852D01*
X583421Y815905D01*
X583352Y815965D01*
X583322Y815977D01*
X583295Y815996D01*
X583208Y816023D01*
X583124Y816057D01*
X583083Y816061D01*
X583060Y816068D01*
X583028Y816067D01*
X582957Y816075D01*
X538118Y816075D01*
X538028Y816061D01*
X537937Y816053D01*
X537907Y816041D01*
X537875Y816036D01*
X537795Y815993D01*
X537711Y815957D01*
X537679Y815931D01*
X537658Y815920D01*
X537636Y815897D01*
X537580Y815852D01*
X527129Y805402D01*
X527081Y805335D01*
X527080Y805334D01*
X527080Y805333D01*
X527061Y805308D01*
X526991Y805213D01*
X526989Y805207D01*
X526986Y805202D01*
X526951Y805091D01*
X526915Y804979D01*
X526915Y804973D01*
X526913Y804967D01*
X526916Y804849D01*
X526918Y804733D01*
X526920Y804726D01*
X526920Y804721D01*
X526923Y804713D01*
X526923Y800327D01*
X525260Y796313D01*
X522187Y793240D01*
X518173Y791577D01*
X513827Y791577D01*
G37*
%LPD*%
%LPC*%
G36*
X322795Y157943D02*
X322795Y157943D01*
X320569Y158865D01*
X318865Y160569D01*
X317943Y162795D01*
X317943Y165205D01*
X318865Y167431D01*
X320569Y169135D01*
X322795Y170057D01*
X325205Y170057D01*
X327431Y169135D01*
X329135Y167431D01*
X329414Y166757D01*
X329476Y166657D01*
X329535Y166557D01*
X329540Y166553D01*
X329543Y166548D01*
X329633Y166473D01*
X329722Y166397D01*
X329728Y166395D01*
X329733Y166391D01*
X329842Y166349D01*
X329950Y166305D01*
X329958Y166304D01*
X329963Y166303D01*
X329981Y166302D01*
X330117Y166287D01*
X340737Y166287D01*
X340828Y166301D01*
X340918Y166309D01*
X340948Y166321D01*
X340980Y166326D01*
X341061Y166369D01*
X341145Y166405D01*
X341177Y166431D01*
X341198Y166442D01*
X341220Y166465D01*
X341276Y166510D01*
X357053Y182287D01*
X394737Y182287D01*
X394828Y182301D01*
X394918Y182309D01*
X394948Y182321D01*
X394980Y182326D01*
X395061Y182369D01*
X395145Y182405D01*
X395177Y182431D01*
X395198Y182442D01*
X395220Y182465D01*
X395276Y182510D01*
X403490Y190724D01*
X403543Y190798D01*
X403603Y190868D01*
X403615Y190898D01*
X403634Y190924D01*
X403661Y191011D01*
X403695Y191096D01*
X403699Y191137D01*
X403706Y191159D01*
X403705Y191191D01*
X403713Y191263D01*
X403713Y222737D01*
X403699Y222828D01*
X403691Y222918D01*
X403679Y222948D01*
X403674Y222980D01*
X403631Y223061D01*
X403595Y223145D01*
X403569Y223177D01*
X403558Y223198D01*
X403535Y223220D01*
X403490Y223276D01*
X400395Y226371D01*
X400379Y226383D01*
X400366Y226398D01*
X400279Y226454D01*
X400195Y226515D01*
X400176Y226521D01*
X400159Y226531D01*
X400059Y226557D01*
X399960Y226587D01*
X399940Y226587D01*
X399921Y226591D01*
X399818Y226583D01*
X399714Y226581D01*
X399695Y226574D01*
X399676Y226572D01*
X399581Y226532D01*
X399483Y226496D01*
X399468Y226484D01*
X399449Y226476D01*
X399318Y226371D01*
X397787Y224840D01*
X393773Y223177D01*
X389427Y223177D01*
X385413Y224840D01*
X382340Y227913D01*
X380677Y231927D01*
X380677Y236273D01*
X382340Y240287D01*
X385413Y243360D01*
X389427Y245023D01*
X393773Y245023D01*
X397787Y243360D01*
X400860Y240287D01*
X402079Y237345D01*
X402140Y237245D01*
X402200Y237145D01*
X402205Y237141D01*
X402208Y237136D01*
X402298Y237061D01*
X402387Y236985D01*
X402393Y236983D01*
X402398Y236979D01*
X402506Y236937D01*
X402615Y236893D01*
X402623Y236892D01*
X402627Y236891D01*
X402646Y236890D01*
X402782Y236875D01*
X425784Y236875D01*
X425898Y236894D01*
X426015Y236911D01*
X426020Y236913D01*
X426026Y236914D01*
X426129Y236969D01*
X426234Y237022D01*
X426238Y237027D01*
X426244Y237030D01*
X426324Y237114D01*
X426406Y237198D01*
X426410Y237204D01*
X426413Y237208D01*
X426421Y237225D01*
X426487Y237345D01*
X426609Y237640D01*
X429360Y240391D01*
X432955Y241880D01*
X436845Y241880D01*
X440440Y240391D01*
X443191Y237640D01*
X444680Y234045D01*
X444680Y230155D01*
X443191Y226560D01*
X440440Y223809D01*
X436845Y222320D01*
X432955Y222320D01*
X429360Y223809D01*
X426609Y226560D01*
X425120Y230155D01*
X425120Y230564D01*
X425117Y230584D01*
X425119Y230603D01*
X425097Y230705D01*
X425081Y230807D01*
X425071Y230824D01*
X425067Y230844D01*
X425014Y230933D01*
X424965Y231024D01*
X424951Y231038D01*
X424941Y231055D01*
X424862Y231122D01*
X424787Y231194D01*
X424769Y231202D01*
X424754Y231215D01*
X424658Y231254D01*
X424564Y231297D01*
X424544Y231299D01*
X424526Y231307D01*
X424359Y231325D01*
X403746Y231325D01*
X403676Y231314D01*
X403604Y231312D01*
X403555Y231294D01*
X403504Y231286D01*
X403440Y231252D01*
X403373Y231227D01*
X403332Y231195D01*
X403286Y231170D01*
X403237Y231118D01*
X403181Y231074D01*
X403153Y231030D01*
X403117Y230992D01*
X403087Y230927D01*
X403048Y230867D01*
X403035Y230816D01*
X403013Y230769D01*
X403005Y230698D01*
X402988Y230628D01*
X402992Y230576D01*
X402986Y230525D01*
X403001Y230454D01*
X403007Y230383D01*
X403027Y230335D01*
X403038Y230284D01*
X403075Y230223D01*
X403103Y230157D01*
X403148Y230101D01*
X403165Y230073D01*
X403182Y230058D01*
X403208Y230026D01*
X408287Y224947D01*
X408287Y189053D01*
X396947Y177713D01*
X359263Y177713D01*
X359172Y177699D01*
X359082Y177691D01*
X359052Y177679D01*
X359020Y177674D01*
X358939Y177631D01*
X358855Y177595D01*
X358823Y177569D01*
X358802Y177558D01*
X358780Y177535D01*
X358724Y177490D01*
X346510Y165276D01*
X346457Y165202D01*
X346397Y165132D01*
X346385Y165102D01*
X346366Y165076D01*
X346339Y164989D01*
X346305Y164904D01*
X346301Y164863D01*
X346294Y164841D01*
X346295Y164809D01*
X346287Y164737D01*
X346287Y163053D01*
X344947Y161713D01*
X330117Y161713D01*
X330003Y161694D01*
X329886Y161677D01*
X329881Y161675D01*
X329874Y161674D01*
X329772Y161619D01*
X329667Y161566D01*
X329663Y161561D01*
X329657Y161558D01*
X329577Y161474D01*
X329495Y161390D01*
X329491Y161384D01*
X329488Y161380D01*
X329480Y161363D01*
X329414Y161243D01*
X329135Y160569D01*
X327431Y158865D01*
X325205Y157943D01*
X322795Y157943D01*
G37*
%LPD*%
%LPC*%
G36*
X320795Y351943D02*
X320795Y351943D01*
X318569Y352865D01*
X316865Y354569D01*
X315943Y356795D01*
X315943Y359205D01*
X316865Y361431D01*
X318569Y363135D01*
X318755Y363212D01*
X318855Y363273D01*
X318955Y363333D01*
X318959Y363338D01*
X318964Y363341D01*
X319039Y363431D01*
X319115Y363520D01*
X319117Y363526D01*
X319121Y363531D01*
X319163Y363640D01*
X319207Y363748D01*
X319208Y363756D01*
X319209Y363760D01*
X319210Y363779D01*
X319225Y363915D01*
X319225Y380535D01*
X319211Y380625D01*
X319203Y380716D01*
X319191Y380746D01*
X319186Y380778D01*
X319143Y380859D01*
X319107Y380943D01*
X319081Y380975D01*
X319070Y380995D01*
X319047Y381018D01*
X319002Y381074D01*
X315225Y384851D01*
X315225Y573391D01*
X315207Y573506D01*
X315189Y573622D01*
X315187Y573628D01*
X315186Y573634D01*
X315131Y573737D01*
X315078Y573842D01*
X315073Y573846D01*
X315070Y573852D01*
X314986Y573932D01*
X314902Y574014D01*
X314896Y574017D01*
X314892Y574021D01*
X314875Y574029D01*
X314855Y574040D01*
X312563Y576332D01*
X311335Y579296D01*
X311335Y582504D01*
X312563Y585468D01*
X314832Y587737D01*
X317796Y588965D01*
X321004Y588965D01*
X323968Y587737D01*
X326237Y585468D01*
X327465Y582504D01*
X327465Y579296D01*
X326237Y576332D01*
X323968Y574063D01*
X321245Y572935D01*
X321145Y572873D01*
X321045Y572813D01*
X321041Y572809D01*
X321036Y572805D01*
X320961Y572716D01*
X320885Y572626D01*
X320883Y572621D01*
X320879Y572616D01*
X320837Y572508D01*
X320793Y572398D01*
X320792Y572391D01*
X320791Y572386D01*
X320790Y572368D01*
X320775Y572232D01*
X320775Y387465D01*
X320789Y387375D01*
X320797Y387284D01*
X320809Y387254D01*
X320814Y387222D01*
X320857Y387141D01*
X320893Y387057D01*
X320919Y387025D01*
X320930Y387005D01*
X320953Y386982D01*
X320998Y386926D01*
X324775Y383149D01*
X324775Y363915D01*
X324793Y363801D01*
X324811Y363684D01*
X324813Y363678D01*
X324814Y363672D01*
X324869Y363569D01*
X324922Y363465D01*
X324927Y363461D01*
X324930Y363455D01*
X325015Y363374D01*
X325098Y363293D01*
X325104Y363289D01*
X325108Y363286D01*
X325125Y363278D01*
X325245Y363212D01*
X325431Y363135D01*
X327135Y361431D01*
X328057Y359205D01*
X328057Y356795D01*
X327135Y354569D01*
X325431Y352865D01*
X323205Y351943D01*
X320795Y351943D01*
G37*
%LPD*%
%LPC*%
G36*
X188611Y714249D02*
X188611Y714249D01*
X181609Y717150D01*
X176250Y722509D01*
X173349Y729511D01*
X173349Y737089D01*
X176250Y744091D01*
X181609Y749450D01*
X188611Y752351D01*
X196189Y752351D01*
X203191Y749450D01*
X208550Y744091D01*
X210644Y739038D01*
X210668Y738999D01*
X210684Y738955D01*
X210732Y738895D01*
X210773Y738829D01*
X210809Y738799D01*
X210837Y738763D01*
X210903Y738721D01*
X210963Y738672D01*
X211006Y738655D01*
X211044Y738630D01*
X211120Y738611D01*
X211192Y738584D01*
X211238Y738582D01*
X211283Y738570D01*
X211360Y738576D01*
X211438Y738573D01*
X211482Y738586D01*
X211528Y738589D01*
X211600Y738620D01*
X211674Y738642D01*
X211712Y738668D01*
X211754Y738686D01*
X211861Y738771D01*
X211877Y738782D01*
X211880Y738786D01*
X211885Y738791D01*
X213232Y740137D01*
X216196Y741365D01*
X219404Y741365D01*
X222368Y740137D01*
X224637Y737868D01*
X225865Y734904D01*
X225865Y731696D01*
X224637Y728732D01*
X222368Y726463D01*
X219404Y725235D01*
X216196Y725235D01*
X213232Y726463D01*
X211885Y727809D01*
X211848Y727836D01*
X211817Y727870D01*
X211771Y727895D01*
X211755Y727909D01*
X211736Y727917D01*
X211686Y727953D01*
X211642Y727966D01*
X211602Y727989D01*
X211525Y728002D01*
X211451Y728025D01*
X211405Y728024D01*
X211359Y728032D01*
X211282Y728021D01*
X211205Y728019D01*
X211162Y728003D01*
X211116Y727996D01*
X211047Y727961D01*
X210974Y727934D01*
X210938Y727906D01*
X210897Y727885D01*
X210842Y727829D01*
X210782Y727781D01*
X210757Y727742D01*
X210725Y727709D01*
X210659Y727590D01*
X210649Y727574D01*
X210647Y727569D01*
X210644Y727562D01*
X208550Y722509D01*
X203191Y717150D01*
X196189Y714249D01*
X188611Y714249D01*
G37*
%LPD*%
%LPC*%
G36*
X94396Y36535D02*
X94396Y36535D01*
X91431Y37763D01*
X89163Y40031D01*
X87935Y42996D01*
X87935Y46204D01*
X89163Y49169D01*
X91431Y51437D01*
X94396Y52665D01*
X94523Y52665D01*
X94613Y52680D01*
X94704Y52687D01*
X94733Y52700D01*
X94765Y52705D01*
X94846Y52748D01*
X94930Y52783D01*
X94962Y52809D01*
X94983Y52820D01*
X95005Y52843D01*
X95061Y52888D01*
X99252Y57080D01*
X99305Y57154D01*
X99365Y57223D01*
X99377Y57253D01*
X99396Y57279D01*
X99423Y57366D01*
X99457Y57451D01*
X99461Y57492D01*
X99468Y57514D01*
X99467Y57547D01*
X99475Y57618D01*
X99475Y96662D01*
X99461Y96752D01*
X99453Y96843D01*
X99441Y96873D01*
X99436Y96905D01*
X99393Y96986D01*
X99357Y97070D01*
X99331Y97102D01*
X99320Y97122D01*
X99297Y97145D01*
X99252Y97201D01*
X96740Y99713D01*
X95077Y103727D01*
X95077Y108073D01*
X96740Y112087D01*
X99813Y115160D01*
X103827Y116823D01*
X108173Y116823D01*
X112187Y115160D01*
X115260Y112087D01*
X116923Y108073D01*
X116923Y103727D01*
X115260Y99713D01*
X112748Y97201D01*
X112695Y97127D01*
X112635Y97057D01*
X112623Y97027D01*
X112604Y97001D01*
X112577Y96914D01*
X112543Y96829D01*
X112539Y96788D01*
X112532Y96766D01*
X112533Y96734D01*
X112525Y96662D01*
X112525Y53302D01*
X111531Y50904D01*
X104288Y43661D01*
X104235Y43587D01*
X104176Y43517D01*
X104163Y43487D01*
X104145Y43461D01*
X104118Y43374D01*
X104084Y43289D01*
X104079Y43248D01*
X104072Y43226D01*
X104073Y43194D01*
X104065Y43123D01*
X104065Y42996D01*
X102837Y40031D01*
X100569Y37763D01*
X97604Y36535D01*
X94396Y36535D01*
G37*
%LPD*%
%LPC*%
G36*
X310285Y206280D02*
X310285Y206280D01*
X303237Y209200D01*
X297842Y214595D01*
X294922Y221643D01*
X294922Y229273D01*
X297842Y236321D01*
X303237Y241716D01*
X310285Y244636D01*
X317915Y244636D01*
X324963Y241716D01*
X330358Y236321D01*
X333278Y229273D01*
X333278Y221643D01*
X330358Y214595D01*
X324963Y209200D01*
X317915Y206280D01*
X310285Y206280D01*
G37*
%LPD*%
%LPC*%
G36*
X310285Y116364D02*
X310285Y116364D01*
X303237Y119284D01*
X297842Y124679D01*
X294922Y131727D01*
X294922Y139357D01*
X297842Y146405D01*
X303237Y151800D01*
X310285Y154720D01*
X317915Y154720D01*
X324963Y151800D01*
X330358Y146405D01*
X333278Y139357D01*
X333278Y131727D01*
X330358Y124679D01*
X324963Y119284D01*
X317915Y116364D01*
X310285Y116364D01*
G37*
%LPD*%
%LPC*%
G36*
X102205Y119975D02*
X102205Y119975D01*
X98888Y121349D01*
X96349Y123888D01*
X94975Y127205D01*
X94975Y130795D01*
X96349Y134112D01*
X97252Y135015D01*
X97305Y135089D01*
X97365Y135159D01*
X97377Y135189D01*
X97396Y135215D01*
X97423Y135302D01*
X97457Y135387D01*
X97461Y135428D01*
X97468Y135450D01*
X97467Y135482D01*
X97475Y135554D01*
X97475Y174862D01*
X97461Y174952D01*
X97453Y175043D01*
X97441Y175073D01*
X97436Y175105D01*
X97393Y175186D01*
X97357Y175270D01*
X97331Y175302D01*
X97320Y175322D01*
X97297Y175345D01*
X97252Y175401D01*
X96740Y175913D01*
X95077Y179927D01*
X95077Y184273D01*
X96740Y188287D01*
X99813Y191360D01*
X103827Y193023D01*
X108173Y193023D01*
X112187Y191360D01*
X115260Y188287D01*
X116923Y184273D01*
X116923Y179927D01*
X115260Y175913D01*
X112187Y172840D01*
X110995Y172346D01*
X110895Y172284D01*
X110795Y172225D01*
X110791Y172220D01*
X110786Y172217D01*
X110711Y172126D01*
X110635Y172038D01*
X110633Y172032D01*
X110629Y172027D01*
X110587Y171919D01*
X110543Y171810D01*
X110542Y171802D01*
X110541Y171797D01*
X110540Y171779D01*
X110525Y171643D01*
X110525Y135554D01*
X110539Y135463D01*
X110547Y135373D01*
X110559Y135343D01*
X110564Y135311D01*
X110607Y135230D01*
X110643Y135146D01*
X110669Y135114D01*
X110680Y135093D01*
X110703Y135071D01*
X110748Y135015D01*
X111651Y134112D01*
X113025Y130795D01*
X113025Y127205D01*
X111651Y123888D01*
X109112Y121349D01*
X105795Y119975D01*
X102205Y119975D01*
G37*
%LPD*%
%LPC*%
G36*
X365546Y194914D02*
X365546Y194914D01*
X361695Y196509D01*
X358747Y199457D01*
X357152Y203308D01*
X357152Y207476D01*
X358747Y211327D01*
X361695Y214275D01*
X365546Y215870D01*
X387622Y215870D01*
X391473Y214275D01*
X394421Y211327D01*
X396016Y207476D01*
X396016Y203308D01*
X394421Y199457D01*
X391473Y196509D01*
X387622Y194914D01*
X365546Y194914D01*
G37*
%LPD*%
%LPC*%
G36*
X240578Y194914D02*
X240578Y194914D01*
X236727Y196509D01*
X233779Y199457D01*
X232184Y203308D01*
X232184Y207476D01*
X233779Y211327D01*
X236727Y214275D01*
X240578Y215870D01*
X262654Y215870D01*
X266505Y214275D01*
X269453Y211327D01*
X271048Y207476D01*
X271048Y203308D01*
X269453Y199457D01*
X266505Y196509D01*
X262654Y194914D01*
X240578Y194914D01*
G37*
%LPD*%
%LPC*%
G36*
X365546Y145130D02*
X365546Y145130D01*
X361695Y146725D01*
X358747Y149673D01*
X357152Y153524D01*
X357152Y157692D01*
X358747Y161543D01*
X361695Y164491D01*
X365546Y166086D01*
X387622Y166086D01*
X391473Y164491D01*
X394421Y161543D01*
X396016Y157692D01*
X396016Y153524D01*
X394421Y149673D01*
X391473Y146725D01*
X387622Y145130D01*
X365546Y145130D01*
G37*
%LPD*%
%LPC*%
G36*
X132538Y705885D02*
X132538Y705885D01*
X128710Y707471D01*
X125781Y710400D01*
X124195Y714228D01*
X124195Y718372D01*
X125781Y722200D01*
X128710Y725129D01*
X132538Y726715D01*
X154462Y726715D01*
X158290Y725129D01*
X161219Y722200D01*
X162805Y718372D01*
X162805Y714228D01*
X161219Y710400D01*
X158290Y707471D01*
X154462Y705885D01*
X132538Y705885D01*
G37*
%LPD*%
%LPC*%
G36*
X132538Y731285D02*
X132538Y731285D01*
X128710Y732871D01*
X125781Y735800D01*
X124195Y739628D01*
X124195Y743772D01*
X125781Y747600D01*
X128710Y750529D01*
X132538Y752115D01*
X154462Y752115D01*
X158290Y750529D01*
X161219Y747600D01*
X162805Y743772D01*
X162805Y739628D01*
X161219Y735800D01*
X158290Y732871D01*
X154462Y731285D01*
X132538Y731285D01*
G37*
%LPD*%
%LPC*%
G36*
X132538Y604285D02*
X132538Y604285D01*
X128710Y605871D01*
X125781Y608800D01*
X124195Y612628D01*
X124195Y616772D01*
X125781Y620600D01*
X128710Y623529D01*
X132538Y625115D01*
X154462Y625115D01*
X158290Y623529D01*
X161219Y620600D01*
X162805Y616772D01*
X162805Y612628D01*
X161219Y608800D01*
X158290Y605871D01*
X154462Y604285D01*
X132538Y604285D01*
G37*
%LPD*%
%LPC*%
G36*
X132538Y756685D02*
X132538Y756685D01*
X128710Y758271D01*
X125781Y761200D01*
X124195Y765028D01*
X124195Y769172D01*
X125781Y773000D01*
X128710Y775929D01*
X132538Y777515D01*
X154462Y777515D01*
X158290Y775929D01*
X161219Y773000D01*
X162805Y769172D01*
X162805Y765028D01*
X161219Y761200D01*
X158290Y758271D01*
X154462Y756685D01*
X132538Y756685D01*
G37*
%LPD*%
%LPC*%
G36*
X132538Y629685D02*
X132538Y629685D01*
X128710Y631271D01*
X125781Y634200D01*
X124195Y638028D01*
X124195Y642172D01*
X125781Y646000D01*
X128710Y648929D01*
X132538Y650515D01*
X154462Y650515D01*
X158290Y648929D01*
X161219Y646000D01*
X162805Y642172D01*
X162805Y638028D01*
X161219Y634200D01*
X158290Y631271D01*
X154462Y629685D01*
X132538Y629685D01*
G37*
%LPD*%
%LPC*%
G36*
X132538Y655085D02*
X132538Y655085D01*
X128710Y656671D01*
X125781Y659600D01*
X124195Y663428D01*
X124195Y667572D01*
X125781Y671400D01*
X128710Y674329D01*
X132538Y675915D01*
X154462Y675915D01*
X158290Y674329D01*
X161219Y671400D01*
X162805Y667572D01*
X162805Y663428D01*
X161219Y659600D01*
X158290Y656671D01*
X154462Y655085D01*
X132538Y655085D01*
G37*
%LPD*%
%LPC*%
G36*
X132538Y680485D02*
X132538Y680485D01*
X128710Y682071D01*
X125781Y685000D01*
X124195Y688828D01*
X124195Y692972D01*
X125781Y696800D01*
X128710Y699729D01*
X132538Y701315D01*
X154462Y701315D01*
X158290Y699729D01*
X161219Y696800D01*
X162805Y692972D01*
X162805Y688828D01*
X161219Y685000D01*
X158290Y682071D01*
X154462Y680485D01*
X132538Y680485D01*
G37*
%LPD*%
%LPC*%
G36*
X154576Y94577D02*
X154576Y94577D01*
X148177Y100976D01*
X148177Y103977D01*
X155090Y103977D01*
X155110Y103980D01*
X155129Y103978D01*
X155231Y104000D01*
X155333Y104017D01*
X155350Y104026D01*
X155370Y104030D01*
X155459Y104083D01*
X155550Y104132D01*
X155564Y104146D01*
X155581Y104156D01*
X155648Y104235D01*
X155720Y104310D01*
X155728Y104328D01*
X155741Y104343D01*
X155780Y104439D01*
X155823Y104533D01*
X155825Y104553D01*
X155833Y104571D01*
X155851Y104738D01*
X155851Y106262D01*
X155848Y106282D01*
X155850Y106301D01*
X155828Y106403D01*
X155812Y106505D01*
X155802Y106522D01*
X155798Y106542D01*
X155745Y106631D01*
X155696Y106722D01*
X155682Y106736D01*
X155672Y106753D01*
X155593Y106820D01*
X155518Y106891D01*
X155500Y106900D01*
X155485Y106913D01*
X155389Y106952D01*
X155295Y106995D01*
X155275Y106997D01*
X155257Y107005D01*
X155090Y107023D01*
X148177Y107023D01*
X148177Y110024D01*
X154576Y116423D01*
X157577Y116423D01*
X157577Y109310D01*
X157580Y109290D01*
X157578Y109271D01*
X157600Y109169D01*
X157617Y109067D01*
X157626Y109050D01*
X157630Y109030D01*
X157683Y108941D01*
X157732Y108850D01*
X157746Y108836D01*
X157756Y108819D01*
X157835Y108752D01*
X157910Y108680D01*
X157928Y108672D01*
X157943Y108659D01*
X158039Y108620D01*
X158133Y108577D01*
X158153Y108575D01*
X158171Y108567D01*
X158338Y108549D01*
X159862Y108549D01*
X159882Y108552D01*
X159901Y108550D01*
X160003Y108572D01*
X160105Y108588D01*
X160122Y108598D01*
X160142Y108602D01*
X160231Y108655D01*
X160322Y108704D01*
X160336Y108718D01*
X160353Y108728D01*
X160420Y108807D01*
X160491Y108882D01*
X160500Y108900D01*
X160513Y108915D01*
X160552Y109011D01*
X160595Y109105D01*
X160597Y109125D01*
X160605Y109143D01*
X160623Y109310D01*
X160623Y116423D01*
X163624Y116423D01*
X170023Y110024D01*
X170023Y109310D01*
X170026Y109290D01*
X170024Y109271D01*
X170046Y109169D01*
X170062Y109067D01*
X170072Y109050D01*
X170076Y109030D01*
X170129Y108941D01*
X170178Y108850D01*
X170192Y108836D01*
X170202Y108819D01*
X170281Y108752D01*
X170356Y108680D01*
X170374Y108672D01*
X170389Y108659D01*
X170485Y108620D01*
X170579Y108577D01*
X170599Y108575D01*
X170617Y108567D01*
X170784Y108549D01*
X191360Y108549D01*
X191380Y108552D01*
X191399Y108550D01*
X191501Y108572D01*
X191603Y108588D01*
X191620Y108598D01*
X191640Y108602D01*
X191729Y108655D01*
X191820Y108704D01*
X191834Y108718D01*
X191851Y108728D01*
X191918Y108807D01*
X191990Y108882D01*
X191998Y108900D01*
X192011Y108915D01*
X192050Y109011D01*
X192093Y109105D01*
X192095Y109125D01*
X192103Y109143D01*
X192121Y109310D01*
X192121Y113132D01*
X193014Y114025D01*
X206278Y114025D01*
X207171Y113132D01*
X207171Y97868D01*
X206278Y96975D01*
X193014Y96975D01*
X192121Y97868D01*
X192121Y101690D01*
X192118Y101710D01*
X192120Y101729D01*
X192098Y101831D01*
X192082Y101933D01*
X192072Y101950D01*
X192068Y101970D01*
X192015Y102059D01*
X191966Y102150D01*
X191952Y102164D01*
X191942Y102181D01*
X191863Y102248D01*
X191788Y102320D01*
X191770Y102328D01*
X191755Y102341D01*
X191659Y102380D01*
X191565Y102423D01*
X191545Y102425D01*
X191527Y102433D01*
X191360Y102451D01*
X170784Y102451D01*
X170764Y102448D01*
X170745Y102450D01*
X170643Y102428D01*
X170541Y102412D01*
X170524Y102402D01*
X170504Y102398D01*
X170415Y102345D01*
X170324Y102296D01*
X170310Y102282D01*
X170293Y102272D01*
X170226Y102193D01*
X170154Y102118D01*
X170146Y102100D01*
X170133Y102085D01*
X170094Y101989D01*
X170051Y101895D01*
X170049Y101875D01*
X170041Y101857D01*
X170023Y101690D01*
X170023Y100976D01*
X163624Y94577D01*
X160623Y94577D01*
X160623Y101690D01*
X160620Y101710D01*
X160622Y101729D01*
X160600Y101831D01*
X160583Y101933D01*
X160574Y101950D01*
X160570Y101970D01*
X160517Y102059D01*
X160468Y102150D01*
X160454Y102164D01*
X160444Y102181D01*
X160365Y102248D01*
X160290Y102320D01*
X160272Y102328D01*
X160257Y102341D01*
X160161Y102380D01*
X160067Y102423D01*
X160047Y102425D01*
X160029Y102433D01*
X159862Y102451D01*
X158338Y102451D01*
X158318Y102448D01*
X158299Y102450D01*
X158197Y102428D01*
X158095Y102412D01*
X158078Y102402D01*
X158058Y102398D01*
X157969Y102345D01*
X157878Y102296D01*
X157864Y102282D01*
X157847Y102272D01*
X157780Y102193D01*
X157709Y102118D01*
X157700Y102100D01*
X157687Y102085D01*
X157648Y101989D01*
X157605Y101895D01*
X157603Y101875D01*
X157595Y101857D01*
X157577Y101690D01*
X157577Y94577D01*
X154576Y94577D01*
G37*
%LPD*%
%LPC*%
G36*
X22161Y835655D02*
X22161Y835655D01*
X18800Y837047D01*
X16227Y839620D01*
X14835Y842981D01*
X14835Y846619D01*
X16227Y849980D01*
X18800Y852553D01*
X22161Y853945D01*
X41039Y853945D01*
X44400Y852553D01*
X46973Y849980D01*
X48365Y846619D01*
X48365Y842981D01*
X46973Y839620D01*
X44400Y837047D01*
X41039Y835655D01*
X22161Y835655D01*
G37*
%LPD*%
%LPC*%
G36*
X587861Y838855D02*
X587861Y838855D01*
X584500Y840247D01*
X581927Y842820D01*
X580535Y846181D01*
X580535Y849819D01*
X581927Y853180D01*
X584500Y855753D01*
X587861Y857145D01*
X606739Y857145D01*
X610100Y855753D01*
X612673Y853180D01*
X614065Y849819D01*
X614065Y846181D01*
X612673Y842820D01*
X610100Y840247D01*
X606739Y838855D01*
X587861Y838855D01*
G37*
%LPD*%
%LPC*%
G36*
X22161Y810255D02*
X22161Y810255D01*
X18800Y811647D01*
X16227Y814220D01*
X14835Y817581D01*
X14835Y821219D01*
X16227Y824580D01*
X18800Y827153D01*
X22161Y828545D01*
X41039Y828545D01*
X44400Y827153D01*
X46973Y824580D01*
X48365Y821219D01*
X48365Y817581D01*
X46973Y814220D01*
X44400Y811647D01*
X41039Y810255D01*
X22161Y810255D01*
G37*
%LPD*%
%LPC*%
G36*
X27161Y119955D02*
X27161Y119955D01*
X23800Y121347D01*
X21227Y123920D01*
X19835Y127281D01*
X19835Y130919D01*
X21227Y134280D01*
X23800Y136853D01*
X27161Y138245D01*
X46039Y138245D01*
X49400Y136853D01*
X51973Y134280D01*
X53365Y130919D01*
X53365Y127281D01*
X51973Y123920D01*
X49400Y121347D01*
X46039Y119955D01*
X27161Y119955D01*
G37*
%LPD*%
%LPC*%
G36*
X591461Y121355D02*
X591461Y121355D01*
X588100Y122747D01*
X585527Y125320D01*
X584135Y128681D01*
X584135Y132319D01*
X585527Y135680D01*
X588100Y138253D01*
X591461Y139645D01*
X610339Y139645D01*
X613700Y138253D01*
X616273Y135680D01*
X617665Y132319D01*
X617665Y128681D01*
X616273Y125320D01*
X613700Y122747D01*
X610339Y121355D01*
X591461Y121355D01*
G37*
%LPD*%
%LPC*%
G36*
X27161Y94555D02*
X27161Y94555D01*
X23800Y95947D01*
X21227Y98520D01*
X19835Y101881D01*
X19835Y105519D01*
X21227Y108880D01*
X23800Y111453D01*
X27161Y112845D01*
X46039Y112845D01*
X49400Y111453D01*
X51973Y108880D01*
X53365Y105519D01*
X53365Y101881D01*
X51973Y98520D01*
X49400Y95947D01*
X46039Y94555D01*
X27161Y94555D01*
G37*
%LPD*%
%LPC*%
G36*
X591461Y95955D02*
X591461Y95955D01*
X588100Y97347D01*
X585527Y99920D01*
X584135Y103281D01*
X584135Y106919D01*
X585527Y110280D01*
X588100Y112853D01*
X591461Y114245D01*
X610339Y114245D01*
X613700Y112853D01*
X616273Y110280D01*
X617665Y106919D01*
X617665Y103281D01*
X616273Y99920D01*
X613700Y97347D01*
X610339Y95955D01*
X591461Y95955D01*
G37*
%LPD*%
%LPC*%
G36*
X27161Y145355D02*
X27161Y145355D01*
X23800Y146747D01*
X21227Y149320D01*
X19835Y152681D01*
X19835Y156319D01*
X21227Y159680D01*
X23800Y162253D01*
X27161Y163645D01*
X46039Y163645D01*
X49400Y162253D01*
X51973Y159680D01*
X53365Y156319D01*
X53365Y152681D01*
X51973Y149320D01*
X49400Y146747D01*
X46039Y145355D01*
X27161Y145355D01*
G37*
%LPD*%
%LPC*%
G36*
X591461Y146755D02*
X591461Y146755D01*
X588100Y148147D01*
X585527Y150720D01*
X584135Y154081D01*
X584135Y157719D01*
X585527Y161080D01*
X588100Y163653D01*
X591461Y165045D01*
X610339Y165045D01*
X613700Y163653D01*
X616273Y161080D01*
X617665Y157719D01*
X617665Y154081D01*
X616273Y150720D01*
X613700Y148147D01*
X610339Y146755D01*
X591461Y146755D01*
G37*
%LPD*%
%LPC*%
G36*
X460581Y283535D02*
X460581Y283535D01*
X457220Y284927D01*
X454647Y287500D01*
X453255Y290861D01*
X453255Y309739D01*
X454647Y313100D01*
X457220Y315673D01*
X460581Y317065D01*
X464219Y317065D01*
X467580Y315673D01*
X470153Y313100D01*
X471545Y309739D01*
X471545Y290861D01*
X470153Y287500D01*
X467580Y284927D01*
X464219Y283535D01*
X460581Y283535D01*
G37*
%LPD*%
%LPC*%
G36*
X587861Y864255D02*
X587861Y864255D01*
X584500Y865647D01*
X581927Y868220D01*
X580535Y871581D01*
X580535Y875219D01*
X581927Y878580D01*
X584500Y881153D01*
X587861Y882545D01*
X606739Y882545D01*
X610100Y881153D01*
X612673Y878580D01*
X614065Y875219D01*
X614065Y871581D01*
X612673Y868220D01*
X610100Y865647D01*
X606739Y864255D01*
X587861Y864255D01*
G37*
%LPD*%
%LPC*%
G36*
X22161Y861055D02*
X22161Y861055D01*
X18800Y862447D01*
X16227Y865020D01*
X14835Y868381D01*
X14835Y872019D01*
X16227Y875380D01*
X18800Y877953D01*
X22161Y879345D01*
X41039Y879345D01*
X44400Y877953D01*
X46973Y875380D01*
X48365Y872019D01*
X48365Y868381D01*
X46973Y865020D01*
X44400Y862447D01*
X41039Y861055D01*
X22161Y861055D01*
G37*
%LPD*%
%LPC*%
G36*
X342727Y936677D02*
X342727Y936677D01*
X338713Y938340D01*
X335640Y941413D01*
X333977Y945427D01*
X333977Y949773D01*
X335640Y953787D01*
X338713Y956860D01*
X342727Y958523D01*
X347073Y958523D01*
X351087Y956860D01*
X354160Y953787D01*
X355823Y949773D01*
X355823Y945427D01*
X354160Y941413D01*
X351087Y938340D01*
X347073Y936677D01*
X342727Y936677D01*
G37*
%LPD*%
%LPC*%
G36*
X242727Y936077D02*
X242727Y936077D01*
X238713Y937740D01*
X235640Y940813D01*
X233977Y944827D01*
X233977Y949173D01*
X235640Y953187D01*
X238713Y956260D01*
X242727Y957923D01*
X247073Y957923D01*
X251087Y956260D01*
X254160Y953187D01*
X255823Y949173D01*
X255823Y944827D01*
X254160Y940813D01*
X251087Y937740D01*
X247073Y936077D01*
X242727Y936077D01*
G37*
%LPD*%
%LPC*%
G36*
X302727Y935277D02*
X302727Y935277D01*
X298713Y936940D01*
X295640Y940013D01*
X293977Y944027D01*
X293977Y948373D01*
X295640Y952387D01*
X298713Y955460D01*
X302727Y957123D01*
X307073Y957123D01*
X311087Y955460D01*
X314160Y952387D01*
X315823Y948373D01*
X315823Y944027D01*
X314160Y940013D01*
X311087Y936940D01*
X307073Y935277D01*
X302727Y935277D01*
G37*
%LPD*%
%LPC*%
G36*
X410227Y934677D02*
X410227Y934677D01*
X406213Y936340D01*
X403140Y939413D01*
X401477Y943427D01*
X401477Y947773D01*
X403140Y951787D01*
X406213Y954860D01*
X410227Y956523D01*
X414573Y956523D01*
X418587Y954860D01*
X421660Y951787D01*
X423323Y947773D01*
X423323Y943427D01*
X421660Y939413D01*
X418587Y936340D01*
X414573Y934677D01*
X410227Y934677D01*
G37*
%LPD*%
%LPC*%
G36*
X106927Y796077D02*
X106927Y796077D01*
X102913Y797740D01*
X99840Y800813D01*
X98177Y804827D01*
X98177Y809173D01*
X99840Y813187D01*
X102913Y816260D01*
X106927Y817923D01*
X111273Y817923D01*
X115287Y816260D01*
X118360Y813187D01*
X120023Y809173D01*
X120023Y804827D01*
X118360Y800813D01*
X115287Y797740D01*
X111273Y796077D01*
X106927Y796077D01*
G37*
%LPD*%
%LPC*%
G36*
X78727Y794277D02*
X78727Y794277D01*
X74713Y795940D01*
X71640Y799013D01*
X69977Y803027D01*
X69977Y807373D01*
X71640Y811387D01*
X74713Y814460D01*
X78727Y816123D01*
X83073Y816123D01*
X87087Y814460D01*
X90160Y811387D01*
X91823Y807373D01*
X91823Y803027D01*
X90160Y799013D01*
X87087Y795940D01*
X83073Y794277D01*
X78727Y794277D01*
G37*
%LPD*%
%LPC*%
G36*
X551827Y791277D02*
X551827Y791277D01*
X547813Y792940D01*
X544740Y796013D01*
X543077Y800027D01*
X543077Y804373D01*
X544740Y808387D01*
X547813Y811460D01*
X551827Y813123D01*
X556173Y813123D01*
X560187Y811460D01*
X563260Y808387D01*
X564923Y804373D01*
X564923Y800027D01*
X563260Y796013D01*
X560187Y792940D01*
X556173Y791277D01*
X551827Y791277D01*
G37*
%LPD*%
%LPC*%
G36*
X434427Y778377D02*
X434427Y778377D01*
X430413Y780040D01*
X427340Y783113D01*
X425677Y787127D01*
X425677Y791473D01*
X427340Y795487D01*
X430413Y798560D01*
X434427Y800223D01*
X438773Y800223D01*
X442787Y798560D01*
X445860Y795487D01*
X447523Y791473D01*
X447523Y787127D01*
X445860Y783113D01*
X442787Y780040D01*
X438773Y778377D01*
X434427Y778377D01*
G37*
%LPD*%
%LPC*%
G36*
X489427Y759977D02*
X489427Y759977D01*
X485413Y761640D01*
X482340Y764713D01*
X480677Y768727D01*
X480677Y773073D01*
X482340Y777087D01*
X485413Y780160D01*
X489427Y781823D01*
X493773Y781823D01*
X497787Y780160D01*
X500860Y777087D01*
X502523Y773073D01*
X502523Y768727D01*
X500860Y764713D01*
X497787Y761640D01*
X493773Y759977D01*
X489427Y759977D01*
G37*
%LPD*%
%LPC*%
G36*
X462727Y757077D02*
X462727Y757077D01*
X458713Y758740D01*
X455640Y761813D01*
X453977Y765827D01*
X453977Y770173D01*
X455640Y774187D01*
X458713Y777260D01*
X462727Y778923D01*
X467073Y778923D01*
X471087Y777260D01*
X474160Y774187D01*
X475823Y770173D01*
X475823Y765827D01*
X474160Y761813D01*
X471087Y758740D01*
X467073Y757077D01*
X462727Y757077D01*
G37*
%LPD*%
%LPC*%
G36*
X434427Y854577D02*
X434427Y854577D01*
X430413Y856240D01*
X427340Y859313D01*
X425677Y863327D01*
X425677Y867673D01*
X427340Y871687D01*
X430413Y874760D01*
X434427Y876423D01*
X438773Y876423D01*
X442787Y874760D01*
X445860Y871687D01*
X447523Y867673D01*
X447523Y863327D01*
X445860Y859313D01*
X442787Y856240D01*
X438773Y854577D01*
X434427Y854577D01*
G37*
%LPD*%
%LPC*%
G36*
X176527Y183077D02*
X176527Y183077D01*
X172513Y184740D01*
X169440Y187813D01*
X167777Y191827D01*
X167777Y196173D01*
X169440Y200187D01*
X172513Y203260D01*
X176527Y204923D01*
X180873Y204923D01*
X184887Y203260D01*
X187960Y200187D01*
X189623Y196173D01*
X189623Y191827D01*
X187960Y187813D01*
X184887Y184740D01*
X180873Y183077D01*
X176527Y183077D01*
G37*
%LPD*%
%LPC*%
G36*
X131827Y169777D02*
X131827Y169777D01*
X127813Y171440D01*
X124740Y174513D01*
X123077Y178527D01*
X123077Y182873D01*
X124740Y186887D01*
X127813Y189960D01*
X131827Y191623D01*
X136173Y191623D01*
X140187Y189960D01*
X143260Y186887D01*
X144923Y182873D01*
X144923Y178527D01*
X143260Y174513D01*
X140187Y171440D01*
X136173Y169777D01*
X131827Y169777D01*
G37*
%LPD*%
%LPC*%
G36*
X550127Y150677D02*
X550127Y150677D01*
X546113Y152340D01*
X543040Y155413D01*
X541377Y159427D01*
X541377Y163773D01*
X543040Y167787D01*
X546113Y170860D01*
X550127Y172523D01*
X554473Y172523D01*
X558487Y170860D01*
X561560Y167787D01*
X563223Y163773D01*
X563223Y159427D01*
X561560Y155413D01*
X558487Y152340D01*
X554473Y150677D01*
X550127Y150677D01*
G37*
%LPD*%
%LPC*%
G36*
X473927Y150677D02*
X473927Y150677D01*
X469913Y152340D01*
X466840Y155413D01*
X465177Y159427D01*
X465177Y163773D01*
X466840Y167787D01*
X469913Y170860D01*
X473927Y172523D01*
X478273Y172523D01*
X482287Y170860D01*
X485360Y167787D01*
X487023Y163773D01*
X487023Y159427D01*
X485360Y155413D01*
X482287Y152340D01*
X478273Y150677D01*
X473927Y150677D01*
G37*
%LPD*%
%LPC*%
G36*
X549027Y117477D02*
X549027Y117477D01*
X545013Y119140D01*
X541940Y122213D01*
X540277Y126227D01*
X540277Y130573D01*
X541940Y134587D01*
X545013Y137660D01*
X549027Y139323D01*
X553373Y139323D01*
X557387Y137660D01*
X560460Y134587D01*
X562123Y130573D01*
X562123Y126227D01*
X560460Y122213D01*
X557387Y119140D01*
X553373Y117477D01*
X549027Y117477D01*
G37*
%LPD*%
%LPC*%
G36*
X472827Y117477D02*
X472827Y117477D01*
X468813Y119140D01*
X465740Y122213D01*
X464077Y126227D01*
X464077Y130573D01*
X465740Y134587D01*
X468813Y137660D01*
X472827Y139323D01*
X477173Y139323D01*
X481187Y137660D01*
X484260Y134587D01*
X485923Y130573D01*
X485923Y126227D01*
X484260Y122213D01*
X481187Y119140D01*
X477173Y117477D01*
X472827Y117477D01*
G37*
%LPD*%
%LPC*%
G36*
X131827Y93577D02*
X131827Y93577D01*
X127813Y95240D01*
X124740Y98313D01*
X123077Y102327D01*
X123077Y106673D01*
X124740Y110687D01*
X127813Y113760D01*
X131827Y115423D01*
X136173Y115423D01*
X140187Y113760D01*
X143260Y110687D01*
X144923Y106673D01*
X144923Y102327D01*
X143260Y98313D01*
X140187Y95240D01*
X136173Y93577D01*
X131827Y93577D01*
G37*
%LPD*%
%LPC*%
G36*
X307927Y65977D02*
X307927Y65977D01*
X303913Y67640D01*
X300840Y70713D01*
X299177Y74727D01*
X299177Y79073D01*
X300840Y83087D01*
X303913Y86160D01*
X307927Y87823D01*
X312273Y87823D01*
X316287Y86160D01*
X319360Y83087D01*
X321023Y79073D01*
X321023Y74727D01*
X319360Y70713D01*
X316287Y67640D01*
X312273Y65977D01*
X307927Y65977D01*
G37*
%LPD*%
%LPC*%
G36*
X342927Y63077D02*
X342927Y63077D01*
X338913Y64740D01*
X335840Y67813D01*
X334177Y71827D01*
X334177Y76173D01*
X335840Y80187D01*
X338913Y83260D01*
X342927Y84923D01*
X347273Y84923D01*
X351287Y83260D01*
X354360Y80187D01*
X356023Y76173D01*
X356023Y71827D01*
X354360Y67813D01*
X351287Y64740D01*
X347273Y63077D01*
X342927Y63077D01*
G37*
%LPD*%
%LPC*%
G36*
X307927Y15177D02*
X307927Y15177D01*
X303913Y16840D01*
X300840Y19913D01*
X299177Y23927D01*
X299177Y28273D01*
X300840Y32287D01*
X303913Y35360D01*
X307927Y37023D01*
X312273Y37023D01*
X316287Y35360D01*
X319360Y32287D01*
X321023Y28273D01*
X321023Y23927D01*
X319360Y19913D01*
X316287Y16840D01*
X312273Y15177D01*
X307927Y15177D01*
G37*
%LPD*%
%LPC*%
G36*
X342927Y12277D02*
X342927Y12277D01*
X338913Y13940D01*
X335840Y17013D01*
X334177Y21027D01*
X334177Y25373D01*
X335840Y29387D01*
X338913Y32460D01*
X342927Y34123D01*
X347273Y34123D01*
X351287Y32460D01*
X354360Y29387D01*
X356023Y25373D01*
X356023Y21027D01*
X354360Y17013D01*
X351287Y13940D01*
X347273Y12277D01*
X342927Y12277D01*
G37*
%LPD*%
%LPC*%
G36*
X342727Y885877D02*
X342727Y885877D01*
X338713Y887540D01*
X335640Y890613D01*
X333977Y894627D01*
X333977Y898973D01*
X335640Y902987D01*
X338713Y906060D01*
X342727Y907723D01*
X347073Y907723D01*
X351087Y906060D01*
X354160Y902987D01*
X355823Y898973D01*
X355823Y894627D01*
X354160Y890613D01*
X351087Y887540D01*
X347073Y885877D01*
X342727Y885877D01*
G37*
%LPD*%
%LPC*%
G36*
X242727Y885277D02*
X242727Y885277D01*
X238713Y886940D01*
X235640Y890013D01*
X233977Y894027D01*
X233977Y898373D01*
X235640Y902387D01*
X238713Y905460D01*
X242727Y907123D01*
X247073Y907123D01*
X251087Y905460D01*
X254160Y902387D01*
X255823Y898373D01*
X255823Y894027D01*
X254160Y890013D01*
X251087Y886940D01*
X247073Y885277D01*
X242727Y885277D01*
G37*
%LPD*%
%LPC*%
G36*
X302727Y884477D02*
X302727Y884477D01*
X298713Y886140D01*
X295640Y889213D01*
X293977Y893227D01*
X293977Y897573D01*
X295640Y901587D01*
X298713Y904660D01*
X302727Y906323D01*
X307073Y906323D01*
X311087Y904660D01*
X314160Y901587D01*
X315823Y897573D01*
X315823Y893227D01*
X314160Y889213D01*
X311087Y886140D01*
X307073Y884477D01*
X302727Y884477D01*
G37*
%LPD*%
%LPC*%
G36*
X410227Y883877D02*
X410227Y883877D01*
X406213Y885540D01*
X403140Y888613D01*
X401477Y892627D01*
X401477Y896973D01*
X403140Y900987D01*
X406213Y904060D01*
X410227Y905723D01*
X414573Y905723D01*
X418587Y904060D01*
X421660Y900987D01*
X423323Y896973D01*
X423323Y892627D01*
X421660Y888613D01*
X418587Y885540D01*
X414573Y883877D01*
X410227Y883877D01*
G37*
%LPD*%
%LPC*%
G36*
X106927Y872277D02*
X106927Y872277D01*
X102913Y873940D01*
X99840Y877013D01*
X98177Y881027D01*
X98177Y885373D01*
X99840Y889387D01*
X102913Y892460D01*
X106927Y894123D01*
X111273Y894123D01*
X115287Y892460D01*
X118360Y889387D01*
X120023Y885373D01*
X120023Y881027D01*
X118360Y877013D01*
X115287Y873940D01*
X111273Y872277D01*
X106927Y872277D01*
G37*
%LPD*%
%LPC*%
G36*
X78727Y870477D02*
X78727Y870477D01*
X74713Y872140D01*
X71640Y875213D01*
X69977Y879227D01*
X69977Y883573D01*
X71640Y887587D01*
X74713Y890660D01*
X78727Y892323D01*
X83073Y892323D01*
X87087Y890660D01*
X90160Y887587D01*
X91823Y883573D01*
X91823Y879227D01*
X90160Y875213D01*
X87087Y872140D01*
X83073Y870477D01*
X78727Y870477D01*
G37*
%LPD*%
%LPC*%
G36*
X513827Y867777D02*
X513827Y867777D01*
X509813Y869440D01*
X506740Y872513D01*
X505077Y876527D01*
X505077Y880873D01*
X506740Y884887D01*
X509813Y887960D01*
X513827Y889623D01*
X518173Y889623D01*
X522187Y887960D01*
X525260Y884887D01*
X526923Y880873D01*
X526923Y876527D01*
X525260Y872513D01*
X522187Y869440D01*
X518173Y867777D01*
X513827Y867777D01*
G37*
%LPD*%
%LPC*%
G36*
X551827Y867477D02*
X551827Y867477D01*
X547813Y869140D01*
X544740Y872213D01*
X543077Y876227D01*
X543077Y880573D01*
X544740Y884587D01*
X547813Y887660D01*
X551827Y889323D01*
X556173Y889323D01*
X560187Y887660D01*
X563260Y884587D01*
X564923Y880573D01*
X564923Y876227D01*
X563260Y872213D01*
X560187Y869140D01*
X556173Y867477D01*
X551827Y867477D01*
G37*
%LPD*%
%LPC*%
G36*
X214227Y865577D02*
X214227Y865577D01*
X210213Y867240D01*
X207140Y870313D01*
X205477Y874327D01*
X205477Y878673D01*
X207140Y882687D01*
X210213Y885760D01*
X214227Y887423D01*
X218573Y887423D01*
X222587Y885760D01*
X225660Y882687D01*
X227323Y878673D01*
X227323Y874327D01*
X225660Y870313D01*
X222587Y867240D01*
X218573Y865577D01*
X214227Y865577D01*
G37*
%LPD*%
%LPC*%
G36*
X138027Y865577D02*
X138027Y865577D01*
X134013Y867240D01*
X130940Y870313D01*
X129277Y874327D01*
X129277Y878673D01*
X130940Y882687D01*
X134013Y885760D01*
X138027Y887423D01*
X142373Y887423D01*
X146387Y885760D01*
X149460Y882687D01*
X151123Y878673D01*
X151123Y874327D01*
X149460Y870313D01*
X146387Y867240D01*
X142373Y865577D01*
X138027Y865577D01*
G37*
%LPD*%
%LPC*%
G36*
X489427Y836177D02*
X489427Y836177D01*
X485413Y837840D01*
X482340Y840913D01*
X480677Y844927D01*
X480677Y849273D01*
X482340Y853287D01*
X485413Y856360D01*
X489427Y858023D01*
X493773Y858023D01*
X497787Y856360D01*
X500860Y853287D01*
X502523Y849273D01*
X502523Y844927D01*
X500860Y840913D01*
X497787Y837840D01*
X493773Y836177D01*
X489427Y836177D01*
G37*
%LPD*%
%LPC*%
G36*
X212627Y835577D02*
X212627Y835577D01*
X208613Y837240D01*
X205540Y840313D01*
X203877Y844327D01*
X203877Y848673D01*
X205540Y852687D01*
X208613Y855760D01*
X212627Y857423D01*
X216973Y857423D01*
X220987Y855760D01*
X224060Y852687D01*
X225723Y848673D01*
X225723Y844327D01*
X224060Y840313D01*
X220987Y837240D01*
X216973Y835577D01*
X212627Y835577D01*
G37*
%LPD*%
%LPC*%
G36*
X136427Y835577D02*
X136427Y835577D01*
X132413Y837240D01*
X129340Y840313D01*
X127677Y844327D01*
X127677Y848673D01*
X129340Y852687D01*
X132413Y855760D01*
X136427Y857423D01*
X140773Y857423D01*
X144787Y855760D01*
X147860Y852687D01*
X149523Y848673D01*
X149523Y844327D01*
X147860Y840313D01*
X144787Y837240D01*
X140773Y835577D01*
X136427Y835577D01*
G37*
%LPD*%
%LPC*%
G36*
X462727Y833277D02*
X462727Y833277D01*
X458713Y834940D01*
X455640Y838013D01*
X453977Y842027D01*
X453977Y846373D01*
X455640Y850387D01*
X458713Y853460D01*
X462727Y855123D01*
X467073Y855123D01*
X471087Y853460D01*
X474160Y850387D01*
X475823Y846373D01*
X475823Y842027D01*
X474160Y838013D01*
X471087Y834940D01*
X467073Y833277D01*
X462727Y833277D01*
G37*
%LPD*%
%LPC*%
G36*
X143728Y339285D02*
X143728Y339285D01*
X139900Y340871D01*
X136971Y343800D01*
X135385Y347628D01*
X135385Y351772D01*
X136971Y355600D01*
X139900Y358529D01*
X143728Y360115D01*
X147872Y360115D01*
X151700Y358529D01*
X154629Y355600D01*
X156215Y351772D01*
X156215Y347628D01*
X154629Y343800D01*
X151700Y340871D01*
X147872Y339285D01*
X143728Y339285D01*
G37*
%LPD*%
%LPC*%
G36*
X78728Y339285D02*
X78728Y339285D01*
X74900Y340871D01*
X71971Y343800D01*
X70385Y347628D01*
X70385Y351772D01*
X71971Y355600D01*
X74900Y358529D01*
X78728Y360115D01*
X82872Y360115D01*
X86700Y358529D01*
X89629Y355600D01*
X91215Y351772D01*
X91215Y347628D01*
X89629Y343800D01*
X86700Y340871D01*
X82872Y339285D01*
X78728Y339285D01*
G37*
%LPD*%
%LPC*%
G36*
X490655Y251220D02*
X490655Y251220D01*
X487060Y252709D01*
X484309Y255460D01*
X482820Y259055D01*
X482820Y262945D01*
X484309Y266540D01*
X487060Y269291D01*
X490655Y270780D01*
X494545Y270780D01*
X498140Y269291D01*
X500891Y266540D01*
X502380Y262945D01*
X502380Y259055D01*
X500891Y255460D01*
X498140Y252709D01*
X494545Y251220D01*
X490655Y251220D01*
G37*
%LPD*%
%LPC*%
G36*
X458355Y222320D02*
X458355Y222320D01*
X454760Y223809D01*
X452009Y226560D01*
X450520Y230155D01*
X450520Y234045D01*
X452009Y237640D01*
X454760Y240391D01*
X458355Y241880D01*
X462245Y241880D01*
X465840Y240391D01*
X468591Y237640D01*
X470080Y234045D01*
X470080Y230155D01*
X468591Y226560D01*
X465840Y223809D01*
X462245Y222320D01*
X458355Y222320D01*
G37*
%LPD*%
%LPC*%
G36*
X504055Y197020D02*
X504055Y197020D01*
X500460Y198509D01*
X497709Y201260D01*
X496220Y204855D01*
X496220Y208745D01*
X497709Y212340D01*
X500460Y215091D01*
X504055Y216580D01*
X507945Y216580D01*
X511540Y215091D01*
X514291Y212340D01*
X515780Y208745D01*
X515780Y204855D01*
X514291Y201260D01*
X511540Y198509D01*
X507945Y197020D01*
X504055Y197020D01*
G37*
%LPD*%
%LPC*%
G36*
X227196Y499135D02*
X227196Y499135D01*
X224048Y500439D01*
X221639Y502848D01*
X220335Y505996D01*
X220335Y509404D01*
X221639Y512552D01*
X224048Y514961D01*
X227196Y516265D01*
X230604Y516265D01*
X233752Y514961D01*
X236161Y512552D01*
X237465Y509404D01*
X237465Y505996D01*
X236161Y502848D01*
X233752Y500439D01*
X230604Y499135D01*
X227196Y499135D01*
G37*
%LPD*%
%LPC*%
G36*
X528396Y933935D02*
X528396Y933935D01*
X525431Y935163D01*
X523163Y937431D01*
X521935Y940396D01*
X521935Y943604D01*
X523163Y946569D01*
X525431Y948837D01*
X528396Y950065D01*
X531604Y950065D01*
X534569Y948837D01*
X536837Y946569D01*
X538065Y943604D01*
X538065Y940396D01*
X536837Y937431D01*
X534569Y935163D01*
X531604Y933935D01*
X528396Y933935D01*
G37*
%LPD*%
%LPC*%
G36*
X478396Y933935D02*
X478396Y933935D01*
X475431Y935163D01*
X473163Y937431D01*
X471935Y940396D01*
X471935Y943604D01*
X473163Y946569D01*
X475431Y948837D01*
X478396Y950065D01*
X481604Y950065D01*
X484569Y948837D01*
X486837Y946569D01*
X488065Y943604D01*
X488065Y940396D01*
X486837Y937431D01*
X484569Y935163D01*
X481604Y933935D01*
X478396Y933935D01*
G37*
%LPD*%
%LPC*%
G36*
X98396Y931935D02*
X98396Y931935D01*
X95431Y933163D01*
X93163Y935431D01*
X91935Y938396D01*
X91935Y941604D01*
X93163Y944569D01*
X95431Y946837D01*
X98396Y948065D01*
X101604Y948065D01*
X104569Y946837D01*
X106837Y944569D01*
X108065Y941604D01*
X108065Y938396D01*
X106837Y935431D01*
X104569Y933163D01*
X101604Y931935D01*
X98396Y931935D01*
G37*
%LPD*%
%LPC*%
G36*
X127096Y430455D02*
X127096Y430455D01*
X124131Y431683D01*
X121863Y433951D01*
X120635Y436916D01*
X120635Y440124D01*
X121863Y443089D01*
X124131Y445357D01*
X127096Y446585D01*
X130304Y446585D01*
X133269Y445357D01*
X135537Y443089D01*
X136765Y440124D01*
X136765Y436916D01*
X135537Y433951D01*
X133269Y431683D01*
X130304Y430455D01*
X127096Y430455D01*
G37*
%LPD*%
%LPC*%
G36*
X488396Y33935D02*
X488396Y33935D01*
X485431Y35163D01*
X483163Y37431D01*
X481935Y40396D01*
X481935Y43604D01*
X483163Y46569D01*
X485431Y48837D01*
X488396Y50065D01*
X491604Y50065D01*
X494569Y48837D01*
X496837Y46569D01*
X498065Y43604D01*
X498065Y40396D01*
X496837Y37431D01*
X494569Y35163D01*
X491604Y33935D01*
X488396Y33935D01*
G37*
%LPD*%
%LPC*%
G36*
X41296Y258335D02*
X41296Y258335D01*
X38331Y259563D01*
X36063Y261831D01*
X34835Y264796D01*
X34835Y268004D01*
X36063Y270969D01*
X38331Y273237D01*
X41296Y274465D01*
X44504Y274465D01*
X47469Y273237D01*
X49737Y270969D01*
X50965Y268004D01*
X50965Y264796D01*
X49737Y261831D01*
X47469Y259563D01*
X44504Y258335D01*
X41296Y258335D01*
G37*
%LPD*%
%LPC*%
G36*
X127096Y534605D02*
X127096Y534605D01*
X124131Y535833D01*
X121863Y538101D01*
X120635Y541066D01*
X120635Y544274D01*
X121863Y547239D01*
X124131Y549507D01*
X127096Y550735D01*
X130304Y550735D01*
X133269Y549507D01*
X135537Y547239D01*
X136765Y544274D01*
X136765Y541066D01*
X135537Y538101D01*
X133269Y535833D01*
X130304Y534605D01*
X127096Y534605D01*
G37*
%LPD*%
%LPC*%
G36*
X127096Y513775D02*
X127096Y513775D01*
X124131Y515003D01*
X121863Y517271D01*
X120635Y520236D01*
X120635Y523444D01*
X121863Y526409D01*
X124131Y528677D01*
X127096Y529905D01*
X130304Y529905D01*
X133269Y528677D01*
X135537Y526409D01*
X136765Y523444D01*
X136765Y520236D01*
X135537Y517271D01*
X133269Y515003D01*
X130304Y513775D01*
X127096Y513775D01*
G37*
%LPD*%
%LPC*%
G36*
X41296Y208335D02*
X41296Y208335D01*
X38331Y209563D01*
X36063Y211831D01*
X34835Y214796D01*
X34835Y218004D01*
X36063Y220969D01*
X38331Y223237D01*
X41296Y224465D01*
X44504Y224465D01*
X47469Y223237D01*
X49737Y220969D01*
X50965Y218004D01*
X50965Y214796D01*
X49737Y211831D01*
X47469Y209563D01*
X44504Y208335D01*
X41296Y208335D01*
G37*
%LPD*%
%LPC*%
G36*
X127096Y451285D02*
X127096Y451285D01*
X124131Y452513D01*
X121863Y454781D01*
X120635Y457746D01*
X120635Y460954D01*
X121863Y463919D01*
X124131Y466187D01*
X127096Y467415D01*
X130304Y467415D01*
X133269Y466187D01*
X135537Y463919D01*
X136765Y460954D01*
X136765Y457746D01*
X135537Y454781D01*
X133269Y452513D01*
X130304Y451285D01*
X127096Y451285D01*
G37*
%LPD*%
%LPC*%
G36*
X419396Y572835D02*
X419396Y572835D01*
X416432Y574063D01*
X414163Y576332D01*
X412935Y579296D01*
X412935Y582504D01*
X414163Y585468D01*
X416432Y587737D01*
X419396Y588965D01*
X422604Y588965D01*
X425568Y587737D01*
X427837Y585468D01*
X429065Y582504D01*
X429065Y579296D01*
X427837Y576332D01*
X425568Y574063D01*
X422604Y572835D01*
X419396Y572835D01*
G37*
%LPD*%
%LPC*%
G36*
X393996Y572835D02*
X393996Y572835D01*
X391032Y574063D01*
X388763Y576332D01*
X387535Y579296D01*
X387535Y582504D01*
X388763Y585468D01*
X391032Y587737D01*
X393996Y588965D01*
X397204Y588965D01*
X400168Y587737D01*
X402437Y585468D01*
X403665Y582504D01*
X403665Y579296D01*
X402437Y576332D01*
X400168Y574063D01*
X397204Y572835D01*
X393996Y572835D01*
G37*
%LPD*%
%LPC*%
G36*
X444796Y725235D02*
X444796Y725235D01*
X441832Y726463D01*
X439563Y728732D01*
X438335Y731696D01*
X438335Y734904D01*
X439563Y737868D01*
X441832Y740137D01*
X444796Y741365D01*
X448004Y741365D01*
X450968Y740137D01*
X453237Y737868D01*
X454465Y734904D01*
X454465Y731696D01*
X453237Y728732D01*
X450968Y726463D01*
X448004Y725235D01*
X444796Y725235D01*
G37*
%LPD*%
%LPC*%
G36*
X266996Y725235D02*
X266996Y725235D01*
X264032Y726463D01*
X261763Y728732D01*
X260535Y731696D01*
X260535Y734904D01*
X261763Y737868D01*
X264032Y740137D01*
X266996Y741365D01*
X270204Y741365D01*
X273168Y740137D01*
X275437Y737868D01*
X276665Y734904D01*
X276665Y731696D01*
X275437Y728732D01*
X273168Y726463D01*
X270204Y725235D01*
X266996Y725235D01*
G37*
%LPD*%
%LPC*%
G36*
X317796Y725235D02*
X317796Y725235D01*
X314832Y726463D01*
X312563Y728732D01*
X311335Y731696D01*
X311335Y734904D01*
X312563Y737868D01*
X314832Y740137D01*
X317796Y741365D01*
X321004Y741365D01*
X323968Y740137D01*
X326237Y737868D01*
X327465Y734904D01*
X327465Y731696D01*
X326237Y728732D01*
X323968Y726463D01*
X321004Y725235D01*
X317796Y725235D01*
G37*
%LPD*%
%LPC*%
G36*
X546396Y725235D02*
X546396Y725235D01*
X543432Y726463D01*
X541163Y728732D01*
X539935Y731696D01*
X539935Y734904D01*
X541163Y737868D01*
X543432Y740137D01*
X546396Y741365D01*
X549604Y741365D01*
X552568Y740137D01*
X554837Y737868D01*
X556065Y734904D01*
X556065Y731696D01*
X554837Y728732D01*
X552568Y726463D01*
X549604Y725235D01*
X546396Y725235D01*
G37*
%LPD*%
%LPC*%
G36*
X343196Y572835D02*
X343196Y572835D01*
X340232Y574063D01*
X337963Y576332D01*
X336735Y579296D01*
X336735Y582504D01*
X337963Y585468D01*
X340232Y587737D01*
X343196Y588965D01*
X346404Y588965D01*
X349368Y587737D01*
X351637Y585468D01*
X352865Y582504D01*
X352865Y579296D01*
X351637Y576332D01*
X349368Y574063D01*
X346404Y572835D01*
X343196Y572835D01*
G37*
%LPD*%
%LPC*%
G36*
X343196Y725235D02*
X343196Y725235D01*
X340232Y726463D01*
X337963Y728732D01*
X336735Y731696D01*
X336735Y734904D01*
X337963Y737868D01*
X340232Y740137D01*
X343196Y741365D01*
X346404Y741365D01*
X349368Y740137D01*
X351637Y737868D01*
X352865Y734904D01*
X352865Y731696D01*
X351637Y728732D01*
X349368Y726463D01*
X346404Y725235D01*
X343196Y725235D01*
G37*
%LPD*%
%LPC*%
G36*
X419396Y725235D02*
X419396Y725235D01*
X416432Y726463D01*
X414163Y728732D01*
X412935Y731696D01*
X412935Y734904D01*
X414163Y737868D01*
X416432Y740137D01*
X419396Y741365D01*
X422604Y741365D01*
X425568Y740137D01*
X427837Y737868D01*
X429065Y734904D01*
X429065Y731696D01*
X427837Y728732D01*
X425568Y726463D01*
X422604Y725235D01*
X419396Y725235D01*
G37*
%LPD*%
%LPC*%
G36*
X241596Y725235D02*
X241596Y725235D01*
X238632Y726463D01*
X236363Y728732D01*
X235135Y731696D01*
X235135Y734904D01*
X236363Y737868D01*
X238632Y740137D01*
X241596Y741365D01*
X244804Y741365D01*
X247768Y740137D01*
X250037Y737868D01*
X251265Y734904D01*
X251265Y731696D01*
X250037Y728732D01*
X247768Y726463D01*
X244804Y725235D01*
X241596Y725235D01*
G37*
%LPD*%
%LPC*%
G36*
X495596Y725235D02*
X495596Y725235D01*
X492632Y726463D01*
X490363Y728732D01*
X489135Y731696D01*
X489135Y734904D01*
X490363Y737868D01*
X492632Y740137D01*
X495596Y741365D01*
X498804Y741365D01*
X501768Y740137D01*
X504037Y737868D01*
X505265Y734904D01*
X505265Y731696D01*
X504037Y728732D01*
X501768Y726463D01*
X498804Y725235D01*
X495596Y725235D01*
G37*
%LPD*%
%LPC*%
G36*
X368596Y725235D02*
X368596Y725235D01*
X365632Y726463D01*
X363363Y728732D01*
X362135Y731696D01*
X362135Y734904D01*
X363363Y737868D01*
X365632Y740137D01*
X368596Y741365D01*
X371804Y741365D01*
X374768Y740137D01*
X377037Y737868D01*
X378265Y734904D01*
X378265Y731696D01*
X377037Y728732D01*
X374768Y726463D01*
X371804Y725235D01*
X368596Y725235D01*
G37*
%LPD*%
%LPC*%
G36*
X520996Y725235D02*
X520996Y725235D01*
X518032Y726463D01*
X515763Y728732D01*
X514535Y731696D01*
X514535Y734904D01*
X515763Y737868D01*
X518032Y740137D01*
X520996Y741365D01*
X524204Y741365D01*
X527168Y740137D01*
X529437Y737868D01*
X530665Y734904D01*
X530665Y731696D01*
X529437Y728732D01*
X527168Y726463D01*
X524204Y725235D01*
X520996Y725235D01*
G37*
%LPD*%
%LPC*%
G36*
X393996Y725235D02*
X393996Y725235D01*
X391032Y726463D01*
X388763Y728732D01*
X387535Y731696D01*
X387535Y734904D01*
X388763Y737868D01*
X391032Y740137D01*
X393996Y741365D01*
X397204Y741365D01*
X400168Y740137D01*
X402437Y737868D01*
X403665Y734904D01*
X403665Y731696D01*
X402437Y728732D01*
X400168Y726463D01*
X397204Y725235D01*
X393996Y725235D01*
G37*
%LPD*%
%LPC*%
G36*
X292396Y572835D02*
X292396Y572835D01*
X289432Y574063D01*
X287163Y576332D01*
X285935Y579296D01*
X285935Y582504D01*
X287163Y585468D01*
X289432Y587737D01*
X292396Y588965D01*
X295604Y588965D01*
X298568Y587737D01*
X300837Y585468D01*
X302065Y582504D01*
X302065Y579296D01*
X300837Y576332D01*
X298568Y574063D01*
X295604Y572835D01*
X292396Y572835D01*
G37*
%LPD*%
%LPC*%
G36*
X520996Y572835D02*
X520996Y572835D01*
X518032Y574063D01*
X515763Y576332D01*
X514535Y579296D01*
X514535Y582504D01*
X515763Y585468D01*
X518032Y587737D01*
X520996Y588965D01*
X524204Y588965D01*
X527168Y587737D01*
X529437Y585468D01*
X530665Y582504D01*
X530665Y579296D01*
X529437Y576332D01*
X527168Y574063D01*
X524204Y572835D01*
X520996Y572835D01*
G37*
%LPD*%
%LPC*%
G36*
X266996Y572835D02*
X266996Y572835D01*
X264032Y574063D01*
X261763Y576332D01*
X260535Y579296D01*
X260535Y582504D01*
X261763Y585468D01*
X264032Y587737D01*
X266996Y588965D01*
X270204Y588965D01*
X273168Y587737D01*
X275437Y585468D01*
X276665Y582504D01*
X276665Y579296D01*
X275437Y576332D01*
X273168Y574063D01*
X270204Y572835D01*
X266996Y572835D01*
G37*
%LPD*%
%LPC*%
G36*
X470196Y725235D02*
X470196Y725235D01*
X467232Y726463D01*
X464963Y728732D01*
X463735Y731696D01*
X463735Y734904D01*
X464963Y737868D01*
X467232Y740137D01*
X470196Y741365D01*
X473404Y741365D01*
X476368Y740137D01*
X478637Y737868D01*
X479865Y734904D01*
X479865Y731696D01*
X478637Y728732D01*
X476368Y726463D01*
X473404Y725235D01*
X470196Y725235D01*
G37*
%LPD*%
%LPC*%
G36*
X145023Y590823D02*
X145023Y590823D01*
X145023Y600731D01*
X153290Y600731D01*
X155067Y600449D01*
X156778Y599893D01*
X158381Y599076D01*
X159837Y598019D01*
X161109Y596747D01*
X162166Y595291D01*
X162983Y593688D01*
X163539Y591977D01*
X163722Y590823D01*
X145023Y590823D01*
G37*
%LPD*%
%LPC*%
G36*
X123278Y590823D02*
X123278Y590823D01*
X123461Y591977D01*
X124017Y593688D01*
X124834Y595291D01*
X125891Y596747D01*
X127163Y598019D01*
X128619Y599076D01*
X130222Y599893D01*
X131933Y600449D01*
X133710Y600731D01*
X141977Y600731D01*
X141977Y590823D01*
X123278Y590823D01*
G37*
%LPD*%
%LPC*%
G36*
X145023Y577869D02*
X145023Y577869D01*
X145023Y587777D01*
X163722Y587777D01*
X163539Y586623D01*
X162983Y584912D01*
X162166Y583309D01*
X161109Y581853D01*
X159837Y580581D01*
X158381Y579524D01*
X156778Y578707D01*
X155067Y578151D01*
X153290Y577869D01*
X145023Y577869D01*
G37*
%LPD*%
%LPC*%
G36*
X133710Y577869D02*
X133710Y577869D01*
X131933Y578151D01*
X130222Y578707D01*
X128619Y579524D01*
X127163Y580581D01*
X125891Y581853D01*
X124834Y583309D01*
X124017Y584912D01*
X123461Y586623D01*
X123278Y587777D01*
X141977Y587777D01*
X141977Y577869D01*
X133710Y577869D01*
G37*
%LPD*%
%LPC*%
G36*
X489323Y301823D02*
X489323Y301823D01*
X489323Y317966D01*
X490179Y317831D01*
X491700Y317336D01*
X493125Y316610D01*
X494419Y315670D01*
X495550Y314539D01*
X496490Y313245D01*
X497216Y311820D01*
X497711Y310299D01*
X497961Y308720D01*
X497961Y301823D01*
X489323Y301823D01*
G37*
%LPD*%
%LPC*%
G36*
X489323Y298777D02*
X489323Y298777D01*
X497961Y298777D01*
X497961Y291880D01*
X497711Y290301D01*
X497216Y288780D01*
X496490Y287355D01*
X495550Y286061D01*
X494419Y284930D01*
X493125Y283990D01*
X491700Y283264D01*
X490179Y282769D01*
X489323Y282634D01*
X489323Y298777D01*
G37*
%LPD*%
%LPC*%
G36*
X477639Y301823D02*
X477639Y301823D01*
X477639Y308720D01*
X477889Y310299D01*
X478384Y311820D01*
X479110Y313245D01*
X480050Y314539D01*
X481181Y315670D01*
X482475Y316610D01*
X483900Y317336D01*
X485421Y317831D01*
X486277Y317966D01*
X486277Y301823D01*
X477639Y301823D01*
G37*
%LPD*%
%LPC*%
G36*
X485421Y282769D02*
X485421Y282769D01*
X483900Y283264D01*
X482475Y283990D01*
X481181Y284930D01*
X480050Y286061D01*
X479110Y287355D01*
X478384Y288780D01*
X477889Y290301D01*
X477639Y291880D01*
X477639Y298777D01*
X486277Y298777D01*
X486277Y282634D01*
X485421Y282769D01*
G37*
%LPD*%
%LPC*%
G36*
X205623Y170123D02*
X205623Y170123D01*
X205623Y180446D01*
X206896Y180245D01*
X208683Y179664D01*
X210357Y178811D01*
X211878Y177706D01*
X213206Y176378D01*
X214311Y174857D01*
X215164Y173183D01*
X215745Y171396D01*
X215946Y170123D01*
X205623Y170123D01*
G37*
%LPD*%
%LPC*%
G36*
X311623Y53023D02*
X311623Y53023D01*
X311623Y63346D01*
X312896Y63145D01*
X314683Y62564D01*
X316357Y61711D01*
X317878Y60606D01*
X319206Y59278D01*
X320311Y57757D01*
X321164Y56083D01*
X321745Y54296D01*
X321946Y53023D01*
X311623Y53023D01*
G37*
%LPD*%
%LPC*%
G36*
X413923Y921723D02*
X413923Y921723D01*
X413923Y932046D01*
X415196Y931845D01*
X416983Y931264D01*
X418657Y930411D01*
X420178Y929306D01*
X421506Y927978D01*
X422611Y926457D01*
X423464Y924783D01*
X424045Y922996D01*
X424246Y921723D01*
X413923Y921723D01*
G37*
%LPD*%
%LPC*%
G36*
X246423Y923123D02*
X246423Y923123D01*
X246423Y933446D01*
X247696Y933245D01*
X249483Y932664D01*
X251157Y931811D01*
X252678Y930706D01*
X254006Y929378D01*
X255111Y927857D01*
X255964Y926183D01*
X256545Y924396D01*
X256746Y923123D01*
X246423Y923123D01*
G37*
%LPD*%
%LPC*%
G36*
X346423Y923723D02*
X346423Y923723D01*
X346423Y934046D01*
X347696Y933845D01*
X349483Y933264D01*
X351157Y932411D01*
X352678Y931306D01*
X354006Y929978D01*
X355111Y928457D01*
X355964Y926783D01*
X356545Y924996D01*
X356746Y923723D01*
X346423Y923723D01*
G37*
%LPD*%
%LPC*%
G36*
X306423Y922323D02*
X306423Y922323D01*
X306423Y932646D01*
X307696Y932445D01*
X309483Y931864D01*
X311157Y931011D01*
X312678Y929906D01*
X314006Y928578D01*
X315111Y927057D01*
X315964Y925383D01*
X316545Y923596D01*
X316746Y922323D01*
X306423Y922323D01*
G37*
%LPD*%
%LPC*%
G36*
X346623Y50123D02*
X346623Y50123D01*
X346623Y60446D01*
X347896Y60245D01*
X349683Y59664D01*
X351357Y58811D01*
X352878Y57706D01*
X354206Y56378D01*
X355311Y54857D01*
X356164Y53183D01*
X356745Y51396D01*
X356946Y50123D01*
X346623Y50123D01*
G37*
%LPD*%
%LPC*%
G36*
X192254Y170123D02*
X192254Y170123D01*
X192455Y171396D01*
X193036Y173183D01*
X193889Y174857D01*
X194994Y176378D01*
X196322Y177706D01*
X197843Y178811D01*
X199517Y179664D01*
X201304Y180245D01*
X202577Y180446D01*
X202577Y170123D01*
X192254Y170123D01*
G37*
%LPD*%
%LPC*%
G36*
X400554Y921723D02*
X400554Y921723D01*
X400755Y922996D01*
X401336Y924783D01*
X402189Y926457D01*
X403294Y927978D01*
X404622Y929306D01*
X406143Y930411D01*
X407817Y931264D01*
X409604Y931845D01*
X410877Y932046D01*
X410877Y921723D01*
X400554Y921723D01*
G37*
%LPD*%
%LPC*%
G36*
X293054Y922323D02*
X293054Y922323D01*
X293255Y923596D01*
X293836Y925383D01*
X294689Y927057D01*
X295794Y928578D01*
X297122Y929906D01*
X298643Y931011D01*
X300317Y931864D01*
X302104Y932445D01*
X303377Y932646D01*
X303377Y922323D01*
X293054Y922323D01*
G37*
%LPD*%
%LPC*%
G36*
X233054Y923123D02*
X233054Y923123D01*
X233255Y924396D01*
X233836Y926183D01*
X234689Y927857D01*
X235794Y929378D01*
X237122Y930706D01*
X238643Y931811D01*
X240317Y932664D01*
X242104Y933245D01*
X243377Y933446D01*
X243377Y923123D01*
X233054Y923123D01*
G37*
%LPD*%
%LPC*%
G36*
X333054Y923723D02*
X333054Y923723D01*
X333255Y924996D01*
X333836Y926783D01*
X334689Y928457D01*
X335794Y929978D01*
X337122Y931306D01*
X338643Y932411D01*
X340317Y933264D01*
X342104Y933845D01*
X343377Y934046D01*
X343377Y923723D01*
X333054Y923723D01*
G37*
%LPD*%
%LPC*%
G36*
X346423Y920677D02*
X346423Y920677D01*
X356746Y920677D01*
X356545Y919404D01*
X355964Y917617D01*
X355111Y915943D01*
X354006Y914422D01*
X352678Y913094D01*
X351157Y911989D01*
X349483Y911136D01*
X347696Y910555D01*
X346423Y910354D01*
X346423Y920677D01*
G37*
%LPD*%
%LPC*%
G36*
X413923Y918677D02*
X413923Y918677D01*
X424246Y918677D01*
X424045Y917404D01*
X423464Y915617D01*
X422611Y913943D01*
X421506Y912422D01*
X420178Y911094D01*
X418657Y909989D01*
X416983Y909136D01*
X415196Y908555D01*
X413923Y908354D01*
X413923Y918677D01*
G37*
%LPD*%
%LPC*%
G36*
X246423Y920077D02*
X246423Y920077D01*
X256746Y920077D01*
X256545Y918804D01*
X255964Y917017D01*
X255111Y915343D01*
X254006Y913822D01*
X252678Y912494D01*
X251157Y911389D01*
X249483Y910536D01*
X247696Y909955D01*
X246423Y909754D01*
X246423Y920077D01*
G37*
%LPD*%
%LPC*%
G36*
X306423Y919277D02*
X306423Y919277D01*
X316746Y919277D01*
X316545Y918004D01*
X315964Y916217D01*
X315111Y914543D01*
X314006Y913022D01*
X312678Y911694D01*
X311157Y910589D01*
X309483Y909736D01*
X307696Y909155D01*
X306423Y908954D01*
X306423Y919277D01*
G37*
%LPD*%
%LPC*%
G36*
X333254Y50123D02*
X333254Y50123D01*
X333455Y51396D01*
X334036Y53183D01*
X334889Y54857D01*
X335994Y56378D01*
X337322Y57706D01*
X338843Y58811D01*
X340517Y59664D01*
X342304Y60245D01*
X343577Y60446D01*
X343577Y50123D01*
X333254Y50123D01*
G37*
%LPD*%
%LPC*%
G36*
X311623Y49977D02*
X311623Y49977D01*
X321946Y49977D01*
X321745Y48704D01*
X321164Y46917D01*
X320311Y45243D01*
X319206Y43722D01*
X317878Y42394D01*
X316357Y41289D01*
X314683Y40436D01*
X312896Y39855D01*
X311623Y39654D01*
X311623Y49977D01*
G37*
%LPD*%
%LPC*%
G36*
X346623Y47077D02*
X346623Y47077D01*
X356946Y47077D01*
X356745Y45804D01*
X356164Y44017D01*
X355311Y42343D01*
X354206Y40822D01*
X352878Y39494D01*
X351357Y38389D01*
X349683Y37536D01*
X347896Y36955D01*
X346623Y36754D01*
X346623Y47077D01*
G37*
%LPD*%
%LPC*%
G36*
X298254Y53023D02*
X298254Y53023D01*
X298455Y54296D01*
X299036Y56083D01*
X299889Y57757D01*
X300994Y59278D01*
X302322Y60606D01*
X303843Y61711D01*
X305517Y62564D01*
X307304Y63145D01*
X308577Y63346D01*
X308577Y53023D01*
X298254Y53023D01*
G37*
%LPD*%
%LPC*%
G36*
X342104Y910555D02*
X342104Y910555D01*
X340317Y911136D01*
X338643Y911989D01*
X337122Y913094D01*
X335794Y914422D01*
X334689Y915943D01*
X333836Y917617D01*
X333255Y919404D01*
X333054Y920677D01*
X343377Y920677D01*
X343377Y910354D01*
X342104Y910555D01*
G37*
%LPD*%
%LPC*%
G36*
X242104Y909955D02*
X242104Y909955D01*
X240317Y910536D01*
X238643Y911389D01*
X237122Y912494D01*
X235794Y913822D01*
X234689Y915343D01*
X233836Y917017D01*
X233255Y918804D01*
X233054Y920077D01*
X243377Y920077D01*
X243377Y909754D01*
X242104Y909955D01*
G37*
%LPD*%
%LPC*%
G36*
X409604Y908555D02*
X409604Y908555D01*
X407817Y909136D01*
X406143Y909989D01*
X404622Y911094D01*
X403294Y912422D01*
X402189Y913943D01*
X401336Y915617D01*
X400755Y917404D01*
X400554Y918677D01*
X410877Y918677D01*
X410877Y908354D01*
X409604Y908555D01*
G37*
%LPD*%
%LPC*%
G36*
X302104Y909155D02*
X302104Y909155D01*
X300317Y909736D01*
X298643Y910589D01*
X297122Y911694D01*
X295794Y913022D01*
X294689Y914543D01*
X293836Y916217D01*
X293255Y918004D01*
X293054Y919277D01*
X303377Y919277D01*
X303377Y908954D01*
X302104Y909155D01*
G37*
%LPD*%
%LPC*%
G36*
X307304Y39855D02*
X307304Y39855D01*
X305517Y40436D01*
X303843Y41289D01*
X302322Y42394D01*
X300994Y43722D01*
X299889Y45243D01*
X299036Y46917D01*
X298455Y48704D01*
X298254Y49977D01*
X308577Y49977D01*
X308577Y39654D01*
X307304Y39855D01*
G37*
%LPD*%
%LPC*%
G36*
X342304Y36955D02*
X342304Y36955D01*
X340517Y37536D01*
X338843Y38389D01*
X337322Y39494D01*
X335994Y40822D01*
X334889Y42343D01*
X334036Y44017D01*
X333455Y45804D01*
X333254Y47077D01*
X343577Y47077D01*
X343577Y36754D01*
X342304Y36955D01*
G37*
%LPD*%
%LPC*%
G36*
X519523Y262523D02*
X519523Y262523D01*
X519523Y271689D01*
X520528Y271530D01*
X522144Y271005D01*
X523658Y270233D01*
X525033Y269234D01*
X526234Y268033D01*
X527233Y266658D01*
X528005Y265144D01*
X528530Y263528D01*
X528689Y262523D01*
X519523Y262523D01*
G37*
%LPD*%
%LPC*%
G36*
X519523Y259477D02*
X519523Y259477D01*
X528689Y259477D01*
X528530Y258472D01*
X528005Y256856D01*
X527233Y255342D01*
X526234Y253967D01*
X525033Y252766D01*
X523658Y251767D01*
X522144Y250995D01*
X520528Y250470D01*
X519523Y250311D01*
X519523Y259477D01*
G37*
%LPD*%
%LPC*%
G36*
X507311Y262523D02*
X507311Y262523D01*
X507470Y263528D01*
X507995Y265144D01*
X508767Y266658D01*
X509766Y268033D01*
X510967Y269234D01*
X512342Y270233D01*
X513856Y271005D01*
X515472Y271530D01*
X516477Y271689D01*
X516477Y262523D01*
X507311Y262523D01*
G37*
%LPD*%
%LPC*%
G36*
X515472Y250470D02*
X515472Y250470D01*
X513856Y250995D01*
X512342Y251767D01*
X510967Y252766D01*
X509766Y253967D01*
X508767Y255342D01*
X507995Y256856D01*
X507470Y258472D01*
X507311Y259477D01*
X516477Y259477D01*
X516477Y250311D01*
X515472Y250470D01*
G37*
%LPD*%
%LPC*%
G36*
X230423Y484223D02*
X230423Y484223D01*
X230423Y492159D01*
X231143Y492045D01*
X232578Y491579D01*
X233921Y490894D01*
X235142Y490008D01*
X236208Y488942D01*
X237094Y487721D01*
X237779Y486378D01*
X238245Y484943D01*
X238359Y484223D01*
X230423Y484223D01*
G37*
%LPD*%
%LPC*%
G36*
X230423Y481177D02*
X230423Y481177D01*
X238359Y481177D01*
X238245Y480457D01*
X237779Y479022D01*
X237094Y477679D01*
X236208Y476458D01*
X235142Y475392D01*
X233921Y474506D01*
X232578Y473821D01*
X231143Y473355D01*
X230423Y473241D01*
X230423Y481177D01*
G37*
%LPD*%
%LPC*%
G36*
X219441Y484223D02*
X219441Y484223D01*
X219555Y484943D01*
X220021Y486378D01*
X220706Y487721D01*
X221592Y488942D01*
X222658Y490008D01*
X223879Y490894D01*
X225222Y491579D01*
X226657Y492045D01*
X227377Y492159D01*
X227377Y484223D01*
X219441Y484223D01*
G37*
%LPD*%
%LPC*%
G36*
X226657Y473355D02*
X226657Y473355D01*
X225222Y473821D01*
X223879Y474506D01*
X222658Y475392D01*
X221592Y476458D01*
X220706Y477679D01*
X220021Y479022D01*
X219555Y480457D01*
X219441Y481177D01*
X227377Y481177D01*
X227377Y473241D01*
X226657Y473355D01*
G37*
%LPD*%
%LPC*%
G36*
X295523Y734823D02*
X295523Y734823D01*
X295523Y742256D01*
X296649Y742032D01*
X298301Y741347D01*
X299789Y740353D01*
X301053Y739089D01*
X302047Y737601D01*
X302732Y735949D01*
X302956Y734823D01*
X295523Y734823D01*
G37*
%LPD*%
%LPC*%
G36*
X295523Y731777D02*
X295523Y731777D01*
X302956Y731777D01*
X302732Y730651D01*
X302047Y728999D01*
X301053Y727511D01*
X299789Y726247D01*
X298301Y725253D01*
X296649Y724568D01*
X295523Y724344D01*
X295523Y731777D01*
G37*
%LPD*%
%LPC*%
G36*
X285044Y734823D02*
X285044Y734823D01*
X285268Y735949D01*
X285953Y737601D01*
X286947Y739089D01*
X288211Y740353D01*
X289699Y741347D01*
X291351Y742032D01*
X292477Y742256D01*
X292477Y734823D01*
X285044Y734823D01*
G37*
%LPD*%
%LPC*%
G36*
X291351Y724568D02*
X291351Y724568D01*
X289699Y725253D01*
X288211Y726247D01*
X286947Y727511D01*
X285953Y728999D01*
X285268Y730651D01*
X285044Y731777D01*
X292477Y731777D01*
X292477Y724344D01*
X291351Y724568D01*
G37*
%LPD*%
%LPC*%
G36*
X143499Y589299D02*
X143499Y589299D01*
X143499Y589301D01*
X143501Y589301D01*
X143501Y589299D01*
X143499Y589299D01*
G37*
%LPD*%
%LPC*%
G36*
X304899Y920799D02*
X304899Y920799D01*
X304899Y920801D01*
X304901Y920801D01*
X304901Y920799D01*
X304899Y920799D01*
G37*
%LPD*%
%LPC*%
G36*
X244899Y921599D02*
X244899Y921599D01*
X244899Y921601D01*
X244901Y921601D01*
X244901Y921599D01*
X244899Y921599D01*
G37*
%LPD*%
%LPC*%
G36*
X517999Y260999D02*
X517999Y260999D01*
X517999Y261001D01*
X518001Y261001D01*
X518001Y260999D01*
X517999Y260999D01*
G37*
%LPD*%
%LPC*%
G36*
X487799Y300299D02*
X487799Y300299D01*
X487799Y300301D01*
X487801Y300301D01*
X487801Y300299D01*
X487799Y300299D01*
G37*
%LPD*%
%LPC*%
G36*
X344899Y922199D02*
X344899Y922199D01*
X344899Y922201D01*
X344901Y922201D01*
X344901Y922199D01*
X344899Y922199D01*
G37*
%LPD*%
%LPC*%
G36*
X310099Y51499D02*
X310099Y51499D01*
X310099Y51501D01*
X310101Y51501D01*
X310101Y51499D01*
X310099Y51499D01*
G37*
%LPD*%
%LPC*%
G36*
X228899Y482699D02*
X228899Y482699D01*
X228899Y482701D01*
X228901Y482701D01*
X228901Y482699D01*
X228899Y482699D01*
G37*
%LPD*%
%LPC*%
G36*
X345099Y48599D02*
X345099Y48599D01*
X345099Y48601D01*
X345101Y48601D01*
X345101Y48599D01*
X345099Y48599D01*
G37*
%LPD*%
%LPC*%
G36*
X293999Y733299D02*
X293999Y733299D01*
X293999Y733301D01*
X294001Y733301D01*
X294001Y733299D01*
X293999Y733299D01*
G37*
%LPD*%
%LPC*%
G36*
X412399Y920199D02*
X412399Y920199D01*
X412399Y920201D01*
X412401Y920201D01*
X412401Y920199D01*
X412399Y920199D01*
G37*
%LPD*%
D10*
X573400Y733300D03*
D11*
X548000Y733300D03*
X522600Y733300D03*
X497200Y733300D03*
X471800Y733300D03*
X446400Y733300D03*
X421000Y733300D03*
X395600Y733300D03*
X370200Y733300D03*
X344800Y733300D03*
X319400Y733300D03*
X294000Y733300D03*
X268600Y733300D03*
X243200Y733300D03*
X217800Y733300D03*
X217800Y580900D03*
X243200Y580900D03*
X268600Y580900D03*
X294000Y580900D03*
X319400Y580900D03*
X344800Y580900D03*
X370200Y580900D03*
X395600Y580900D03*
X421000Y580900D03*
X446400Y580900D03*
X471800Y580900D03*
X497200Y580900D03*
X522600Y580900D03*
X548000Y580900D03*
X573400Y580900D03*
D12*
X506000Y232200D03*
X506000Y206800D03*
X518000Y261000D03*
X492600Y261000D03*
X434900Y232100D03*
X460300Y232100D03*
D13*
X389150Y819750D02*
X389150Y832450D01*
X376450Y832450D02*
X376450Y819750D01*
X401850Y819750D02*
X401850Y832450D01*
X414550Y832450D02*
X414550Y819750D01*
D14*
X437000Y307920D02*
X437000Y292680D01*
X462400Y292680D02*
X462400Y307920D01*
X487800Y307920D02*
X487800Y292680D01*
D15*
X178700Y270200D03*
X204100Y270200D03*
X178700Y244800D03*
X204100Y244800D03*
X178700Y219400D03*
X204100Y219400D03*
X178700Y194000D03*
X204100Y194000D03*
X178700Y168600D03*
X204100Y168600D03*
D16*
X145800Y349700D03*
X80800Y349700D03*
D15*
X344900Y896800D03*
X344900Y922200D03*
X344900Y947600D03*
X304900Y895400D03*
X304900Y920800D03*
X304900Y946200D03*
X345100Y74000D03*
X345100Y48600D03*
X345100Y23200D03*
X310100Y76900D03*
X310100Y51500D03*
X310100Y26100D03*
X244900Y896200D03*
X244900Y921600D03*
X244900Y947000D03*
X412400Y894800D03*
X412400Y920200D03*
X412400Y945600D03*
D14*
X589680Y822600D02*
X604920Y822600D01*
X604920Y848000D02*
X589680Y848000D01*
X589680Y873400D02*
X604920Y873400D01*
X608520Y155900D02*
X593280Y155900D01*
X593280Y130500D02*
X608520Y130500D01*
X608520Y105100D02*
X593280Y105100D01*
X39220Y870200D02*
X23980Y870200D01*
X23980Y844800D02*
X39220Y844800D01*
X39220Y819400D02*
X23980Y819400D01*
X28980Y154500D02*
X44220Y154500D01*
X44220Y129100D02*
X28980Y129100D01*
X28980Y103700D02*
X44220Y103700D01*
D15*
X464900Y768000D03*
X464900Y844200D03*
X516000Y802500D03*
X516000Y878700D03*
X106000Y105900D03*
X106000Y182100D03*
X134000Y180700D03*
X134000Y104500D03*
X140200Y876500D03*
X216400Y876500D03*
X138600Y846500D03*
X214800Y846500D03*
D17*
X220900Y105500D02*
X254900Y105500D01*
X199900Y105500D02*
X158900Y105500D01*
D18*
X260700Y105500D03*
X159100Y105500D03*
D19*
X220154Y105500D03*
X199646Y105500D03*
D15*
X391600Y234100D03*
X391600Y310300D03*
X475000Y128400D03*
X551200Y128400D03*
X491600Y770900D03*
X491600Y847100D03*
X436600Y789300D03*
X436600Y865500D03*
X552300Y161600D03*
X476100Y161600D03*
X80900Y881400D03*
X80900Y805200D03*
X109100Y807000D03*
X109100Y883200D03*
X554000Y878400D03*
X554000Y802200D03*
D20*
X260570Y155608D02*
X242663Y155608D01*
X367631Y155608D02*
X385538Y155608D01*
X260570Y205392D02*
X242663Y205392D01*
X367631Y205392D02*
X385538Y205392D01*
D21*
X588000Y217300D03*
X588000Y267300D03*
X100000Y940000D03*
X150000Y940000D03*
X96000Y44600D03*
X146000Y44600D03*
D22*
X235200Y312600D03*
X235200Y300600D03*
X235200Y288600D03*
X235200Y276600D03*
X333200Y312600D03*
X333200Y300600D03*
X333200Y288600D03*
X333200Y276600D03*
D21*
X530000Y942000D03*
X480000Y942000D03*
X42900Y216400D03*
X42900Y266400D03*
X490000Y42000D03*
X540000Y42000D03*
X128700Y542670D03*
X128700Y521840D03*
X128700Y501010D03*
X128700Y480180D03*
X128700Y459350D03*
X128700Y438520D03*
D23*
X228900Y382700D03*
X228900Y507700D03*
X228900Y407700D03*
X228900Y432700D03*
X228900Y457700D03*
X228900Y482700D03*
D24*
X152390Y665500D02*
X134610Y665500D01*
X134610Y690900D02*
X152390Y690900D01*
X152390Y640100D02*
X134610Y640100D01*
X134610Y614700D02*
X152390Y614700D01*
X152390Y589300D02*
X134610Y589300D01*
X134610Y716300D02*
X152390Y716300D01*
X152390Y741700D02*
X134610Y741700D01*
X134610Y767100D02*
X152390Y767100D01*
D25*
X204100Y270200D02*
X228800Y270200D01*
X235200Y276600D01*
D26*
X435000Y377500D03*
D27*
X500000Y377500D01*
X588000Y289500D02*
X588000Y267300D01*
X588000Y289500D02*
X500000Y377500D01*
X565200Y217300D02*
X588000Y217300D01*
X550300Y232200D02*
X506000Y232200D01*
X550300Y232200D02*
X565200Y217300D01*
D28*
X506000Y232200D02*
X490300Y232200D01*
X460000Y262500D02*
X450000Y262500D01*
X437000Y275500D01*
X437000Y300300D01*
X460000Y262500D02*
X490300Y232200D01*
X480000Y221900D01*
X517500Y64500D02*
X540000Y42000D01*
X480000Y190000D02*
X480000Y221900D01*
X480000Y190000D02*
X517500Y152500D01*
X517500Y75000D01*
X517500Y64500D01*
X517500Y75000D02*
X402500Y75000D01*
X372500Y105000D01*
X290000Y105000D01*
X247500Y62500D01*
X163900Y62500D02*
X146000Y44600D01*
X163900Y62500D02*
X247500Y62500D01*
X146000Y44600D02*
X124400Y23000D01*
X150000Y940000D02*
X153000Y940000D01*
X182000Y911000D01*
X182000Y833000D01*
X45000Y315000D02*
X79000Y281000D01*
X151000Y802000D02*
X182000Y833000D01*
X151000Y802000D02*
X135000Y802000D01*
X45000Y712000D01*
X45000Y315000D01*
X93000Y23000D02*
X124400Y23000D01*
X93000Y23000D02*
X79000Y37000D01*
X79000Y281000D01*
D25*
X165000Y443880D02*
X128700Y480180D01*
X165000Y320000D02*
X140000Y295000D01*
X140000Y222500D01*
X160000Y202500D02*
X160000Y180000D01*
X171400Y168600D01*
X178700Y168600D01*
X165000Y320000D02*
X165000Y443880D01*
X140000Y222500D02*
X160000Y202500D01*
X112500Y484810D02*
X128700Y501010D01*
X152500Y190000D02*
X152500Y162500D01*
X162500Y152500D01*
X220000Y152500D02*
X225000Y157500D01*
X225000Y182500D01*
X213500Y194000D01*
X204100Y194000D01*
X112500Y230000D02*
X112500Y484810D01*
X112500Y230000D02*
X152500Y190000D01*
X162500Y152500D02*
X220000Y152500D01*
D29*
X250000Y787500D03*
D25*
X367500Y787500D01*
X390000Y810000D01*
X390000Y825250D01*
X389150Y826100D01*
X391600Y234100D02*
X432900Y234100D01*
X434900Y232100D01*
D29*
X324000Y164000D03*
D30*
X342000Y164000D01*
X344000Y164000D01*
X333200Y312600D02*
X358600Y312600D01*
X374000Y328000D02*
X400000Y328000D01*
X408000Y320000D01*
X408000Y296000D01*
X400000Y288000D01*
X374000Y288000D01*
X358600Y312600D02*
X374000Y328000D01*
D29*
X370000Y278000D03*
D30*
X370000Y284000D02*
X374000Y288000D01*
X370000Y284000D02*
X370000Y278000D01*
X358000Y180000D02*
X342000Y164000D01*
X358000Y180000D02*
X396000Y180000D01*
X406000Y190000D01*
X406000Y224000D01*
X395900Y234100D01*
X391600Y234100D01*
D25*
X572500Y580000D02*
X573400Y580900D01*
X572500Y580000D02*
X572500Y562500D01*
X565000Y555000D01*
X472500Y555000D01*
X460000Y567500D01*
X460000Y590000D01*
X452500Y597500D02*
X235000Y597500D01*
X230000Y592500D02*
X230000Y547500D01*
X202500Y520000D02*
X202500Y470000D01*
X214800Y457700D01*
X228900Y457700D01*
X452500Y597500D02*
X460000Y590000D01*
X235000Y597500D02*
X230000Y592500D01*
X230000Y547500D02*
X202500Y520000D01*
X228900Y457700D02*
X229100Y457500D01*
X240000Y457500D01*
X245000Y452500D01*
X245000Y374000D01*
X245000Y372500D01*
X192000Y302500D02*
X190000Y302500D01*
X192000Y302500D02*
X214000Y302500D01*
X233300Y302500D01*
X235200Y300600D01*
X178700Y270200D02*
X178700Y270000D01*
X178700Y244800D01*
D30*
X245000Y339000D02*
X245000Y374000D01*
X236000Y330000D02*
X220000Y330000D01*
X214000Y324000D01*
X214000Y302500D01*
X236000Y330000D02*
X245000Y339000D01*
X192000Y302500D02*
X178700Y289200D01*
X178700Y270000D01*
D25*
X548000Y578000D02*
X548000Y580900D01*
X548000Y578000D02*
X537500Y567500D01*
X492500Y567500D01*
X485000Y575000D01*
X485000Y592500D01*
X472500Y605000D01*
X177500Y605000D02*
X170000Y597500D01*
X207300Y432700D02*
X210000Y432700D01*
X228900Y432700D01*
X177500Y605000D02*
X472500Y605000D01*
X170000Y597500D02*
X170000Y470000D01*
X207300Y432700D01*
X210000Y432700D02*
X180000Y402700D01*
X178700Y219400D02*
X168100Y219400D01*
X180000Y320000D02*
X180000Y402700D01*
X180000Y320000D02*
X157500Y297500D01*
X157500Y230000D01*
X168100Y219400D01*
X178700Y219400D02*
X204100Y219400D01*
X231900Y219400D01*
X333200Y265700D02*
X333200Y276600D01*
X272500Y260000D02*
X231900Y219400D01*
X272500Y260000D02*
X327500Y260000D01*
X333200Y265700D01*
X573400Y642500D02*
X573400Y733300D01*
X573400Y642500D02*
X573400Y640900D01*
X573400Y642500D02*
X553400Y622500D01*
D29*
X255000Y622500D03*
D25*
X553400Y622500D01*
X242300Y244800D02*
X204100Y244800D01*
X286100Y288600D02*
X333200Y288600D01*
X286100Y288600D02*
X242300Y244800D01*
D30*
X228900Y407700D02*
X213700Y407700D01*
X198000Y392000D02*
X198000Y320000D01*
X176000Y298000D01*
X172000Y298000D01*
X164000Y290000D01*
X164000Y234000D01*
X166000Y232000D01*
X192000Y232000D01*
X204100Y244100D01*
X204100Y244800D01*
X198000Y392000D02*
X213700Y407700D01*
D28*
X106000Y54600D02*
X96000Y44600D01*
X106000Y54600D02*
X106000Y105900D01*
D31*
X104000Y129000D03*
D28*
X104000Y180100D01*
X106000Y182100D01*
D29*
X322000Y358000D03*
D25*
X322000Y382000D01*
X318000Y386000D01*
X318000Y579500D01*
X319400Y580900D01*
D30*
X364000Y574700D02*
X370200Y580900D01*
X364000Y574700D02*
X364000Y358000D01*
X338000Y332000D01*
X258000Y276000D02*
X256000Y276000D01*
D29*
X256000Y276000D03*
D30*
X314000Y332000D02*
X338000Y332000D01*
X314000Y332000D02*
X258000Y276000D01*
D25*
X235200Y312600D02*
X255000Y332400D01*
X255000Y569100D02*
X243200Y580900D01*
X255000Y569100D02*
X255000Y332400D01*
X333200Y300600D02*
X368100Y300600D01*
X377800Y310300D02*
X391600Y310300D01*
X377800Y310300D02*
X368100Y300600D01*
D28*
X516000Y802500D02*
X516000Y803500D01*
X535100Y822600D02*
X597300Y822600D01*
X535100Y822600D02*
X516000Y803500D01*
D25*
X251616Y155608D02*
X251616Y148416D01*
X251616Y155608D02*
X274008Y178000D01*
X326000Y178000D01*
X348000Y200000D01*
X348000Y242000D01*
X382000Y276000D01*
X406000Y276000D01*
X414000Y284000D01*
X446400Y546400D02*
X446400Y580900D01*
X414000Y514000D02*
X414000Y284000D01*
X414000Y514000D02*
X446400Y546400D01*
X251616Y155608D02*
X243000Y146992D01*
X243000Y123200D02*
X256402Y109798D01*
X256680Y109798D01*
X259198Y107280D01*
X259198Y107002D01*
X260700Y105500D01*
X243000Y123200D02*
X243000Y146992D01*
M02*
