G04 EAGLE Gerber RS-274X export*
G75*
%MOMM*%
%FSLAX34Y34*%
%LPD*%
%INSoldermask Top*%
%IPPOS*%
%AMOC8*
5,1,8,0,0,1.08239X$1,22.5*%
G01*
%ADD10C,3.703200*%
%ADD11C,1.981200*%
%ADD12R,1.511200X1.511200*%
%ADD13C,1.511200*%
%ADD14C,1.854200*%
%ADD15C,1.473200*%
%ADD16C,1.727200*%
%ADD17C,2.082800*%
%ADD18P,2.034460X8X202.500000*%
%ADD19R,1.400000X1.600000*%
%ADD20C,1.993900*%
%ADD21C,2.006600*%
%ADD22C,1.511300*%
%ADD23R,2.133600X1.168400*%
%ADD24C,1.611200*%
%ADD25C,1.981200*%
%ADD26C,2.453200*%
%ADD27C,1.109600*%
%ADD28C,1.703200*%


D10*
X40000Y944000D03*
X593000Y944000D03*
X40000Y40000D03*
X590000Y40000D03*
D11*
X598800Y733300D03*
D12*
X573400Y733300D03*
D13*
X548000Y733300D03*
X522600Y733300D03*
X497200Y733300D03*
X471800Y733300D03*
X446400Y733300D03*
X421000Y733300D03*
X395600Y733300D03*
X370200Y733300D03*
X344800Y733300D03*
X319400Y733300D03*
X294000Y733300D03*
X268600Y733300D03*
X243200Y733300D03*
X217800Y733300D03*
X217800Y580900D03*
X243200Y580900D03*
X268600Y580900D03*
X294000Y580900D03*
X319400Y580900D03*
X344800Y580900D03*
X370200Y580900D03*
X395600Y580900D03*
X421000Y580900D03*
X446400Y580900D03*
X471800Y580900D03*
X497200Y580900D03*
X522600Y580900D03*
X548000Y580900D03*
X573400Y580900D03*
D11*
X598800Y580900D03*
X192400Y580900D03*
X192400Y733300D03*
D14*
X506000Y232200D03*
X506000Y206800D03*
X518000Y261000D03*
X492600Y261000D03*
X434900Y232100D03*
X460300Y232100D03*
D15*
X389150Y819750D02*
X389150Y832450D01*
X376450Y832450D02*
X376450Y819750D01*
X401850Y819750D02*
X401850Y832450D01*
X414550Y832450D02*
X414550Y819750D01*
D16*
X437000Y307920D02*
X437000Y292680D01*
X462400Y292680D02*
X462400Y307920D01*
X487800Y307920D02*
X487800Y292680D01*
D17*
X178700Y270200D03*
X204100Y270200D03*
X178700Y244800D03*
X204100Y244800D03*
X178700Y219400D03*
X204100Y219400D03*
X178700Y194000D03*
X204100Y194000D03*
X178700Y168600D03*
X204100Y168600D03*
D11*
X145800Y349700D03*
X80800Y349700D03*
D17*
X344900Y896800D03*
X344900Y922200D03*
X344900Y947600D03*
X304900Y895400D03*
X304900Y920800D03*
X304900Y946200D03*
X345100Y74000D03*
X345100Y48600D03*
X345100Y23200D03*
X310100Y76900D03*
X310100Y51500D03*
X310100Y26100D03*
X244900Y896200D03*
X244900Y921600D03*
X244900Y947000D03*
X412400Y894800D03*
X412400Y920200D03*
X412400Y945600D03*
D16*
X589680Y822600D02*
X604920Y822600D01*
X604920Y848000D02*
X589680Y848000D01*
X589680Y873400D02*
X604920Y873400D01*
X608520Y155900D02*
X593280Y155900D01*
X593280Y130500D02*
X608520Y130500D01*
X608520Y105100D02*
X593280Y105100D01*
X39220Y870200D02*
X23980Y870200D01*
X23980Y844800D02*
X39220Y844800D01*
X39220Y819400D02*
X23980Y819400D01*
X28980Y154500D02*
X44220Y154500D01*
X44220Y129100D02*
X28980Y129100D01*
X28980Y103700D02*
X44220Y103700D01*
D17*
X464900Y768000D03*
X464900Y844200D03*
X516000Y802500D03*
X516000Y878700D03*
X106000Y105900D03*
X106000Y182100D03*
X134000Y180700D03*
X134000Y104500D03*
X140200Y876500D03*
X216400Y876500D03*
X138600Y846500D03*
X214800Y846500D03*
D18*
X260700Y105500D03*
X159100Y105500D03*
D19*
X220154Y105500D03*
X199646Y105500D03*
D17*
X391600Y234100D03*
X391600Y310300D03*
X475000Y128400D03*
X551200Y128400D03*
X491600Y770900D03*
X491600Y847100D03*
X436600Y789300D03*
X436600Y865500D03*
X552300Y161600D03*
X476100Y161600D03*
X80900Y881400D03*
X80900Y805200D03*
X109100Y807000D03*
X109100Y883200D03*
X554000Y878400D03*
X554000Y802200D03*
D20*
X260570Y155608D02*
X242663Y155608D01*
X367631Y155608D02*
X385538Y155608D01*
X260570Y205392D02*
X242663Y205392D01*
X367631Y205392D02*
X385538Y205392D01*
D21*
X314100Y135542D03*
X314100Y225458D03*
D22*
X588000Y217300D03*
X588000Y267300D03*
X100000Y940000D03*
X150000Y940000D03*
X96000Y44600D03*
X146000Y44600D03*
D23*
X235200Y312600D03*
X235200Y300600D03*
X235200Y288600D03*
X235200Y276600D03*
X333200Y312600D03*
X333200Y300600D03*
X333200Y288600D03*
X333200Y276600D03*
D22*
X530000Y942000D03*
X480000Y942000D03*
X42900Y216400D03*
X42900Y266400D03*
X490000Y42000D03*
X540000Y42000D03*
X128700Y542670D03*
X128700Y521840D03*
X128700Y501010D03*
X128700Y480180D03*
X128700Y459350D03*
X128700Y438520D03*
D24*
X228900Y382700D03*
X228900Y507700D03*
X228900Y407700D03*
X228900Y432700D03*
X228900Y457700D03*
X228900Y482700D03*
D25*
X152390Y665500D02*
X134610Y665500D01*
X134610Y690900D02*
X152390Y690900D01*
X152390Y640100D02*
X134610Y640100D01*
X134610Y614700D02*
X152390Y614700D01*
X152390Y589300D02*
X134610Y589300D01*
X134610Y716300D02*
X152390Y716300D01*
X152390Y741700D02*
X134610Y741700D01*
X134610Y767100D02*
X152390Y767100D01*
D26*
X435000Y377500D03*
D27*
X250000Y787500D03*
X324000Y164000D03*
X370000Y278000D03*
X255000Y622500D03*
D28*
X104000Y129000D03*
D27*
X322000Y358000D03*
X256000Y276000D03*
M02*
