M48
;GenerationSoftware,Autodesk,EAGLE,9.4.2*%
;CreationDate,2019-12-09T07:53:17Z*%
FMAT,2
ICI,OFF
METRIC,TZ,000.000
T14C0.500
T13C0.700
T12C0.762
T11C0.800
T10C0.800
T9C0.813
T8C0.900
T7C1.000
T6C1.016
T5C1.194
T4C1.500
T3C1.778
T2C1.803
T1C3.500
%
G90
M71
T1
X59300Y94400
X4000Y4000
X59000Y4000
X4000Y94400
T2
X31410Y13554
X31410Y22546
T3
X59880Y73330
X59880Y58090
X19240Y58090
X19240Y73330
T4
X43500Y37750
T5
X37658Y15561
X37658Y20539
X25162Y15561
X25162Y20539
T6
X43700Y30030
X46240Y30030
X17870Y27020
X20410Y27020
X17870Y24480
X20410Y24480
X17870Y21940
X20410Y21940
X17870Y19400
X20410Y19400
X31010Y2610
X17870Y16860
X20410Y16860
X34490Y89680
X34490Y92220
X34490Y94760
X30490Y89540
X30490Y92080
X30490Y94620
X34510Y7400
X34510Y4860
X34510Y2320
X31010Y7690
X31010Y5150
X60090Y15590
X3660Y10370
X3660Y12910
X3660Y15450
X3160Y81940
X3160Y84480
X3160Y87020
X60090Y10510
X60090Y13050
X48780Y30030
X59730Y87340
X59730Y84800
X59730Y82260
X41240Y94560
X41240Y92020
X41240Y89480
X24490Y94700
X24490Y92160
X24490Y89620
T7
X10400Y12900
T8
X10910Y80700
X8090Y80520
X8090Y88140
X47610Y16160
X55230Y16160
X43660Y86550
X43660Y78930
X49160Y84710
X49160Y77090
X55120Y12840
X47500Y12840
X39160Y31030
X39160Y23410
X22890Y45770
X22890Y48270
X21480Y84650
X13860Y84650
X21640Y87650
X14020Y87650
X13400Y10450
X13400Y18070
X10600Y18210
X8080Y34970
X51600Y87870
X14580Y34970
X10910Y88320
X55400Y87840
X55400Y80220
X46490Y76800
X46490Y84420
X51600Y80250
X10600Y10590
X22890Y38270
X22890Y50770
X22890Y40770
X22890Y43270
T9
X15910Y10550
X26070Y10550
T10
X14600Y4460
X53000Y94200
X48000Y94200
X4290Y21640
X4290Y26640
X54000Y4200
X12870Y54267
X12870Y52184
X12870Y50101
X12870Y48018
X12870Y45935
X12870Y43852
X49000Y4200
X58800Y21730
X58800Y26730
X10000Y94000
X15000Y94000
X9600Y4460
T11
X34480Y73330
X37020Y73330
X39560Y73330
X42100Y73330
X44640Y73330
X47180Y73330
X52260Y73330
X54800Y73330
X57340Y73330
X24320Y58090
X21780Y58090
X21780Y73330
X24320Y73330
X26860Y73330
X29400Y73330
X31940Y73330
X14350Y66550
X14350Y69090
X14350Y64010
X14350Y61470
X14350Y58930
X52260Y58090
X14350Y71630
X14350Y74170
X14350Y76710
X57340Y58090
X54800Y58090
X39560Y58090
X49720Y58090
X47180Y58090
X44640Y58090
X42100Y58090
X49720Y73330
X37020Y58090
X34480Y58090
X31940Y58090
X29400Y58090
X26860Y58090
T12
X41455Y82610
X40185Y82610
X37645Y82610
X38915Y82610
T13
X46030Y23210
X43490Y23210
X51800Y26100
X50600Y20680
X50600Y23220
X49260Y26100
T14
X25600Y27600
X32200Y35800
X25500Y62250
X37000Y27800
X32400Y16400
X25000Y78750
M30